<svg xmlns="http://www.w3.org/2000/svg" viewBox="0 0 48 48" width="24px" height="24px">
  <path fill="#4285F4" d="M 47.5 24.5 C 47.5 23.6666667 47.4333333 22.8333333 47.3 22 H 24 V 28.5 H 37.6333333 C 36.8833333 32.1833333 34.3333333 35.2333333 30.9 36.95 V 42 H 38.3 C 43.0166667 38.75 46 33.1666667 46 27 C 46 25.6666667 45.9 24.3333333 45.6666667 23 Z"/>
  <path fill="#34A853" d="M 24 48 C 29.6666667 48 34.5 46.1666667 38 42.6666667 L 30.9 36.95 C 29.1333333 37.9166667 27.0833333 38.5 24.9 38.5 C 19.5 38.5 14.9333333 34.6666667 13.0333333 29.6666667 H 5.43333333 V 35.1166667 C 8.86666667 42.2666667 16.0333333 48 24 48 Z"/>
  <path fill="#FBBC05" d="M 13.0333333 29.6666667 C 12.3333333 27.6666667 12.3333333 25.3333333 13.0333333 23.3333333 V 17.8833333 H 5.43333333 C 2.13333333 23.6666667 2.13333333 32.3333333 5.43333333 38.1166667 L 13.0333333 29.6666667 Z"/>
  <path fill="#EA4335" d="M 24 9.5 C 26.3166667 9.5 28.3833333 10.3166667 30 11.8333333 L 37 4.83333333 C 33.9 1.96666667 29.3333333 0 24 0 C 16.0333333 0 8.86666667 5.73333333 5.43333333 12.8833333 L 13.0333333 18.3333333 C 14.9333333 13.3333333 19.5 9.5 24 9.5 Z"/>
</svg>
