<svg width="2258" height="447" viewBox="0 0 2258 447" fill="none" xmlns="http://www.w3.org/2000/svg">
<g clip-path="url(#clip0_1_603)">
<path d="M44.2216 196.176L474.028 436.891" stroke="url(#paint0_linear_1_603)" stroke-width="1.40319" stroke-miterlimit="10"/>
<path d="M89.7109 169.508L519.517 410.215" stroke="url(#paint1_linear_1_603)" stroke-width="1.40319" stroke-miterlimit="10"/>
<path d="M135.202 142.832L565.015 383.539" stroke="url(#paint2_linear_1_603)" stroke-width="1.40319" stroke-miterlimit="10"/>
<path d="M180.698 116.156L610.504 356.863" stroke="url(#paint3_linear_1_603)" stroke-width="1.40319" stroke-miterlimit="10"/>
<path d="M226.189 89.4872L655.995 330.195" stroke="url(#paint4_linear_1_603)" stroke-width="1.40319" stroke-miterlimit="10"/>
<path d="M271.678 62.8112L701.484 303.519" stroke="url(#paint5_linear_1_603)" stroke-width="1.40319" stroke-miterlimit="10"/>
<path d="M317.168 36.1353L746.981 276.843" stroke="url(#paint6_linear_1_603)" stroke-width="1.40319" stroke-miterlimit="10"/>
<path d="M362.666 9.46646L792.472 250.174" stroke="url(#paint7_linear_1_603)" stroke-width="1.40319" stroke-miterlimit="10"/>
<path d="M771.369 184.52L325.786 443.178" stroke="url(#paint8_linear_1_603)" stroke-width="1.40319" stroke-miterlimit="10"/>
<path d="M725.355 158.759L279.765 417.417" stroke="url(#paint9_linear_1_603)" stroke-width="1.40319" stroke-miterlimit="10"/>
<path d="M674.768 130.502L232.805 394.127" stroke="url(#paint10_linear_1_603)" stroke-width="1.40319" stroke-miterlimit="10"/>
<path d="M633.318 107.244L187.735 365.903" stroke="url(#paint11_linear_1_603)" stroke-width="1.40319" stroke-miterlimit="10"/>
<path d="M587.305 81.4832L141.722 340.142" stroke="url(#paint12_linear_1_603)" stroke-width="1.40319" stroke-miterlimit="10"/>
<path d="M541.291 55.7221L95.7086 314.38" stroke="url(#paint13_linear_1_603)" stroke-width="1.40319" stroke-miterlimit="10"/>
<path d="M495.276 29.9684L49.6859 288.627" stroke="url(#paint14_linear_1_603)" stroke-width="1.40319" stroke-miterlimit="10"/>
<path d="M449.254 4.2074L3.67124 262.866" stroke="url(#paint15_linear_1_603)" stroke-width="1.40319" stroke-miterlimit="10"/>
<path d="M455.241 160.629C456.786 161.503 456.807 162.935 455.288 163.84L451.359 166.178C449.84 167.083 447.364 167.107 445.813 166.234L441.808 163.974C440.264 163.108 440.242 161.668 441.761 160.764L445.69 158.425C447.21 157.521 449.685 157.496 451.229 158.37L455.234 160.63L455.241 160.629Z" fill="#E8ECF1"/>
<path d="M317.733 83.1498C319.278 84.0233 319.299 85.4558 317.78 86.3599L313.851 88.6988C312.332 89.603 309.856 89.6277 308.305 88.7543L304.3 86.4947C302.756 85.6285 302.734 84.1888 304.253 83.2846L308.182 80.9457C309.701 80.0416 312.177 80.0168 313.721 80.8903L317.726 83.1499L317.733 83.1498Z" fill="#E8ECF1"/>
<path d="M226.53 136.203C228.074 137.076 228.096 138.509 226.577 139.413L222.648 141.752C221.129 142.656 218.653 142.681 217.101 141.807L213.097 139.548C211.553 138.682 211.531 137.242 213.05 136.338L216.979 133.999C218.498 133.095 220.974 133.07 222.518 133.943L226.523 136.203L226.53 136.203Z" fill="#E8ECF1"/>
<path d="M407.976 30.9735C409.52 31.847 409.541 33.2795 408.022 34.1836L404.093 36.5225C402.574 37.4267 400.098 37.4514 398.547 36.5779L394.542 34.3184C392.998 33.4522 392.976 32.0124 394.495 31.1083L398.425 28.7694C399.944 27.8652 402.419 27.8405 403.964 28.714L407.968 30.9736L407.976 30.9735Z" fill="#E8ECF1"/>
<path d="M639.264 211.011C640.808 211.885 640.83 213.317 639.311 214.222L635.381 216.56C633.862 217.465 631.387 217.489 629.835 216.616L625.83 214.356C624.286 213.49 624.264 212.05 625.784 211.146L629.713 208.807C631.232 207.903 633.708 207.878 635.252 208.752L639.256 211.012L639.264 211.011Z" fill="#E8ECF1"/>
<path d="M593.533 290.117C595.077 290.991 595.099 292.423 593.58 293.327L589.651 295.666C588.132 296.571 585.656 296.595 584.104 295.722L580.1 293.462C578.556 292.596 578.534 291.156 580.053 290.252L583.982 287.913C585.501 287.009 587.977 286.984 589.521 287.858L593.526 290.117L593.533 290.117Z" fill="#E8ECF1"/>
<path d="M455.549 316.263C457.093 317.137 457.115 318.569 455.596 319.473L451.666 321.812C450.147 322.717 447.672 322.741 446.12 321.868L442.115 319.608C440.571 318.742 440.549 317.302 442.069 316.398L445.998 314.059C447.517 313.155 449.993 313.13 451.537 314.004L455.541 316.263L455.549 316.263Z" fill="#E8ECF1"/>
<path d="M456.303 369.587C457.847 370.461 457.869 371.893 456.35 372.797L452.42 375.136C450.901 376.04 448.425 376.065 446.874 375.192L442.869 372.932C441.325 372.066 441.303 370.626 442.823 369.722L446.752 367.383C448.271 366.479 450.747 366.454 452.291 367.328L456.295 369.587L456.303 369.587Z" fill="#E8ECF1"/>
<path d="M274.061 318.835C275.605 319.708 275.626 321.141 274.107 322.045L270.178 324.384C268.659 325.288 266.183 325.313 264.632 324.439L260.627 322.18C259.083 321.313 259.061 319.874 260.58 318.97L264.51 316.631C266.029 315.726 268.504 315.702 270.049 316.575L274.053 318.835L274.061 318.835Z" fill="#E8ECF1"/>
<path d="M89.5555 215.024C91.0997 215.897 91.1214 217.329 89.6023 218.234L85.673 220.573C84.1539 221.477 81.6783 221.501 80.1267 220.628L76.122 218.368C74.5779 217.502 74.5561 216.062 76.0753 215.158L80.0045 212.819C81.5236 211.915 83.9993 211.891 85.5435 212.764L89.5481 215.024L89.5555 215.024Z" fill="#E8ECF1"/>
<path d="M544.687 358.377C544.708 358.28 544.73 358.194 544.751 358.108C544.783 358.001 544.805 357.893 544.848 357.785C544.88 357.699 544.923 357.613 544.956 357.527C545.009 357.42 545.052 357.301 545.117 357.194C545.16 357.118 545.214 357.032 545.257 356.957C545.332 356.828 545.418 356.71 545.504 356.581C545.558 356.505 545.623 356.441 545.676 356.365C545.816 356.204 545.967 356.032 546.128 355.881C546.193 355.828 546.247 355.763 546.3 355.709C546.408 355.612 546.515 355.526 546.634 355.44C546.731 355.365 546.827 355.279 546.935 355.204C547.053 355.118 547.193 355.031 547.322 354.945C547.451 354.859 547.581 354.773 547.731 354.687L569.645 341.95L569.666 333.182L547.753 345.92C547.753 345.92 547.667 345.973 547.624 345.995C547.527 346.059 547.441 346.124 547.344 346.178C547.215 346.264 547.075 346.35 546.957 346.436C546.849 346.511 546.752 346.597 546.655 346.673C546.548 346.759 546.429 346.855 546.322 346.942C546.3 346.963 546.279 346.974 546.257 346.995C546.214 347.038 546.182 347.071 546.15 347.114C545.988 347.275 545.838 347.436 545.698 347.598C545.666 347.63 545.623 347.673 545.601 347.705C545.569 347.738 545.558 347.781 545.526 347.813C545.429 347.931 545.354 348.06 545.278 348.189C545.246 348.243 545.203 348.297 545.171 348.351C545.16 348.372 545.149 348.405 545.128 348.437C545.063 348.544 545.02 348.663 544.966 348.77C544.934 348.835 544.902 348.899 544.88 348.964C544.88 348.986 544.87 349.007 544.859 349.029C544.816 349.136 544.794 349.244 544.762 349.351C544.74 349.427 544.719 349.491 544.697 349.566C544.697 349.588 544.697 349.609 544.697 349.62C544.676 349.728 544.665 349.846 544.654 349.954C544.654 350.029 544.633 350.104 544.633 350.169C544.633 350.201 544.633 350.233 544.633 350.266L544.611 359.033C544.611 358.926 544.633 358.818 544.633 358.721C544.633 358.614 544.654 358.495 544.676 358.388L544.687 358.377Z" fill="url(#paint16_linear_1_603)" stroke="#010E3E" stroke-width="1.33325" stroke-linecap="round" stroke-linejoin="round"/>
<path d="M557.811 374.428L528.152 357.301C524.774 355.354 523.096 352.794 523.096 350.244L523.074 359.012C523.074 361.561 524.752 364.122 528.13 366.069L557.801 383.196L569.86 376.192L569.882 367.425L557.822 374.428L557.811 374.428Z" fill="url(#paint17_linear_1_603)" stroke="#010E3E" stroke-width="1.33325" stroke-linecap="round" stroke-linejoin="round"/>
<path d="M569.677 333.161L547.763 345.898C543.589 348.329 543.611 352.256 547.817 354.687L569.871 367.425L557.811 374.428L528.152 357.301C521.449 353.429 521.417 347.157 528.076 343.284L557.542 326.157L569.677 333.161Z" fill="white" stroke="#010E3E" stroke-width="1.33325" stroke-linecap="round" stroke-linejoin="round"/>
</g>
<g clip-path="url(#clip1_1_603)">
<path d="M710.38 16.905C710.285 16.862 710.191 16.8262 710.096 16.7975C709.958 16.7473 709.826 16.6972 709.695 16.6613C709.608 16.6398 709.528 16.6112 709.44 16.5896C709.36 16.5681 709.287 16.5538 709.207 16.5395C709.105 16.518 709.003 16.5036 708.908 16.4965C708.85 16.4965 708.792 16.4821 708.741 16.4821C708.617 16.475 708.493 16.4678 708.377 16.4821C708.347 16.4821 708.318 16.4821 708.296 16.4821C708.151 16.4893 708.012 16.5108 707.874 16.5323C707.837 16.5323 707.808 16.5466 707.772 16.5538C707.662 16.5753 707.56 16.604 707.458 16.6398C707.429 16.6542 707.393 16.6613 707.364 16.6757C707.233 16.7258 707.109 16.7832 706.992 16.8477L718.125 10.4758C718.125 10.4758 718.147 10.4615 718.154 10.4615C718.249 10.4113 718.344 10.3611 718.438 10.3253C718.453 10.3181 718.475 10.311 718.497 10.3038C718.526 10.2895 718.562 10.2823 718.591 10.268C718.642 10.2536 718.686 10.2321 718.737 10.2178C718.788 10.2035 718.846 10.1963 718.905 10.182C718.941 10.1748 718.97 10.1676 719.007 10.1605C719.029 10.1605 719.043 10.1533 719.058 10.1461C719.167 10.1246 719.284 10.1103 719.4 10.1031C719.407 10.1031 719.415 10.1031 719.422 10.1031C719.451 10.1031 719.48 10.1031 719.502 10.1031C719.59 10.1031 719.684 10.1031 719.772 10.1031C719.801 10.1031 719.837 10.1103 719.867 10.1103C719.925 10.1103 719.983 10.1175 720.034 10.1246C720.085 10.1246 720.136 10.1318 720.194 10.139C720.238 10.139 720.289 10.1605 720.34 10.1676C720.42 10.182 720.493 10.1963 720.573 10.2178C720.617 10.225 720.653 10.2321 720.697 10.2465C720.741 10.2608 720.785 10.2751 720.828 10.2895C720.959 10.3253 721.091 10.3755 721.229 10.4257C721.28 10.4472 721.324 10.4543 721.367 10.4758C721.411 10.4973 721.462 10.5188 721.506 10.5403C721.55 10.5618 721.593 10.5833 721.637 10.5977C721.812 10.6765 721.979 10.7625 722.162 10.8629L735.043 18.1808C735.225 18.2883 735.407 18.3958 735.582 18.5177C735.641 18.5607 735.699 18.6037 735.757 18.6395C735.874 18.7255 735.998 18.8116 736.114 18.9047C736.18 18.9549 736.245 19.0122 736.311 19.0624C736.42 19.1484 736.53 19.2416 736.632 19.3419C736.697 19.3993 736.763 19.4566 736.821 19.5211C736.857 19.557 736.901 19.5928 736.945 19.6286C736.989 19.6716 737.025 19.7147 737.069 19.7577C737.2 19.8867 737.324 20.0157 737.448 20.1519C737.484 20.1949 737.528 20.2379 737.571 20.2809C737.608 20.3167 737.637 20.3597 737.666 20.3956C737.739 20.4816 737.812 20.5676 737.885 20.6608C737.936 20.7181 737.979 20.7754 738.03 20.8328C738.067 20.8829 738.103 20.9331 738.14 20.9833C738.191 21.055 738.249 21.1195 738.3 21.1911C738.336 21.2413 738.373 21.2843 738.409 21.3345C738.468 21.4205 738.526 21.5065 738.584 21.5925C738.621 21.6427 738.657 21.7 738.693 21.7502C738.708 21.7717 738.723 21.7932 738.737 21.8147C738.839 21.9724 738.934 22.1301 739.029 22.2878C739.029 22.3021 739.043 22.3093 739.05 22.3236C739.072 22.3594 739.087 22.3881 739.109 22.4239C739.174 22.5386 739.24 22.6461 739.298 22.7608C739.327 22.8182 739.356 22.8683 739.386 22.9257C739.415 22.983 739.444 23.0403 739.473 23.0905C739.495 23.1407 739.524 23.1837 739.546 23.2339C739.611 23.37 739.677 23.5062 739.735 23.6424C739.743 23.6639 739.757 23.6854 739.764 23.7069C739.764 23.7069 739.764 23.7212 739.772 23.7284C739.845 23.8933 739.918 24.0653 739.983 24.2301C739.998 24.2588 740.005 24.2946 740.02 24.3233C740.041 24.3878 740.063 24.4452 740.085 24.5097C740.114 24.5957 740.151 24.6745 740.173 24.7605C740.194 24.825 740.216 24.8967 740.231 24.9612C740.253 25.0401 740.282 25.1117 740.304 25.1906C740.318 25.2407 740.333 25.2838 740.347 25.3339C740.369 25.4199 740.391 25.5059 740.413 25.592C740.435 25.6851 740.464 25.7855 740.486 25.8786C740.493 25.9145 740.5 25.9432 740.508 25.979C740.522 26.0507 740.53 26.1152 740.544 26.1868C740.573 26.3374 740.602 26.4879 740.624 26.6384C740.624 26.6814 740.639 26.7244 740.646 26.7602C740.661 26.8534 740.668 26.9466 740.675 27.0398C740.675 27.1043 740.69 27.1688 740.697 27.2405C740.712 27.4483 740.726 27.6562 740.719 27.864L740.668 45.2164C740.668 46.9796 740.027 48.2267 739.007 48.8144L727.867 55.1791C728.887 54.5914 729.528 53.3514 729.528 51.5811L729.579 34.2287C729.579 34.028 729.571 33.8202 729.557 33.6123C729.557 33.5478 729.542 33.4761 729.535 33.4116C729.52 33.2754 729.506 33.1464 729.484 33.0102C729.462 32.8597 729.433 32.7092 729.404 32.5587C729.382 32.4584 729.367 32.358 729.346 32.2577C729.324 32.1645 729.302 32.0641 729.273 31.971C729.236 31.8348 729.207 31.7058 729.163 31.5696C729.142 31.4908 729.12 31.4119 729.091 31.3402C729.04 31.1897 728.989 31.0392 728.938 30.8959C728.916 30.8313 728.894 30.774 728.872 30.7095C728.792 30.5016 728.712 30.301 728.617 30.0931C728.61 30.0716 728.595 30.0501 728.588 30.0286C728.508 29.8422 728.42 29.6631 728.326 29.4839C728.296 29.4265 728.267 29.3692 728.238 29.3119C728.151 29.1398 728.056 28.975 727.961 28.8101C727.939 28.7743 727.925 28.7456 727.903 28.7098C727.786 28.5163 727.67 28.3227 727.546 28.1364C727.509 28.0791 727.473 28.0289 727.437 27.9787C727.342 27.8425 727.254 27.7135 727.152 27.5773C727.101 27.5057 727.043 27.434 726.992 27.3623C726.912 27.2548 726.825 27.1473 726.737 27.0398C726.664 26.9466 726.591 26.8606 726.519 26.7746C726.446 26.6957 726.373 26.6097 726.3 26.5309C726.176 26.3947 726.052 26.2657 725.921 26.1367C725.841 26.0578 725.761 25.979 725.681 25.9002C725.615 25.8428 725.557 25.7855 725.491 25.721C725.382 25.6278 725.28 25.5346 725.171 25.4414C725.105 25.3913 725.04 25.3339 724.974 25.2838C724.857 25.1906 724.734 25.1046 724.617 25.0186C724.559 24.9756 724.5 24.9325 724.442 24.8967C724.26 24.7749 724.085 24.6602 723.903 24.5598L711.036 17.2347C710.861 17.1344 710.686 17.0484 710.511 16.9695C710.468 16.948 710.424 16.9265 710.373 16.9122L710.38 16.905Z" fill="url(#paint18_linear_1_603)" stroke="#010E3E" stroke-width="1.33" stroke-linecap="round" stroke-linejoin="round"/>
<path d="M711.034 17.2346C707.893 15.4499 705.336 16.8834 705.322 20.4384L705.271 37.7908C705.263 41.3458 707.799 45.675 710.946 47.4597L723.828 54.7776C726.968 56.5623 729.526 55.1217 729.54 51.5738L729.591 34.2214C729.598 30.6592 727.063 26.3372 723.915 24.5525L711.034 17.2346Z" fill="white" stroke="#010E3E" stroke-width="1.33" stroke-miterlimit="10"/>
</g>
<g clip-path="url(#clip2_1_603)">
<path d="M1506.74 196.176L1936.54 436.891" stroke="url(#paint19_linear_1_603)" stroke-width="1.40319" stroke-miterlimit="10"/>
<path d="M1552.23 169.508L1982.03 410.215" stroke="url(#paint20_linear_1_603)" stroke-width="1.40319" stroke-miterlimit="10"/>
<path d="M1597.72 142.832L2027.53 383.539" stroke="url(#paint21_linear_1_603)" stroke-width="1.40319" stroke-miterlimit="10"/>
<path d="M1643.21 116.156L2073.02 356.863" stroke="url(#paint22_linear_1_603)" stroke-width="1.40319" stroke-miterlimit="10"/>
<path d="M1688.71 89.4872L2118.51 330.195" stroke="url(#paint23_linear_1_603)" stroke-width="1.40319" stroke-miterlimit="10"/>
<path d="M1734.19 62.8112L2164 303.519" stroke="url(#paint24_linear_1_603)" stroke-width="1.40319" stroke-miterlimit="10"/>
<path d="M1779.68 36.1353L2209.5 276.843" stroke="url(#paint25_linear_1_603)" stroke-width="1.40319" stroke-miterlimit="10"/>
<path d="M1825.18 9.46646L2254.99 250.174" stroke="url(#paint26_linear_1_603)" stroke-width="1.40319" stroke-miterlimit="10"/>
<path d="M2233.89 184.52L1788.3 443.178" stroke="url(#paint27_linear_1_603)" stroke-width="1.40319" stroke-miterlimit="10"/>
<path d="M2187.87 158.759L1742.28 417.417" stroke="url(#paint28_linear_1_603)" stroke-width="1.40319" stroke-miterlimit="10"/>
<path d="M2137.28 130.502L1695.32 394.127" stroke="url(#paint29_linear_1_603)" stroke-width="1.40319" stroke-miterlimit="10"/>
<path d="M2095.83 107.244L1650.25 365.903" stroke="url(#paint30_linear_1_603)" stroke-width="1.40319" stroke-miterlimit="10"/>
<path d="M2049.82 81.4832L1604.24 340.142" stroke="url(#paint31_linear_1_603)" stroke-width="1.40319" stroke-miterlimit="10"/>
<path d="M2003.81 55.7221L1558.23 314.38" stroke="url(#paint32_linear_1_603)" stroke-width="1.40319" stroke-miterlimit="10"/>
<path d="M1957.79 29.9684L1512.2 288.627" stroke="url(#paint33_linear_1_603)" stroke-width="1.40319" stroke-miterlimit="10"/>
<path d="M1911.77 4.2074L1466.19 262.866" stroke="url(#paint34_linear_1_603)" stroke-width="1.40319" stroke-miterlimit="10"/>
<path d="M1917.76 160.629C1919.3 161.503 1919.32 162.935 1917.8 163.84L1913.88 166.178C1912.36 167.083 1909.88 167.107 1908.33 166.234L1904.32 163.974C1902.78 163.108 1902.76 161.668 1904.28 160.764L1908.21 158.425C1909.73 157.521 1912.2 157.496 1913.75 158.37L1917.75 160.63L1917.76 160.629Z" fill="#E8ECF1"/>
<path d="M1780.25 83.1498C1781.79 84.0233 1781.82 85.4558 1780.3 86.3599L1776.37 88.6988C1774.85 89.603 1772.37 89.6277 1770.82 88.7543L1766.82 86.4947C1765.27 85.6285 1765.25 84.1888 1766.77 83.2846L1770.7 80.9457C1772.22 80.0416 1774.69 80.0168 1776.24 80.8903L1780.24 83.1499L1780.25 83.1498Z" fill="#E8ECF1"/>
<path d="M1689.05 136.203C1690.59 137.076 1690.61 138.509 1689.09 139.413L1685.16 141.752C1683.65 142.656 1681.17 142.681 1679.62 141.807L1675.61 139.548C1674.07 138.682 1674.05 137.242 1675.57 136.338L1679.5 133.999C1681.01 133.095 1683.49 133.07 1685.03 133.943L1689.04 136.203L1689.05 136.203Z" fill="#E8ECF1"/>
<path d="M1870.49 30.9735C1872.04 31.847 1872.06 33.2795 1870.54 34.1836L1866.61 36.5225C1865.09 37.4267 1862.61 37.4514 1861.06 36.5779L1857.06 34.3184C1855.51 33.4522 1855.49 32.0124 1857.01 31.1083L1860.94 28.7694C1862.46 27.8652 1864.94 27.8405 1866.48 28.714L1870.48 30.9736L1870.49 30.9735Z" fill="#E8ECF1"/>
<path d="M2101.78 211.011C2103.32 211.885 2103.35 213.317 2101.83 214.222L2097.9 216.56C2096.38 217.465 2093.9 217.489 2092.35 216.616L2088.35 214.356C2086.8 213.49 2086.78 212.05 2088.3 211.146L2092.23 208.807C2093.75 207.903 2096.22 207.878 2097.77 208.752L2101.77 211.012L2101.78 211.011Z" fill="#E8ECF1"/>
<path d="M2056.05 290.117C2057.59 290.991 2057.62 292.423 2056.1 293.327L2052.17 295.666C2050.65 296.571 2048.17 296.595 2046.62 295.722L2042.62 293.462C2041.07 292.596 2041.05 291.156 2042.57 290.252L2046.5 287.913C2048.02 287.009 2050.49 286.984 2052.04 287.858L2056.04 290.117L2056.05 290.117Z" fill="#E8ECF1"/>
<path d="M1918.07 316.263C1919.61 317.137 1919.63 318.569 1918.11 319.473L1914.18 321.812C1912.66 322.717 1910.19 322.741 1908.64 321.868L1904.63 319.608C1903.09 318.742 1903.07 317.302 1904.59 316.398L1908.51 314.059C1910.03 313.155 1912.51 313.13 1914.05 314.004L1918.06 316.263L1918.07 316.263Z" fill="#E8ECF1"/>
<path d="M1918.82 369.587C1920.36 370.461 1920.39 371.893 1918.87 372.797L1914.94 375.136C1913.42 376.04 1910.94 376.065 1909.39 375.192L1905.39 372.932C1903.84 372.066 1903.82 370.626 1905.34 369.722L1909.27 367.383C1910.79 366.479 1913.26 366.454 1914.81 367.328L1918.81 369.587L1918.82 369.587Z" fill="#E8ECF1"/>
<path d="M1736.58 318.835C1738.12 319.708 1738.14 321.141 1736.62 322.045L1732.69 324.384C1731.18 325.288 1728.7 325.313 1727.15 324.439L1723.14 322.18C1721.6 321.313 1721.58 319.874 1723.1 318.97L1727.03 316.631C1728.55 315.726 1731.02 315.702 1732.57 316.575L1736.57 318.835L1736.58 318.835Z" fill="#E8ECF1"/>
<path d="M1552.07 215.024C1553.62 215.897 1553.64 217.329 1552.12 218.234L1548.19 220.573C1546.67 221.477 1544.19 221.501 1542.64 220.628L1538.64 218.368C1537.09 217.502 1537.07 216.062 1538.59 215.158L1542.52 212.819C1544.04 211.915 1546.52 211.891 1548.06 212.764L1552.06 215.024L1552.07 215.024Z" fill="#E8ECF1"/>
</g>
<g clip-path="url(#clip3_1_603)">
<path d="M1601.53 315.399L1783.23 207.21C1802.47 195.751 1802.83 168.009 1783.88 156.06L1659.61 77.6647C1650.23 71.7525 1638.37 71.4883 1628.74 76.9776L1586.28 101.191" stroke="#E8ECF1" stroke-width="1.33" stroke-miterlimit="10"/>
<path d="M1589.18 100.374C1593.37 102.795 1593.4 106.743 1589.23 109.164C1585.06 111.584 1578.27 111.584 1574.07 109.164C1569.88 106.743 1569.86 102.795 1574.03 100.374C1578.19 97.9538 1584.98 97.9538 1589.18 100.374ZM1576.59 107.699C1579.38 109.316 1583.93 109.316 1586.71 107.699C1589.48 106.082 1589.46 103.447 1586.67 101.83C1583.88 100.214 1579.34 100.214 1576.56 101.83C1573.79 103.447 1573.8 106.082 1576.59 107.699Z" fill="#E8ECF1"/>
<path d="M1909.32 214.774L1909.14 152.327C1909.19 170.626 1897.12 188.959 1872.96 202.925L1873.15 265.372C1897.3 251.406 1909.37 233.073 1909.32 214.774Z" fill="#DCE2EA"/>
<mask id="mask0_1_603" style="mask-type:luminance" maskUnits="userSpaceOnUse" x="1872" y="152" width="38" height="114">
<path d="M1909.32 214.774L1909.14 152.327C1909.19 170.626 1897.12 188.959 1872.96 202.925L1873.15 265.372C1897.3 251.406 1909.37 233.073 1909.32 214.774Z" fill="white"/>
</mask>
<g mask="url(#mask0_1_603)">
<path d="M1872.98 202.941L1873.16 265.389C1897.32 251.423 1909.39 233.09 1909.34 214.791L1909.16 152.343C1909.21 170.643 1897.14 188.975 1872.98 202.941Z" fill="#DCE2EA" stroke="#556578" stroke-width="1.05329" stroke-linecap="round" stroke-linejoin="round"/>
</g>
<path d="M1909.32 214.774L1909.14 152.327C1909.19 170.626 1897.12 188.959 1872.96 202.925L1873.15 265.372C1897.3 251.406 1909.37 233.073 1909.32 214.774Z" stroke="#556578" stroke-width="1.05329" stroke-linecap="round" stroke-linejoin="round"/>
<path d="M1872.4 203.292L1872.56 265.723L1873.15 265.389L1872.98 202.942L1872.4 203.292Z" fill="#B5B5B5"/>
<path d="M1699.71 102.813L1699.87 165.261L1872.56 265.723L1872.4 203.292L1699.71 102.813Z" fill="#DCE2EA" stroke="#556578" stroke-width="1.05329" stroke-linecap="round" stroke-linejoin="round"/>
<path d="M1699.71 102.812L1872.4 203.275L1872.98 202.941C1920.97 175.193 1921.26 130.211 1873.56 102.462C1825.88 74.7134 1748.28 74.7301 1700.29 102.462L1699.71 102.796V102.812Z" fill="#F3F5F7" stroke="#010E3E" stroke-width="1.33" stroke-linecap="round" stroke-linejoin="round"/>
<path d="M1785.54 172.476L1785.48 215.041L1697.79 266.056L1697.84 223.491L1785.54 172.476Z" fill="white" stroke="#010E3E" stroke-width="1.33" stroke-linecap="round" stroke-linejoin="round"/>
<path d="M1697.18 223.82L1697.13 264.888C1674.31 251.159 1663.07 233.504 1663.11 215.994V215.992V215.975V215.975L1663.15 179.173C1666.83 195.076 1678.19 212.532 1697.18 223.82Z" fill="white" stroke="#010E3E" stroke-width="1.33"/>
<mask id="mask1_1_603" style="mask-type:luminance" maskUnits="userSpaceOnUse" x="1662" y="168" width="36" height="99">
<path d="M1697.18 223.82L1697.13 264.888C1674.31 251.159 1663.07 233.504 1663.11 215.994V215.992V215.975V215.975L1663.15 179.173C1666.83 195.076 1678.19 212.532 1697.18 223.82Z" fill="white" stroke="white" stroke-width="1.33"/>
</mask>
<g mask="url(#mask1_1_603)">
<path d="M1697.79 266.056C1674.19 252.174 1662.4 234.074 1662.45 215.992L1662.5 168.044C1662.45 186.126 1674.24 209.575 1697.84 223.458" fill="white"/>
<path d="M1697.79 266.056C1674.19 252.174 1662.4 234.074 1662.45 215.992L1662.5 168.044C1662.45 186.126 1674.24 209.575 1697.84 223.458" stroke="#010E3E" stroke-width="1.33" stroke-miterlimit="10"/>
</g>
<path d="M1662.45 215.975L1662.5 168.027C1662.45 186.11 1674.24 209.559 1697.84 223.441L1697.79 266.056C1674.19 252.174 1662.4 234.074 1662.45 215.992V215.975Z" stroke="#010E3E" stroke-width="1.33" stroke-miterlimit="10"/>
<path d="M1785.54 172.576L1697.86 223.591C1650.71 195.859 1650.69 151.277 1698.04 123.745C1698.54 123.445 1699.07 123.178 1699.59 122.895L1785.56 172.593L1785.54 172.576Z" fill="white" stroke="#010E3E" stroke-width="1.33" stroke-linecap="round" stroke-linejoin="round"/>
<path d="M1872.43 245.773C1871.95 246.073 1871.48 246.373 1870.98 246.656C1869.17 247.723 1867.29 248.723 1865.37 249.706C1864.82 249.99 1864.27 250.256 1863.71 250.54C1862.22 251.273 1860.71 251.99 1859.19 252.673C1858.68 252.906 1858.16 253.139 1857.65 253.373C1855.65 254.239 1853.63 255.073 1851.57 255.856C1851.2 255.989 1850.84 256.123 1850.47 256.256C1848.72 256.906 1846.97 257.523 1845.18 258.106C1844.44 258.356 1843.71 258.589 1842.96 258.823C1841.98 259.139 1841 259.439 1840 259.723C1839.17 259.973 1838.32 260.206 1837.47 260.456C1836.47 260.739 1835.45 261.006 1834.44 261.272C1833.59 261.489 1832.74 261.706 1831.88 261.922C1830.84 262.172 1829.81 262.406 1828.76 262.639C1827.9 262.839 1827.05 263.022 1826.18 263.206C1825.12 263.422 1824.05 263.639 1822.99 263.839C1822.17 263.989 1821.35 264.156 1820.54 264.306C1818.26 264.706 1815.96 265.089 1813.65 265.406C1813.33 265.456 1813 265.489 1812.66 265.522C1810.65 265.789 1808.62 266.039 1806.59 266.256C1805.8 266.339 1805.04 266.406 1804.26 266.489C1802.96 266.606 1801.64 266.722 1800.34 266.822C1799.53 266.889 1798.7 266.939 1797.88 266.989C1796.52 267.072 1795.15 267.139 1793.78 267.189C1793.02 267.222 1792.24 267.256 1791.47 267.289C1790.29 267.322 1789.09 267.339 1787.91 267.356C1787.08 267.356 1786.26 267.389 1785.43 267.389C1784.15 267.389 1782.88 267.372 1781.6 267.356C1780.85 267.356 1780.1 267.356 1779.35 267.322C1778.19 267.289 1777.02 267.239 1775.85 267.189C1775.04 267.156 1774.24 267.139 1773.42 267.089C1772.16 267.022 1770.89 266.922 1769.65 266.839C1768.95 266.789 1768.23 266.756 1767.51 266.689C1765.98 266.556 1764.45 266.406 1762.94 266.239C1762.5 266.189 1762.07 266.156 1761.65 266.106C1759.71 265.889 1757.76 265.639 1755.83 265.372C1755.53 265.339 1755.24 265.272 1754.95 265.239C1753.26 264.989 1751.6 264.739 1749.93 264.439C1749.25 264.322 1748.59 264.189 1747.9 264.056C1746.64 263.822 1745.37 263.589 1744.12 263.339C1743.47 263.206 1742.83 263.056 1742.18 262.906C1740.79 262.606 1739.43 262.306 1738.06 261.972C1737.32 261.789 1736.57 261.589 1735.82 261.406C1734.57 261.089 1733.34 260.772 1732.1 260.422C1731.4 260.223 1730.72 260.023 1730.02 259.823C1728.08 259.256 1726.16 258.656 1724.26 258.023C1723.93 257.906 1723.58 257.806 1723.25 257.689C1721.07 256.956 1718.92 256.156 1716.8 255.339C1716.36 255.173 1715.92 254.989 1715.47 254.806C1712.73 253.706 1710.01 252.539 1707.4 251.29C1707.13 251.156 1706.88 251.023 1706.62 250.906C1703.87 249.573 1701.19 248.173 1698.61 246.69C1698.36 246.54 1698.13 246.39 1697.89 246.256L1697.84 265.839C1698.08 265.972 1698.31 266.139 1698.56 266.272C1701.14 267.772 1703.82 269.155 1706.57 270.489C1706.83 270.622 1707.08 270.755 1707.35 270.872C1709.98 272.122 1712.68 273.289 1715.42 274.389C1715.67 274.489 1715.89 274.605 1716.14 274.705C1716.34 274.789 1716.56 274.855 1716.77 274.939C1718.89 275.772 1721.03 276.555 1723.21 277.288C1723.55 277.405 1723.9 277.505 1724.23 277.622C1726.13 278.255 1728.06 278.855 1729.99 279.422C1730.31 279.522 1730.62 279.622 1730.94 279.722C1731.31 279.822 1731.69 279.922 1732.05 280.022C1733.29 280.355 1734.5 280.688 1735.75 281.005C1736.5 281.205 1737.27 281.388 1738.01 281.572C1739.36 281.888 1740.73 282.205 1742.09 282.488C1742.61 282.605 1743.13 282.738 1743.64 282.838C1743.77 282.872 1743.92 282.888 1744.06 282.922C1745.29 283.172 1746.55 283.405 1747.8 283.638C1748.5 283.772 1749.18 283.905 1749.88 284.022C1751.55 284.305 1753.21 284.572 1754.88 284.805C1755.16 284.838 1755.44 284.905 1755.73 284.938C1755.73 284.938 1755.76 284.938 1755.78 284.938C1757.71 285.205 1759.66 285.455 1761.6 285.671C1762.04 285.721 1762.47 285.755 1762.89 285.805C1764.42 285.971 1765.93 286.121 1767.46 286.255C1767.5 286.255 1767.55 286.255 1767.58 286.255C1768.25 286.305 1768.91 286.338 1769.6 286.388C1770.86 286.488 1772.13 286.571 1773.39 286.638C1774.19 286.688 1775.01 286.705 1775.82 286.738C1776.99 286.788 1778.15 286.838 1779.32 286.871C1779.42 286.871 1779.52 286.871 1779.6 286.871C1780.25 286.871 1780.92 286.871 1781.57 286.888C1782.83 286.905 1784.1 286.938 1785.36 286.921C1786.19 286.921 1787.03 286.905 1787.86 286.888C1789.04 286.871 1790.22 286.855 1791.4 286.821C1791.62 286.821 1791.84 286.821 1792.07 286.821C1792.62 286.805 1793.17 286.755 1793.73 286.738C1795.1 286.688 1796.47 286.621 1797.83 286.538C1798.66 286.488 1799.48 286.421 1800.29 286.371C1801.61 286.271 1802.91 286.171 1804.21 286.038C1804.67 285.988 1805.12 285.971 1805.59 285.921C1805.9 285.888 1806.22 285.838 1806.54 285.805C1808.57 285.588 1810.6 285.355 1812.61 285.071C1812.95 285.021 1813.26 284.988 1813.6 284.955C1815.91 284.638 1818.21 284.255 1820.49 283.855C1820.7 283.822 1820.92 283.788 1821.14 283.755C1821.75 283.638 1822.35 283.505 1822.95 283.388C1824.02 283.188 1825.08 282.988 1826.13 282.755C1827 282.572 1827.85 282.388 1828.71 282.188C1829.76 281.955 1830.79 281.722 1831.83 281.472C1832.69 281.255 1833.54 281.038 1834.39 280.822C1835.4 280.555 1836.42 280.288 1837.42 280.022C1838.27 279.788 1839.12 279.538 1839.95 279.288C1840.95 278.988 1841.93 278.688 1842.91 278.388C1843.35 278.255 1843.78 278.138 1844.21 277.988C1844.53 277.888 1844.81 277.772 1845.13 277.672C1846.91 277.088 1848.67 276.455 1850.42 275.822C1850.79 275.689 1851.15 275.555 1851.52 275.422C1853.58 274.639 1855.6 273.805 1857.6 272.939C1858.11 272.705 1858.63 272.472 1859.14 272.239C1860.68 271.555 1862.17 270.839 1863.66 270.105C1864.21 269.822 1864.77 269.555 1865.32 269.272C1867.22 268.289 1869.1 267.289 1870.93 266.222C1871.11 266.122 1871.28 266.022 1871.45 265.922C1871.75 265.739 1872.06 265.556 1872.36 265.356C1872.36 265.356 1872.36 265.356 1872.38 265.356L1872.43 245.773Z" fill="#5F38FB" stroke="#010E3E" stroke-width="1.33" stroke-linecap="round" stroke-linejoin="round"/>
<path d="M1872.43 245.773C1871.95 246.073 1871.48 246.373 1870.98 246.657C1823.53 274.256 1746.34 274.256 1698.57 246.657C1698.32 246.507 1698.09 246.357 1697.86 246.223L1785.24 195.392L1872.43 245.79V245.773Z" fill="#8671FF" stroke="#010E3E" stroke-width="1.33" stroke-linecap="round" stroke-linejoin="round"/>
<path d="M1604.08 316.678C1605.37 317.425 1605.38 318.638 1604.1 319.385L1599.32 322.165C1598.03 322.912 1595.94 322.912 1594.65 322.165L1589.84 319.385C1588.54 318.638 1588.54 317.425 1589.82 316.678L1594.6 313.898C1595.89 313.152 1597.98 313.152 1599.27 313.898L1604.08 316.678Z" stroke="#E8ECF1" stroke-width="1.33" stroke-miterlimit="10"/>
<path d="M1581.66 107.77C1584.56 107.77 1586.91 106.447 1586.91 104.814C1586.91 103.181 1584.56 101.857 1581.66 101.857C1578.75 101.857 1576.4 103.181 1576.4 104.814C1576.4 106.447 1578.75 107.77 1581.66 107.77Z" fill="#5F38FB"/>
<path d="M1699.91 115.879L1713.51 110.979" stroke="#010E3E" stroke-width="1.33" stroke-linecap="round" stroke-linejoin="round"/>
<path d="M1701.01 123.612L1722.22 116.379" stroke="#010E3E" stroke-width="1.33" stroke-linecap="round" stroke-linejoin="round"/>
<path d="M1711.31 129.128L1731.91 121.895" stroke="#010E3E" stroke-width="1.33" stroke-linecap="round" stroke-linejoin="round"/>
<path d="M1721.23 134.894L1741.94 127.545" stroke="#010E3E" stroke-width="1.33" stroke-linecap="round" stroke-linejoin="round"/>
<path d="M1730.92 140.428L1751.63 133.311" stroke="#010E3E" stroke-width="1.33" stroke-linecap="round" stroke-linejoin="round"/>
<path d="M1740.85 146.311L1760.82 138.828" stroke="#010E3E" stroke-width="1.33" stroke-linecap="round" stroke-linejoin="round"/>
<path d="M1750.17 151.71L1771.24 144.711" stroke="#010E3E" stroke-width="1.33" stroke-linecap="round" stroke-linejoin="round"/>
<path d="M1759.97 157.477L1781.16 150.477" stroke="#010E3E" stroke-width="1.33" stroke-linecap="round" stroke-linejoin="round"/>
<path d="M1770.51 163.726L1791.59 156.377" stroke="#010E3E" stroke-width="1.33" stroke-linecap="round" stroke-linejoin="round"/>
<path d="M1780.68 169.743L1801.88 162.377" stroke="#010E3E" stroke-width="1.33" stroke-linecap="round" stroke-linejoin="round"/>
<path d="M1785.58 176.86L1810.95 168.277" stroke="#010E3E" stroke-width="1.33" stroke-linecap="round" stroke-linejoin="round"/>
<path d="M1785.83 185.442L1820.64 174.043" stroke="#010E3E" stroke-width="1.33" stroke-linecap="round" stroke-linejoin="round"/>
<path d="M1785.83 194.275L1830.81 179.559" stroke="#010E3E" stroke-width="1.33" stroke-linecap="round" stroke-linejoin="round"/>
<path d="M1794.4 199.926L1839.88 184.96" stroke="#010E3E" stroke-width="1.33" stroke-linecap="round" stroke-linejoin="round"/>
<path d="M1804.51 205.858L1849.81 190.725" stroke="#010E3E" stroke-width="1.33" stroke-linecap="round" stroke-linejoin="round"/>
<path d="M1814.01 211.708L1860.26 196.459" stroke="#010E3E" stroke-width="1.33" stroke-linecap="round" stroke-linejoin="round"/>
<path d="M1823.57 217.224L1870.15 202.008" stroke="#010E3E" stroke-width="1.33" stroke-linecap="round" stroke-linejoin="round"/>
<path d="M1833.37 222.874L1872.23 210.358" stroke="#010E3E" stroke-width="1.33" stroke-linecap="round" stroke-linejoin="round"/>
<path d="M1844.3 229.258L1872.48 219.558" stroke="#010E3E" stroke-width="1.33" stroke-linecap="round" stroke-linejoin="round"/>
<path d="M1854.47 234.89L1872.36 228.64" stroke="#010E3E" stroke-width="1.33" stroke-linecap="round" stroke-linejoin="round"/>
<path d="M1863.41 240.423L1872.48 236.973" stroke="#010E3E" stroke-width="1.33" stroke-linecap="round" stroke-linejoin="round"/>
<path d="M1872.55 245.757L1785.24 195.393L1785.54 172.577L1699.56 122.879L1699.71 102.813L1872.4 203.292L1872.56 265.723" stroke="#010E3E" stroke-width="1.33" stroke-linecap="round" stroke-linejoin="round"/>
</g>
<g clip-path="url(#clip4_1_603)">
<path d="M1535 316.123C1535 316.051 1535 315.972 1534.99 315.892C1534.99 315.732 1534.98 315.565 1534.97 315.405C1534.96 315.214 1534.95 315.022 1534.95 314.831C1534.94 314.687 1534.92 314.536 1534.92 314.392C1534.9 314.217 1534.89 314.049 1534.88 313.874C1534.87 313.762 1534.86 313.65 1534.85 313.531C1534.83 313.283 1534.8 313.036 1534.77 312.797C1534.76 312.653 1534.74 312.517 1534.72 312.374C1534.72 312.326 1534.72 312.278 1534.71 312.23C1534.65 311.783 1534.59 311.337 1534.52 310.89C1534.52 310.882 1534.52 310.866 1534.52 310.858C1534.51 310.794 1534.49 310.738 1534.49 310.675C1534.42 310.3 1534.36 309.917 1534.29 309.542C1534.27 309.478 1534.26 309.406 1534.25 309.342C1534.22 309.167 1534.18 308.983 1534.14 308.808C1534.09 308.592 1534.05 308.377 1534 308.154C1533.98 308.034 1533.95 307.914 1533.92 307.795C1533.88 307.603 1533.83 307.404 1533.78 307.212C1533.75 307.061 1533.72 306.909 1533.68 306.766C1533.63 306.59 1533.58 306.407 1533.53 306.231C1533.49 306.04 1533.43 305.84 1533.38 305.649C1533.36 305.553 1533.34 305.457 1533.3 305.362C1533.23 305.106 1533.15 304.851 1533.08 304.596C1533.03 304.428 1532.99 304.261 1532.94 304.093C1532.92 304.045 1532.92 303.997 1532.9 303.949C1532.76 303.487 1532.61 303.032 1532.46 302.577C1532.46 302.577 1532.46 302.569 1532.46 302.561C1532.45 302.521 1532.43 302.482 1532.42 302.434C1532.29 302.027 1532.15 301.62 1532 301.221C1531.98 301.157 1531.96 301.093 1531.93 301.03C1531.88 300.878 1531.82 300.719 1531.76 300.567C1531.68 300.352 1531.6 300.128 1531.51 299.913C1531.46 299.777 1531.4 299.634 1531.34 299.498C1531.28 299.33 1531.21 299.163 1531.14 298.987C1531.09 298.868 1531.04 298.74 1530.99 298.62C1530.88 298.373 1530.78 298.134 1530.68 297.887C1530.62 297.751 1530.57 297.623 1530.51 297.488C1530.49 297.44 1530.47 297.392 1530.46 297.352C1530.27 296.921 1530.07 296.49 1529.88 296.068C1529.87 296.052 1529.86 296.028 1529.85 296.012C1529.8 295.892 1529.73 295.772 1529.68 295.653C1529.52 295.326 1529.37 294.991 1529.2 294.664C1529.18 294.616 1529.15 294.56 1529.12 294.512C1528.99 294.241 1528.85 293.978 1528.71 293.714C1528.6 293.499 1528.5 293.283 1528.38 293.068C1528.35 293.028 1528.34 292.988 1528.31 292.956C1527.95 292.27 1527.56 291.584 1527.17 290.906C1527.14 290.85 1527.11 290.786 1527.08 290.731C1526.97 290.555 1526.87 290.388 1526.77 290.212C1526.6 289.941 1526.44 289.662 1526.27 289.39C1526.11 289.143 1525.96 288.904 1525.81 288.656C1525.63 288.385 1525.46 288.114 1525.28 287.851C1525.23 287.763 1525.17 287.675 1525.11 287.579C1525.05 287.492 1524.99 287.412 1524.93 287.332C1524.44 286.606 1523.95 285.88 1523.43 285.178C1523.07 284.676 1522.69 284.181 1522.31 283.694C1522.29 283.67 1522.27 283.647 1522.26 283.631C1521.98 283.28 1521.7 282.937 1521.42 282.586C1521.36 282.514 1521.31 282.442 1521.24 282.37C1521.24 282.37 1521.24 282.37 1521.23 282.362C1520.9 281.955 1520.56 281.556 1520.21 281.158C1520.2 281.134 1520.18 281.118 1520.16 281.102C1520.05 280.982 1519.95 280.87 1519.85 280.751C1519.62 280.503 1519.41 280.256 1519.18 280.009C1519.14 279.961 1519.09 279.921 1519.05 279.873C1518.9 279.714 1518.75 279.554 1518.6 279.394C1518.43 279.219 1518.27 279.036 1518.1 278.868C1518.04 278.804 1517.97 278.74 1517.91 278.677C1517.74 278.509 1517.58 278.349 1517.41 278.182C1517.27 278.038 1517.12 277.895 1516.98 277.759C1516.9 277.679 1516.81 277.608 1516.74 277.528C1516.55 277.36 1516.37 277.185 1516.2 277.017C1516.07 276.905 1515.95 276.778 1515.82 276.666C1515.73 276.578 1515.62 276.491 1515.52 276.403C1515.34 276.243 1515.16 276.084 1514.97 275.924C1514.86 275.829 1514.75 275.725 1514.64 275.637C1514.52 275.533 1514.39 275.438 1514.28 275.334C1514.1 275.182 1513.92 275.039 1513.74 274.895C1513.64 274.823 1513.55 274.744 1513.46 274.664C1513.31 274.544 1513.15 274.432 1513 274.313C1512.83 274.185 1512.66 274.057 1512.5 273.93C1512.43 273.882 1512.36 273.826 1512.29 273.77C1512.09 273.619 1511.88 273.475 1511.67 273.324C1511.53 273.228 1511.39 273.124 1511.25 273.02C1511.21 272.996 1511.18 272.965 1511.14 272.941C1510.77 272.685 1510.39 272.438 1510.01 272.191C1510.01 272.191 1510.01 272.191 1510.01 272.191C1509.98 272.175 1509.95 272.159 1509.93 272.143C1509.59 271.927 1509.24 271.712 1508.9 271.505C1508.81 271.457 1508.72 271.401 1508.63 271.353C1508.35 271.186 1508.07 271.034 1507.79 270.882C1507.69 270.827 1507.58 270.771 1507.47 270.715C1507.33 270.635 1507.19 270.563 1507.05 270.492C1506.94 270.436 1506.82 270.372 1506.71 270.316C1506.53 270.228 1506.36 270.148 1506.18 270.061C1506.05 269.997 1505.93 269.941 1505.8 269.877C1505.74 269.853 1505.7 269.829 1505.64 269.805C1505.28 269.646 1504.94 269.494 1504.59 269.351C1504.23 269.207 1503.87 269.072 1503.52 268.944C1503.47 268.928 1503.43 268.912 1503.38 268.896C1503.25 268.848 1503.13 268.816 1503 268.768C1502.82 268.713 1502.63 268.649 1502.46 268.593C1502.37 268.569 1502.29 268.545 1502.19 268.521C1502.03 268.473 1501.88 268.433 1501.72 268.393C1501.6 268.362 1501.48 268.322 1501.36 268.29C1501.24 268.258 1501.12 268.234 1500.99 268.21C1500.83 268.17 1500.68 268.138 1500.52 268.106C1500.44 268.09 1500.36 268.066 1500.28 268.05C1500.13 268.018 1499.99 268.003 1499.84 267.979C1499.66 267.947 1499.48 267.915 1499.31 267.891C1499.25 267.883 1499.18 267.867 1499.12 267.859C1498.97 267.835 1498.83 267.827 1498.68 267.811C1498.49 267.787 1498.3 267.771 1498.11 267.755C1498.06 267.755 1498 267.739 1497.94 267.739C1497.82 267.731 1497.69 267.739 1497.56 267.723C1497.34 267.715 1497.11 267.699 1496.89 267.699C1496.83 267.699 1496.76 267.699 1496.7 267.699C1496.6 267.699 1496.51 267.707 1496.41 267.715C1496.14 267.715 1495.86 267.731 1495.58 267.755C1495.5 267.755 1495.41 267.755 1495.33 267.771C1495.26 267.771 1495.21 267.787 1495.14 267.795C1494.72 267.843 1494.31 267.899 1493.9 267.979C1493.87 267.979 1493.83 267.987 1493.79 267.995C1493.79 267.995 1493.78 267.995 1493.76 267.995C1493.68 268.01 1493.6 268.034 1493.52 268.05C1493.26 268.106 1493.01 268.17 1492.76 268.234C1492.64 268.266 1492.52 268.306 1492.41 268.346C1492.25 268.393 1492.1 268.441 1491.94 268.497C1491.9 268.513 1491.86 268.529 1491.83 268.545C1491.59 268.633 1491.36 268.728 1491.13 268.832C1491.02 268.88 1490.9 268.928 1490.79 268.976C1490.45 269.135 1490.12 269.303 1489.79 269.494L1481.34 274.432C1481.67 274.241 1481.99 274.073 1482.34 273.914C1482.45 273.858 1482.56 273.818 1482.67 273.77C1482.9 273.667 1483.13 273.571 1483.37 273.483C1483.56 273.411 1483.76 273.347 1483.95 273.284C1484.07 273.244 1484.19 273.204 1484.31 273.172C1484.56 273.1 1484.81 273.044 1485.07 272.989C1485.14 272.973 1485.22 272.949 1485.31 272.933C1485.35 272.925 1485.4 272.917 1485.44 272.909C1485.84 272.829 1486.26 272.773 1486.68 272.725C1486.83 272.709 1486.97 272.701 1487.11 272.685C1487.39 272.661 1487.67 272.653 1487.95 272.645C1488.1 272.645 1488.26 272.637 1488.42 272.645C1488.64 272.645 1488.87 272.653 1489.1 272.669C1489.28 272.677 1489.46 272.685 1489.64 272.701C1489.83 272.717 1490.03 272.741 1490.22 272.757C1490.42 272.781 1490.64 272.805 1490.84 272.837C1491.02 272.861 1491.2 272.893 1491.38 272.925C1491.6 272.965 1491.83 273.004 1492.06 273.052C1492.22 273.084 1492.37 273.124 1492.53 273.156C1492.78 273.212 1493.02 273.276 1493.26 273.34C1493.42 273.379 1493.57 273.427 1493.73 273.467C1494 273.547 1494.27 273.627 1494.54 273.722C1494.67 273.762 1494.79 273.802 1494.92 273.85C1495.71 274.129 1496.52 274.448 1497.34 274.823C1497.47 274.879 1497.6 274.943 1497.72 275.007C1498.01 275.142 1498.3 275.286 1498.59 275.43C1498.73 275.501 1498.87 275.581 1499.02 275.653C1499.4 275.86 1499.79 276.068 1500.18 276.291C1500.62 276.539 1501.05 276.81 1501.48 277.081C1501.5 277.097 1501.53 277.113 1501.56 277.129C1501.98 277.392 1502.39 277.671 1502.8 277.959C1502.94 278.054 1503.08 278.158 1503.22 278.262C1503.5 278.461 1503.78 278.661 1504.05 278.86C1504.21 278.988 1504.38 279.115 1504.55 279.243C1504.79 279.434 1505.04 279.626 1505.28 279.825C1505.47 279.969 1505.64 280.112 1505.82 280.264C1506.05 280.456 1506.28 280.655 1506.51 280.854C1506.7 281.014 1506.88 281.173 1507.06 281.333C1507.29 281.532 1507.51 281.74 1507.74 281.947C1507.92 282.115 1508.1 282.282 1508.28 282.45C1508.51 282.665 1508.73 282.889 1508.95 283.112C1509.12 283.28 1509.28 283.439 1509.44 283.607C1509.67 283.846 1509.9 284.085 1510.13 284.325C1510.28 284.484 1510.43 284.644 1510.59 284.803C1510.85 285.09 1511.12 285.378 1511.37 285.673C1511.47 285.793 1511.59 285.904 1511.69 286.024C1512.05 286.439 1512.42 286.869 1512.78 287.3C1512.83 287.364 1512.89 287.436 1512.93 287.5C1513.24 287.867 1513.54 288.242 1513.83 288.617C1514.2 289.095 1514.58 289.59 1514.94 290.084C1514.94 290.084 1514.95 290.1 1514.96 290.108C1515.47 290.81 1515.97 291.528 1516.46 292.262C1516.58 292.438 1516.69 292.605 1516.81 292.781C1516.98 293.044 1517.16 293.315 1517.32 293.587C1517.48 293.834 1517.63 294.073 1517.78 294.321C1517.95 294.592 1518.12 294.871 1518.28 295.142C1518.42 295.374 1518.56 295.597 1518.69 295.828C1519.08 296.506 1519.47 297.184 1519.83 297.879C1519.96 298.134 1520.09 298.381 1520.23 298.636C1520.36 298.9 1520.5 299.171 1520.64 299.434C1520.83 299.817 1521.01 300.2 1521.19 300.583C1521.25 300.703 1521.31 300.814 1521.36 300.934C1521.59 301.429 1521.81 301.915 1522.03 302.418C1522.08 302.545 1522.14 302.681 1522.19 302.809C1522.35 303.176 1522.5 303.543 1522.66 303.918C1522.73 304.085 1522.79 304.253 1522.85 304.42C1523 304.779 1523.13 305.138 1523.27 305.497C1523.32 305.649 1523.38 305.8 1523.43 305.952C1523.61 306.423 1523.77 306.901 1523.93 307.372C1523.95 307.412 1523.96 307.444 1523.97 307.484C1524.14 307.994 1524.31 308.505 1524.46 309.015C1524.5 309.183 1524.55 309.35 1524.6 309.51C1524.7 309.861 1524.81 310.212 1524.9 310.563C1524.96 310.762 1525 310.954 1525.05 311.153C1525.14 311.48 1525.22 311.807 1525.3 312.142C1525.35 312.334 1525.39 312.533 1525.43 312.725C1525.51 313.06 1525.58 313.403 1525.65 313.738C1525.69 313.913 1525.72 314.097 1525.76 314.272C1525.85 314.711 1525.92 315.158 1525.99 315.597C1526 315.661 1526.01 315.724 1526.02 315.788C1526.1 316.291 1526.17 316.793 1526.23 317.296C1526.24 317.44 1526.26 317.575 1526.27 317.719C1526.31 318.078 1526.35 318.437 1526.38 318.796C1526.4 318.971 1526.42 319.139 1526.42 319.314C1526.45 319.649 1526.47 319.992 1526.49 320.327C1526.49 320.487 1526.5 320.655 1526.51 320.814C1526.53 321.293 1526.54 321.771 1526.54 322.242C1526.54 322.737 1526.52 323.223 1526.5 323.702C1526.5 323.838 1526.48 323.973 1526.47 324.109C1526.46 324.436 1526.43 324.763 1526.4 325.082C1526.38 325.266 1526.36 325.449 1526.35 325.633C1526.31 325.904 1526.28 326.175 1526.25 326.438C1526.23 326.63 1526.19 326.829 1526.16 327.021C1526.12 327.268 1526.08 327.507 1526.04 327.747C1526 327.962 1525.96 328.169 1525.91 328.385C1525.86 328.6 1525.81 328.808 1525.77 329.023C1525.71 329.27 1525.65 329.51 1525.58 329.749C1525.52 329.94 1525.47 330.124 1525.42 330.307C1525.33 330.595 1525.23 330.874 1525.14 331.153C1525.08 331.305 1525.04 331.456 1524.98 331.6C1524.81 332.062 1524.62 332.517 1524.42 332.948C1524.26 333.283 1524.1 333.61 1523.92 333.921C1523.92 333.921 1523.92 333.921 1523.92 333.929C1523.75 334.248 1523.57 334.551 1523.38 334.847C1523.11 335.269 1522.81 335.668 1522.52 336.051C1522.45 336.147 1522.37 336.235 1522.3 336.322C1522 336.673 1521.7 337.017 1521.39 337.328C1521.36 337.352 1521.34 337.376 1521.31 337.399C1520.97 337.735 1520.62 338.038 1520.25 338.325C1520.16 338.397 1520.07 338.46 1519.98 338.532C1519.61 338.811 1519.22 339.075 1518.81 339.314L1527.27 334.376C1527.67 334.145 1528.05 333.873 1528.43 333.594C1528.52 333.53 1528.61 333.459 1528.7 333.387C1529.07 333.1 1529.42 332.796 1529.77 332.461C1529.79 332.437 1529.81 332.413 1529.84 332.39C1530.15 332.07 1530.46 331.735 1530.75 331.376C1530.82 331.289 1530.9 331.193 1530.97 331.105C1531.27 330.722 1531.56 330.323 1531.83 329.901C1531.83 329.885 1531.84 329.877 1531.85 329.869C1532.03 329.581 1532.21 329.286 1532.38 328.983C1532.38 328.983 1532.38 328.975 1532.38 328.967C1532.54 328.672 1532.69 328.361 1532.84 328.042C1532.84 328.026 1532.86 328.01 1532.86 327.994C1533.07 327.563 1533.25 327.108 1533.42 326.646C1533.44 326.606 1533.46 326.566 1533.47 326.526C1533.51 326.422 1533.54 326.303 1533.58 326.191C1533.68 325.912 1533.77 325.633 1533.86 325.345C1533.88 325.266 1533.91 325.202 1533.93 325.122C1533.96 325.018 1533.99 324.899 1534.02 324.787C1534.08 324.548 1534.15 324.3 1534.21 324.053C1534.23 323.949 1534.26 323.854 1534.29 323.758C1534.31 323.646 1534.34 323.534 1534.36 323.423C1534.41 323.215 1534.45 323 1534.49 322.785C1534.51 322.673 1534.53 322.569 1534.55 322.457C1534.57 322.33 1534.59 322.194 1534.61 322.059C1534.64 321.867 1534.67 321.676 1534.69 321.476C1534.71 321.38 1534.72 321.285 1534.74 321.181C1534.76 321.014 1534.77 320.838 1534.8 320.67C1534.81 320.487 1534.84 320.304 1534.85 320.12C1534.85 320.048 1534.87 319.976 1534.88 319.897C1534.9 319.649 1534.91 319.394 1534.92 319.147C1534.92 319.011 1534.94 318.876 1534.95 318.74C1534.95 318.708 1534.95 318.676 1534.95 318.644C1534.96 318.221 1534.98 317.791 1534.98 317.36C1534.98 317.336 1534.98 317.312 1534.98 317.28C1534.98 316.881 1534.98 316.482 1534.96 316.075L1535 316.123Z" fill="url(#paint35_linear_1_603)" stroke="#010E3E" stroke-width="1.233" stroke-linecap="round" stroke-linejoin="round"/>
<path d="M1500.19 276.315C1514.81 284.803 1526.62 305.37 1526.57 322.258C1526.53 339.147 1514.64 345.968 1500.01 337.479C1485.4 328.991 1473.58 308.417 1473.63 291.529C1473.68 274.632 1485.56 267.827 1500.19 276.315Z" fill="white" stroke="#010E3E" stroke-width="1.233" stroke-miterlimit="10"/>
<path d="M1509.35 314.95C1509.77 316.171 1509.97 317.391 1509.97 318.596C1509.97 320.678 1509.54 322.218 1508.69 323.223C1507.83 324.22 1506.63 324.675 1505.09 324.579C1504.01 324.515 1502.81 324.172 1501.48 323.574V326.837L1498.26 324.97V321.755C1497.21 321.037 1496.22 320.263 1495.29 319.394C1493.97 318.157 1492.76 316.753 1491.7 315.197C1490.63 313.634 1489.68 311.959 1488.85 310.14L1492.19 307.73C1493.46 310.523 1494.71 312.669 1495.93 314.168C1496.67 315.054 1497.44 315.836 1498.28 316.514L1498.31 307.922C1497.1 306.909 1496.02 305.896 1495.1 304.866C1494.03 303.686 1493.13 302.473 1492.4 301.221C1491.67 299.96 1491.14 298.716 1490.8 297.479C1490.47 296.243 1490.3 294.958 1490.3 293.634C1490.3 292.31 1490.56 291.233 1491.07 290.411C1491.59 289.597 1492.28 289.031 1493.17 288.736C1494.06 288.441 1495.09 288.401 1496.27 288.632C1496.93 288.76 1497.63 288.991 1498.35 289.302V285.968L1501.57 287.834V291.113C1502.51 291.759 1503.39 292.453 1504.2 293.203C1505.42 294.328 1506.49 295.581 1507.41 296.945C1508.33 298.309 1509.1 299.761 1509.69 301.285L1506.31 303.175C1505.79 301.939 1505.21 300.822 1504.56 299.825C1503.91 298.827 1503.2 297.95 1502.45 297.192C1502.16 296.897 1501.85 296.634 1501.55 296.378L1501.53 304.683C1502.64 305.632 1503.66 306.59 1504.58 307.579C1505.73 308.807 1506.7 310.036 1507.51 311.272C1508.32 312.517 1508.93 313.746 1509.35 314.966V314.95ZM1504.24 318.373C1504.66 318.053 1504.86 317.535 1504.87 316.817C1504.87 316.306 1504.79 315.772 1504.62 315.245C1504.46 314.711 1504.2 314.168 1503.86 313.626C1503.52 313.083 1503.11 312.517 1502.61 311.927C1502.28 311.528 1501.9 311.129 1501.51 310.746L1501.49 318.428C1501.84 318.556 1502.18 318.644 1502.51 318.7C1503.24 318.803 1503.81 318.7 1504.24 318.388M1498.32 301.827L1498.35 294.52C1498.09 294.44 1497.85 294.376 1497.62 294.336C1496.93 294.24 1496.39 294.352 1495.99 294.687C1495.59 295.022 1495.4 295.573 1495.4 296.362C1495.4 296.961 1495.51 297.567 1495.75 298.173C1495.98 298.772 1496.32 299.386 1496.74 299.992C1497.16 300.583 1497.69 301.197 1498.33 301.827" fill="#5F38FB"/>
</g>
<g clip-path="url(#clip5_1_603)">
<path d="M540.853 73.6321C540.853 73.6321 540.783 73.5922 540.753 73.5723C540.713 73.5523 540.673 73.5324 540.633 73.5124C540.404 73.3928 540.165 73.2731 539.925 73.1634C539.886 73.1435 539.836 73.1136 539.796 73.1036C539.756 73.0836 539.716 73.0737 539.686 73.0637C539.407 72.954 539.118 72.8443 538.819 72.7546C538.809 72.7546 538.799 72.7546 538.789 72.7446C538.48 72.6548 538.161 72.585 537.831 72.5252C537.792 72.5252 537.762 72.5053 537.722 72.4953C537.672 72.4953 537.622 72.4953 537.572 72.4754C537.293 72.4355 537.004 72.3956 536.705 72.3756C536.655 72.3756 536.615 72.3657 536.565 72.3557C536.545 72.3557 536.535 72.3557 536.515 72.3557C536.156 72.3357 535.777 72.3357 535.408 72.3557C535.368 72.3557 535.339 72.3557 535.299 72.3557C535.249 72.3557 535.199 72.3657 535.149 72.3657C534.73 72.3856 534.302 72.4255 533.863 72.4953C533.344 72.5751 532.816 72.6947 532.277 72.8343C532.247 72.8343 532.217 72.8443 532.188 72.8543C532.168 72.8543 532.148 72.8643 532.128 72.8742C531.789 72.964 531.44 73.0737 531.091 73.1933C531.021 73.2133 530.951 73.2432 530.891 73.2731C530.612 73.3728 530.323 73.4825 530.034 73.6022C529.994 73.6221 529.964 73.6321 529.924 73.6421C529.854 73.672 529.784 73.7119 529.715 73.7418C529.415 73.8714 529.106 74.011 528.797 74.1606C528.678 74.2205 528.568 74.2703 528.448 74.3301C528.049 74.5296 527.641 74.749 527.232 74.9783L346.817 179.126C346.199 179.485 345.591 179.874 344.992 180.283C344.793 180.412 344.603 180.562 344.414 180.702C344.005 180.991 343.606 181.29 343.207 181.609C342.988 181.788 342.769 181.968 342.549 182.147C342.18 182.457 341.821 182.766 341.462 183.095C341.243 183.294 341.034 183.494 340.814 183.703C340.685 183.833 340.545 183.952 340.405 184.082C340.266 184.222 340.136 184.381 339.997 184.521C339.568 184.96 339.139 185.418 338.72 185.877C338.591 186.027 338.441 186.156 338.311 186.316C338.202 186.445 338.102 186.575 337.992 186.705C337.743 187.004 337.494 187.303 337.244 187.612C337.085 187.812 336.915 188.001 336.756 188.21C336.626 188.38 336.507 188.55 336.377 188.719C336.197 188.958 336.018 189.198 335.848 189.437C335.729 189.607 335.599 189.766 335.48 189.936C335.28 190.225 335.091 190.514 334.901 190.803C334.782 190.983 334.652 191.172 334.532 191.352C334.482 191.431 334.423 191.501 334.373 191.581C334.034 192.11 333.705 192.658 333.385 193.196C333.366 193.236 333.346 193.266 333.326 193.306C333.266 193.416 333.206 193.526 333.136 193.635C332.917 194.024 332.697 194.413 332.488 194.802C332.388 194.981 332.299 195.171 332.209 195.36C332.109 195.55 332.009 195.739 331.92 195.929C331.84 196.098 331.75 196.258 331.67 196.427C331.451 196.876 331.252 197.335 331.052 197.784C331.012 197.863 330.982 197.943 330.942 198.023C330.942 198.043 330.923 198.063 330.913 198.083C330.663 198.651 330.434 199.23 330.215 199.798C330.175 199.908 330.145 200.007 330.105 200.117C330.025 200.326 329.955 200.536 329.876 200.755C329.776 201.044 329.666 201.324 329.566 201.613C329.487 201.842 329.427 202.062 329.357 202.291C329.277 202.55 329.197 202.819 329.118 203.079C329.068 203.238 329.018 203.398 328.968 203.567C328.888 203.857 328.829 204.156 328.749 204.445C328.669 204.774 328.579 205.103 328.509 205.422C328.48 205.532 328.45 205.652 328.43 205.761C328.32 206.3 328.22 206.838 328.131 207.377C328.111 207.486 328.101 207.596 328.081 207.706C328.041 207.945 328.001 208.184 327.971 208.414C327.931 208.733 327.911 209.052 327.881 209.371C327.861 209.6 327.831 209.82 327.811 210.049C327.762 210.757 327.722 211.465 327.722 212.163L328.051 338.209C328.071 344.242 330.195 348.491 333.635 350.495L341.831 355.262C338.391 353.267 336.267 349.019 336.247 342.976L335.918 216.93C335.918 216.232 335.948 215.524 335.998 214.816C336.018 214.586 336.038 214.367 336.068 214.138C336.118 213.589 336.187 213.031 336.267 212.472C336.287 212.363 336.297 212.253 336.317 212.143C336.427 211.495 336.556 210.847 336.696 210.189C336.766 209.86 336.856 209.541 336.935 209.212C337.055 208.753 337.165 208.294 337.304 207.845C337.384 207.586 337.464 207.317 337.544 207.058C337.703 206.549 337.873 206.03 338.052 205.522C338.132 205.312 338.202 205.103 338.282 204.894C338.551 204.186 338.82 203.488 339.129 202.79C339.169 202.71 339.199 202.63 339.239 202.55C339.518 201.922 339.807 201.304 340.116 200.695C340.216 200.506 340.306 200.316 340.405 200.117C340.705 199.539 341.014 198.96 341.333 198.392C341.393 198.282 341.452 198.163 341.522 198.053C341.911 197.385 342.31 196.737 342.729 196.098C342.848 195.909 342.978 195.729 343.098 195.54C343.407 195.081 343.726 194.622 344.045 194.174C344.225 193.934 344.394 193.695 344.574 193.456C344.853 193.077 345.142 192.718 345.441 192.349C345.69 192.04 345.93 191.741 346.189 191.441C346.428 191.162 346.678 190.893 346.917 190.614C347.336 190.145 347.754 189.696 348.193 189.258C348.462 188.978 348.732 188.709 349.011 188.44C349.22 188.23 349.44 188.031 349.659 187.842C350.018 187.512 350.377 187.203 350.736 186.894C350.955 186.715 351.175 186.525 351.394 186.356C351.793 186.037 352.192 185.747 352.601 185.448C352.79 185.309 352.989 185.159 353.179 185.029C353.777 184.621 354.386 184.222 355.004 183.873L535.428 79.735C535.837 79.4956 536.246 79.2862 536.645 79.0768C536.764 79.017 536.874 78.9671 536.984 78.9073C537.293 78.7577 537.602 78.6181 537.901 78.4885C538.011 78.4386 538.111 78.3987 538.22 78.3489C538.51 78.2292 538.789 78.1195 539.078 78.0198C539.148 77.9998 539.208 77.9699 539.277 77.95C539.626 77.8303 539.965 77.7206 540.314 77.6309C540.364 77.6209 540.414 77.6109 540.464 77.591C541.002 77.4514 541.531 77.3317 542.049 77.2519C542.488 77.1821 542.907 77.1423 543.326 77.1223C543.406 77.1223 543.495 77.1123 543.575 77.1123C543.954 77.1024 544.323 77.1024 544.682 77.1123C544.742 77.1123 544.812 77.1223 544.871 77.1323C545.161 77.1522 545.45 77.1921 545.739 77.232C545.829 77.242 545.918 77.2619 546.008 77.2719C546.337 77.3317 546.656 77.4015 546.965 77.4913C546.985 77.4913 546.995 77.5012 547.005 77.5012C547.294 77.591 547.584 77.6907 547.863 77.8004C547.943 77.8303 548.022 77.8702 548.112 77.9001C548.351 78.0098 548.591 78.1195 548.82 78.2491C548.9 78.289 548.98 78.3289 549.049 78.3688L540.853 73.6022V73.6321Z" fill="#DCE2EA" stroke="#010E3E" stroke-width="1.33" stroke-linecap="round" stroke-linejoin="round"/>
<path d="M535.429 79.7351C546.008 73.6322 554.604 78.5185 554.644 90.6744L554.973 216.721C555.003 228.866 546.467 243.675 535.887 249.778L355.473 353.945C344.893 360.048 336.298 355.152 336.268 342.996L335.939 216.95C335.909 204.794 344.444 190.006 355.024 183.893L535.429 79.7351Z" fill="white" stroke="#010E3E" stroke-width="1.33325" stroke-linecap="round" stroke-linejoin="round"/>
<path d="M519.804 130.453C519.933 130.393 520.073 130.343 520.203 130.293C520.392 130.223 520.582 130.154 520.771 130.094C520.891 130.054 521.01 130.024 521.13 129.994C521.24 129.964 521.349 129.944 521.459 129.924C521.599 129.894 521.748 129.874 521.888 129.854C521.968 129.854 522.047 129.834 522.127 129.834C522.297 129.824 522.476 129.814 522.636 129.824C522.676 129.824 522.715 129.824 522.755 129.824C522.955 129.834 523.154 129.864 523.344 129.894C523.394 129.894 523.433 129.914 523.483 129.924C523.633 129.954 523.782 130.004 523.922 130.054C523.962 130.074 524.012 130.084 524.052 130.104C524.231 130.173 524.411 130.253 524.58 130.353L508.915 121.249C508.915 121.249 508.885 121.229 508.875 121.219C508.745 121.149 508.616 121.079 508.476 121.019C508.446 121.009 508.426 120.999 508.396 120.989C508.356 120.969 508.307 120.959 508.257 120.939C508.187 120.919 508.117 120.89 508.047 120.87C507.968 120.85 507.888 120.83 507.818 120.82C507.768 120.81 507.728 120.8 507.678 120.79C507.649 120.79 507.629 120.78 507.599 120.77C507.439 120.74 507.28 120.72 507.12 120.71C507.11 120.71 507.1 120.71 507.09 120.71C507.05 120.71 507.01 120.71 506.97 120.71C506.841 120.71 506.721 120.71 506.592 120.71C506.552 120.71 506.502 120.72 506.462 120.72C506.382 120.72 506.302 120.73 506.223 120.74C506.153 120.74 506.073 120.75 506.003 120.76C505.933 120.77 505.864 120.79 505.804 120.8C505.694 120.82 505.584 120.84 505.475 120.87C505.415 120.88 505.355 120.89 505.295 120.909C505.235 120.929 505.176 120.949 505.116 120.969C504.926 121.029 504.747 121.089 504.547 121.169C504.478 121.199 504.418 121.209 504.348 121.239C504.278 121.268 504.218 121.298 504.148 121.328C504.089 121.358 504.019 121.388 503.959 121.418C503.72 121.528 503.47 121.657 503.221 121.797L485.113 132.248C484.854 132.397 484.604 132.557 484.345 132.736C484.265 132.796 484.186 132.856 484.106 132.916C483.936 133.035 483.767 133.165 483.597 133.295C483.507 133.364 483.418 133.444 483.318 133.524C483.168 133.654 483.019 133.783 482.869 133.923C482.78 134.003 482.69 134.092 482.6 134.172C482.54 134.222 482.48 134.272 482.431 134.332C482.371 134.392 482.321 134.451 482.261 134.511C482.082 134.691 481.902 134.88 481.733 135.08C481.673 135.14 481.613 135.199 481.563 135.259C481.513 135.309 481.473 135.369 481.433 135.419C481.324 135.538 481.224 135.668 481.124 135.798C481.054 135.877 480.985 135.957 480.915 136.047C480.865 136.117 480.815 136.187 480.755 136.256C480.686 136.356 480.606 136.456 480.536 136.556C480.486 136.625 480.436 136.695 480.386 136.765C480.307 136.885 480.227 137.004 480.147 137.124C480.097 137.204 480.047 137.274 479.988 137.353C479.968 137.383 479.948 137.413 479.918 137.453C479.778 137.672 479.639 137.902 479.509 138.131C479.509 138.151 479.489 138.161 479.479 138.181C479.449 138.231 479.429 138.271 479.399 138.321C479.309 138.48 479.21 138.65 479.13 138.809C479.09 138.889 479.05 138.969 479.01 139.039C478.97 139.118 478.931 139.198 478.891 139.278C478.861 139.348 478.821 139.418 478.781 139.487C478.691 139.677 478.601 139.866 478.522 140.056C478.512 140.086 478.492 140.116 478.482 140.145C478.482 140.145 478.482 140.165 478.472 140.175C478.372 140.415 478.272 140.654 478.183 140.893C478.163 140.943 478.153 140.983 478.133 141.033C478.103 141.123 478.073 141.202 478.043 141.292C478.003 141.412 477.953 141.532 477.913 141.651C477.884 141.741 477.854 141.841 477.824 141.93C477.794 142.04 477.754 142.15 477.724 142.26C477.704 142.329 477.684 142.389 477.664 142.459C477.634 142.579 477.604 142.708 477.574 142.828C477.544 142.968 477.505 143.097 477.475 143.237C477.465 143.287 477.455 143.327 477.445 143.376C477.425 143.476 477.415 143.576 477.395 143.676C477.355 143.895 477.315 144.104 477.285 144.314C477.285 144.374 477.265 144.433 477.255 144.493C477.235 144.623 477.225 144.763 477.215 144.892C477.215 144.992 477.195 145.082 477.186 145.181C477.166 145.48 477.146 145.78 477.146 146.069L477.345 215.683C477.345 217.887 478.033 219.533 479.17 220.46C479.329 220.59 479.499 220.709 479.678 220.819L495.344 229.923C493.908 229.086 493.01 227.311 493.01 224.788L492.811 155.173C492.811 154.884 492.821 154.585 492.851 154.286C492.851 154.186 492.871 154.096 492.881 153.997C492.901 153.807 492.921 153.618 492.95 153.418C492.98 153.209 493.02 152.989 493.06 152.78C493.09 152.63 493.11 152.491 493.15 152.341C493.18 152.202 493.22 152.072 493.25 151.932C493.299 151.743 493.349 151.553 493.399 151.364C493.429 151.254 493.469 151.145 493.499 151.035C493.569 150.825 493.639 150.606 493.708 150.397C493.738 150.307 493.768 150.217 493.808 150.127C493.918 149.828 494.037 149.539 494.167 149.25C494.177 149.22 494.197 149.19 494.207 149.15C494.327 148.891 494.446 148.632 494.576 148.372C494.616 148.293 494.656 148.213 494.696 148.133C494.815 147.894 494.945 147.654 495.084 147.415C495.114 147.365 495.134 147.315 495.164 147.275C495.324 146.996 495.493 146.727 495.663 146.458C495.713 146.378 495.762 146.298 495.822 146.228C495.952 146.039 496.082 145.849 496.221 145.66C496.291 145.56 496.371 145.461 496.441 145.361C496.56 145.201 496.68 145.052 496.799 144.902C496.899 144.772 497.009 144.643 497.109 144.523C497.208 144.404 497.308 144.294 497.408 144.184C497.587 143.985 497.757 143.795 497.946 143.616C498.056 143.496 498.176 143.386 498.285 143.277C498.375 143.187 498.465 143.107 498.554 143.027C498.704 142.888 498.854 142.758 499.003 142.628C499.093 142.549 499.183 142.479 499.272 142.399C499.442 142.27 499.611 142.14 499.781 142.02C499.861 141.96 499.941 141.901 500.02 141.841C500.27 141.671 500.529 141.502 500.788 141.352L518.896 130.901C519.146 130.762 519.385 130.632 519.634 130.522C519.694 130.493 519.764 130.463 519.824 130.433L519.804 130.453Z" fill="#DCE2EA" stroke="#010E3E" stroke-width="1.33" stroke-linecap="round" stroke-linejoin="round"/>
<path d="M518.876 130.921C523.303 128.369 526.893 130.413 526.913 135.499L527.112 205.113C527.122 210.189 523.553 216.382 519.125 218.944L501.017 229.395C496.59 231.948 493 229.894 492.98 224.818L492.78 155.203C492.77 150.118 496.34 143.935 500.768 141.372L518.876 130.921Z" fill="white" stroke="#010E3E" stroke-width="1.33" stroke-miterlimit="10"/>
<path d="M471.523 184.042C471.712 183.972 471.901 183.903 472.091 183.843C472.211 183.803 472.33 183.773 472.45 183.743C472.56 183.713 472.669 183.693 472.779 183.673C472.919 183.643 473.068 183.623 473.208 183.604C473.288 183.604 473.367 183.584 473.447 183.584C473.627 183.574 473.796 183.564 473.966 183.574C474.005 183.574 474.045 183.574 474.085 183.574C474.285 183.584 474.484 183.613 474.674 183.653C474.723 183.653 474.773 183.673 474.813 183.683C474.963 183.713 475.112 183.763 475.252 183.813C475.302 183.833 475.342 183.843 475.391 183.863C475.571 183.933 475.75 184.012 475.92 184.112L460.255 175.008C460.255 175.008 460.225 174.988 460.215 174.978C460.085 174.908 459.946 174.838 459.816 174.778C459.786 174.768 459.766 174.758 459.736 174.748C459.696 174.728 459.646 174.718 459.597 174.699C459.527 174.679 459.457 174.649 459.387 174.629C459.317 174.609 459.238 174.589 459.158 174.579C459.108 174.569 459.068 174.559 459.018 174.549C458.988 174.549 458.968 174.539 458.939 174.529C458.779 174.499 458.619 174.479 458.45 174.469C458.45 174.469 458.43 174.469 458.42 174.469C458.38 174.469 458.34 174.469 458.3 174.469C458.171 174.469 458.051 174.469 457.911 174.469C457.872 174.469 457.822 174.479 457.782 174.479C457.702 174.479 457.622 174.489 457.542 174.499C457.463 174.499 457.393 174.509 457.313 174.519C457.243 174.519 457.184 174.549 457.114 174.559C457.004 174.579 456.894 174.599 456.785 174.629C456.725 174.639 456.665 174.649 456.605 174.669C456.545 174.689 456.486 174.708 456.426 174.728C456.236 174.788 456.057 174.848 455.857 174.918C455.788 174.948 455.728 174.958 455.658 174.988C455.618 175.008 455.578 175.028 455.548 175.048C455.219 175.187 454.88 175.347 454.541 175.546L436.433 185.997C436.174 186.146 435.924 186.306 435.665 186.485C435.585 186.545 435.505 186.605 435.426 186.655C435.256 186.775 435.087 186.904 434.917 187.034C434.827 187.104 434.738 187.183 434.648 187.263C434.498 187.393 434.339 187.523 434.189 187.662C434.099 187.742 434.01 187.832 433.92 187.911C433.86 187.961 433.81 188.011 433.75 188.071C433.691 188.131 433.641 188.191 433.581 188.25C433.401 188.43 433.222 188.619 433.052 188.819C432.993 188.879 432.933 188.939 432.883 188.998C432.833 189.048 432.793 189.108 432.743 189.168C432.634 189.288 432.534 189.417 432.434 189.547C432.364 189.627 432.295 189.706 432.235 189.796C432.185 189.866 432.125 189.936 432.075 190.016C431.995 190.115 431.926 190.215 431.856 190.315C431.806 190.384 431.756 190.454 431.706 190.524C431.627 190.644 431.547 190.773 431.457 190.893C431.407 190.973 431.357 191.043 431.307 191.122C431.287 191.152 431.268 191.182 431.248 191.222C431.108 191.442 430.968 191.671 430.829 191.9C430.829 191.92 430.809 191.93 430.799 191.95C430.769 192 430.749 192.04 430.719 192.09C430.629 192.249 430.54 192.409 430.45 192.578C430.41 192.658 430.37 192.738 430.33 192.808C430.29 192.887 430.25 192.967 430.211 193.047C430.181 193.117 430.141 193.187 430.111 193.256C430.021 193.446 429.931 193.635 429.852 193.825C429.842 193.855 429.822 193.885 429.812 193.925C429.812 193.925 429.812 193.944 429.802 193.954C429.702 194.194 429.602 194.433 429.513 194.672C429.493 194.712 429.483 194.762 429.463 194.802C429.433 194.892 429.403 194.982 429.363 195.071C429.323 195.191 429.273 195.311 429.233 195.43C429.203 195.52 429.174 195.62 429.144 195.71C429.114 195.819 429.074 195.929 429.044 196.039C429.024 196.108 429.004 196.178 428.984 196.238C428.954 196.358 428.924 196.477 428.894 196.607C428.864 196.747 428.825 196.886 428.795 197.016C428.785 197.066 428.775 197.106 428.765 197.155C428.745 197.255 428.735 197.355 428.715 197.445C428.675 197.654 428.635 197.873 428.605 198.083C428.605 198.143 428.585 198.203 428.575 198.262C428.575 198.322 428.575 198.372 428.565 198.422C428.505 198.901 428.476 199.369 428.476 199.828L428.605 243.844C428.605 246.367 429.503 248.142 430.938 248.98L446.604 258.084C445.168 257.247 444.27 255.472 444.27 252.949L444.141 208.932C444.141 208.474 444.181 208.005 444.231 207.526C444.24 207.417 444.25 207.297 444.27 207.187C444.3 206.978 444.34 206.759 444.38 206.549C444.41 206.4 444.43 206.26 444.47 206.11C444.5 205.971 444.54 205.841 444.57 205.701C444.619 205.512 444.669 205.323 444.719 205.133C444.749 205.023 444.789 204.914 444.819 204.804C444.889 204.595 444.958 204.375 445.038 204.166C445.068 204.076 445.098 203.986 445.138 203.897C445.248 203.597 445.367 203.308 445.497 203.019C445.507 202.989 445.527 202.959 445.537 202.919C445.656 202.66 445.776 202.401 445.906 202.141C445.946 202.062 445.986 201.982 446.025 201.902C446.155 201.663 446.285 201.423 446.414 201.184C446.444 201.134 446.464 201.094 446.494 201.045C446.654 200.765 446.823 200.496 447.003 200.227C447.052 200.147 447.102 200.077 447.152 199.997C447.282 199.808 447.411 199.609 447.551 199.429C447.621 199.329 447.701 199.23 447.77 199.13C447.89 198.97 448.01 198.821 448.129 198.671C448.229 198.542 448.339 198.412 448.438 198.292C448.538 198.173 448.638 198.063 448.748 197.943C448.917 197.754 449.097 197.564 449.276 197.375C449.386 197.265 449.505 197.145 449.615 197.036C449.705 196.946 449.795 196.866 449.884 196.787C450.034 196.647 450.184 196.517 450.343 196.388C450.433 196.308 450.523 196.238 450.612 196.158C450.782 196.029 450.951 195.899 451.121 195.779C451.201 195.719 451.28 195.66 451.36 195.6C451.609 195.43 451.869 195.261 452.128 195.111L470.236 184.661C470.575 184.461 470.914 184.302 471.243 184.162C471.353 184.112 471.453 184.072 471.552 184.032L471.523 184.042Z" fill="#5F38FB" stroke="#010E3E" stroke-width="1.33" stroke-miterlimit="10"/>
<path d="M470.206 184.67C474.623 182.118 478.223 184.172 478.243 189.248L478.372 233.254C478.382 238.33 474.812 244.532 470.385 247.085L452.277 257.536C447.85 260.089 444.26 258.035 444.24 252.959L444.11 208.952C444.1 203.877 447.67 197.684 452.097 195.121L470.206 184.67Z" fill="#8671FF" stroke="#010E3E" stroke-width="1.33" stroke-miterlimit="10"/>
<path d="M421.745 231.957C421.874 231.898 422.014 231.848 422.143 231.798C422.333 231.728 422.522 231.658 422.712 231.598C422.832 231.559 422.951 231.529 423.071 231.499C423.181 231.469 423.29 231.449 423.4 231.429C423.54 231.399 423.679 231.379 423.819 231.359C423.898 231.359 423.978 231.339 424.058 231.339C424.228 231.329 424.407 231.319 424.567 231.329C424.606 231.329 424.646 231.329 424.686 231.329C424.886 231.339 425.085 231.369 425.275 231.399C425.324 231.399 425.364 231.419 425.414 231.429C425.564 231.459 425.713 231.509 425.853 231.559C425.903 231.578 425.943 231.588 425.993 231.608C426.172 231.678 426.351 231.758 426.521 231.858L410.856 222.753C410.856 222.753 410.826 222.733 410.816 222.723C410.686 222.654 410.557 222.584 410.417 222.524C410.387 222.514 410.367 222.504 410.337 222.494C410.297 222.474 410.247 222.464 410.198 222.444C410.128 222.424 410.058 222.394 409.988 222.374C409.908 222.354 409.839 222.334 409.759 222.324C409.709 222.314 409.669 222.305 409.619 222.295C409.589 222.295 409.569 222.285 409.54 222.275C409.38 222.245 409.22 222.225 409.061 222.215C409.051 222.215 409.041 222.215 409.031 222.215C408.991 222.215 408.951 222.215 408.911 222.215C408.782 222.215 408.662 222.215 408.532 222.215C408.492 222.215 408.443 222.225 408.403 222.225C408.323 222.225 408.243 222.235 408.163 222.245C408.084 222.245 408.014 222.255 407.944 222.265C407.874 222.275 407.814 222.295 407.745 222.304C407.635 222.324 407.525 222.344 407.416 222.374C407.356 222.384 407.296 222.394 407.236 222.414C407.176 222.434 407.116 222.454 407.057 222.474C406.867 222.534 406.688 222.594 406.488 222.673C406.418 222.703 406.359 222.713 406.289 222.743C406.219 222.773 406.159 222.803 406.089 222.833C406.03 222.863 405.96 222.893 405.9 222.923C405.661 223.032 405.411 223.162 405.162 223.302L387.054 233.762C386.794 233.912 386.545 234.071 386.296 234.251C386.216 234.311 386.136 234.371 386.057 234.43C385.887 234.55 385.718 234.68 385.558 234.809C385.468 234.879 385.379 234.959 385.279 235.039C385.129 235.168 384.98 235.298 384.83 235.438C384.74 235.517 384.651 235.607 384.561 235.687C384.501 235.737 384.451 235.787 384.391 235.846C384.332 235.906 384.282 235.966 384.222 236.026C384.042 236.205 383.863 236.395 383.693 236.594C383.634 236.654 383.574 236.714 383.524 236.774C383.474 236.824 383.434 236.884 383.384 236.943C383.275 237.063 383.175 237.193 383.075 237.322C383.005 237.402 382.936 237.482 382.876 237.572C382.826 237.641 382.766 237.711 382.716 237.791C382.646 237.891 382.567 237.99 382.497 238.09C382.447 238.16 382.397 238.23 382.347 238.3C382.267 238.419 382.188 238.549 382.098 238.669C382.048 238.748 381.998 238.818 381.948 238.898C381.928 238.928 381.908 238.958 381.888 238.998C381.749 239.217 381.609 239.446 381.48 239.676C381.48 239.696 381.46 239.706 381.45 239.726C381.42 239.775 381.4 239.825 381.37 239.875C381.28 240.035 381.19 240.194 381.101 240.354C381.061 240.434 381.021 240.513 380.981 240.583C380.941 240.663 380.901 240.743 380.861 240.823C380.832 240.892 380.792 240.962 380.752 241.032C380.662 241.221 380.572 241.421 380.483 241.61C380.473 241.64 380.453 241.67 380.443 241.7C380.443 241.7 380.443 241.72 380.433 241.73C380.333 241.969 380.233 242.209 380.143 242.448C380.124 242.498 380.114 242.538 380.094 242.588C380.064 242.677 380.034 242.767 380.004 242.847C379.964 242.967 379.914 243.086 379.874 243.206C379.844 243.306 379.814 243.395 379.785 243.495C379.755 243.605 379.715 243.714 379.685 243.824C379.665 243.894 379.645 243.954 379.625 244.024C379.595 244.143 379.565 244.273 379.535 244.392C379.505 244.532 379.465 244.662 379.436 244.801C379.426 244.851 379.416 244.891 379.406 244.941C379.386 245.041 379.376 245.14 379.356 245.24C379.316 245.46 379.276 245.669 379.246 245.878C379.246 245.938 379.226 245.998 379.216 246.058C379.196 246.187 379.186 246.327 379.176 246.457C379.176 246.546 379.156 246.646 379.146 246.736C379.126 247.035 379.106 247.334 379.106 247.623L379.176 272.434C379.176 274.957 380.074 276.742 381.51 277.569L397.175 286.674C395.739 285.836 394.841 284.061 394.841 281.538L394.772 256.728C394.772 256.439 394.782 256.14 394.812 255.84C394.812 255.751 394.832 255.651 394.841 255.551C394.861 255.362 394.881 255.172 394.911 254.973C394.941 254.763 394.981 254.544 395.021 254.335C395.051 254.185 395.071 254.045 395.101 253.896C395.131 253.756 395.171 253.627 395.2 253.487C395.25 253.298 395.3 253.108 395.35 252.919C395.38 252.809 395.42 252.699 395.45 252.589C395.52 252.38 395.589 252.161 395.659 251.951C395.689 251.862 395.719 251.772 395.759 251.682C395.869 251.383 395.988 251.094 396.118 250.804C396.128 250.775 396.148 250.745 396.158 250.715C396.277 250.455 396.397 250.196 396.527 249.937C396.567 249.857 396.606 249.777 396.646 249.698C396.766 249.458 396.896 249.219 397.035 248.98C397.065 248.93 397.085 248.88 397.115 248.83C397.275 248.551 397.444 248.282 397.614 248.012C397.663 247.933 397.713 247.863 397.763 247.783C397.893 247.594 398.022 247.404 398.162 247.215C398.232 247.115 398.312 247.015 398.391 246.905C398.511 246.746 398.631 246.596 398.75 246.447C398.85 246.317 398.96 246.187 399.059 246.068C399.159 245.948 399.259 245.838 399.369 245.719C399.538 245.519 399.718 245.34 399.897 245.15C400.007 245.041 400.126 244.921 400.236 244.811C400.326 244.722 400.416 244.642 400.505 244.562C400.655 244.422 400.804 244.293 400.954 244.163C401.044 244.083 401.134 244.014 401.223 243.934C401.393 243.804 401.562 243.675 401.732 243.555C401.812 243.495 401.891 243.435 401.971 243.375C402.22 243.206 402.48 243.036 402.739 242.887L420.847 232.426C421.096 232.286 421.336 232.157 421.585 232.047C421.645 232.017 421.715 231.987 421.775 231.957H421.745Z" fill="#DCE2EA" stroke="#010E3E" stroke-width="1.33" stroke-linecap="round" stroke-linejoin="round"/>
<path d="M420.827 232.427C425.244 229.874 428.844 231.928 428.854 237.014L428.924 261.824C428.934 266.9 425.364 273.092 420.946 275.645L402.838 286.106C398.421 288.659 394.821 286.604 394.811 281.519L394.741 256.708C394.731 251.623 398.301 245.44 402.718 242.887L420.827 232.427Z" fill="white" stroke="#010E3E" stroke-width="1.33" stroke-miterlimit="10"/>
</g>
<g clip-path="url(#clip6_1_603)">
<path d="M605.385 232.736L605.439 250.297L615.233 255.937L615.19 238.386L605.385 232.736Z" fill="url(#paint36_linear_1_603)" stroke="#010E3E" stroke-width="1.33" stroke-linecap="round" stroke-linejoin="round"/>
<path d="M640.487 154.724C640.649 154.66 640.8 154.596 640.951 154.542C641.177 154.457 641.392 154.382 641.608 154.318C641.748 154.275 641.888 154.233 642.028 154.201C642.157 154.169 642.287 154.147 642.416 154.115C642.577 154.083 642.75 154.062 642.911 154.04C643.008 154.04 643.105 154.019 643.192 154.008C643.396 153.998 643.59 153.987 643.784 153.998C643.827 153.998 643.881 153.998 643.924 153.998C644.161 154.008 644.387 154.04 644.614 154.083C644.668 154.094 644.721 154.104 644.775 154.126C644.948 154.169 645.12 154.211 645.293 154.275C645.346 154.297 645.4 154.307 645.454 154.329C645.67 154.414 645.874 154.5 646.068 154.617L636.264 148.966C636.264 148.966 636.232 148.945 636.21 148.934C636.059 148.849 635.898 148.774 635.747 148.71C635.714 148.699 635.682 148.689 635.65 148.678C635.596 148.657 635.542 148.646 635.488 148.625C635.402 148.592 635.327 148.56 635.24 148.539C635.154 148.518 635.057 148.496 634.971 148.475C634.917 148.464 634.863 148.443 634.809 148.432C634.777 148.432 634.756 148.422 634.723 148.411C634.54 148.379 634.357 148.357 634.163 148.347C634.152 148.347 634.141 148.347 634.131 148.347C634.088 148.347 634.034 148.347 633.991 148.347C633.84 148.347 633.7 148.347 633.549 148.347C633.495 148.347 633.441 148.357 633.398 148.357C633.301 148.357 633.215 148.379 633.118 148.39C633.032 148.39 632.946 148.4 632.859 148.411C632.784 148.422 632.698 148.443 632.622 148.464C632.493 148.486 632.375 148.518 632.245 148.55C632.181 148.571 632.105 148.571 632.041 148.592C631.976 148.614 631.901 148.646 631.836 148.667C631.62 148.731 631.394 148.806 631.179 148.892C631.103 148.924 631.028 148.934 630.942 148.966C630.866 148.998 630.791 149.041 630.705 149.073C630.629 149.105 630.554 149.137 630.478 149.169C630.198 149.298 629.907 149.447 629.616 149.607L539.051 201.458C538.749 201.629 538.458 201.821 538.157 202.014C538.06 202.078 537.973 202.153 537.876 202.217C537.683 202.356 537.478 202.505 537.284 202.655C537.176 202.74 537.068 202.826 536.961 202.911C536.788 203.061 536.605 203.21 536.433 203.37C536.325 203.467 536.217 203.563 536.12 203.659C536.056 203.723 535.991 203.776 535.926 203.84C535.862 203.904 535.797 203.979 535.722 204.054C535.506 204.268 535.301 204.481 535.097 204.706C535.032 204.78 534.967 204.845 534.903 204.919C534.849 204.983 534.795 205.047 534.741 205.112C534.623 205.25 534.493 205.4 534.375 205.55C534.3 205.646 534.213 205.742 534.138 205.838C534.073 205.923 534.019 205.998 533.955 206.084C533.869 206.201 533.782 206.319 533.696 206.436C533.642 206.522 533.578 206.596 533.513 206.671C533.416 206.81 533.319 206.949 533.233 207.088C533.168 207.173 533.114 207.269 533.05 207.355C533.028 207.398 532.996 207.43 532.974 207.462C532.813 207.718 532.651 207.985 532.489 208.241C532.489 208.263 532.468 208.273 532.457 208.295C532.425 208.348 532.393 208.402 532.36 208.455C532.252 208.637 532.145 208.829 532.048 209.021C532.005 209.107 531.962 209.203 531.908 209.288C531.865 209.384 531.811 209.47 531.768 209.566C531.725 209.651 531.681 209.726 531.638 209.812C531.531 210.025 531.434 210.25 531.337 210.463C531.315 210.506 531.304 210.538 531.283 210.581C531.283 210.591 531.283 210.602 531.272 210.613C531.154 210.891 531.035 211.168 530.927 211.446C530.906 211.499 530.895 211.553 530.873 211.596C530.83 211.702 530.798 211.799 530.766 211.905C530.712 212.044 530.658 212.183 530.615 212.322C530.582 212.429 530.55 212.536 530.518 212.642C530.475 212.771 530.442 212.899 530.399 213.027C530.378 213.102 530.345 213.187 530.324 213.262C530.281 213.401 530.259 213.54 530.216 213.689C530.173 213.85 530.13 214.01 530.098 214.159C530.087 214.213 530.065 214.266 530.055 214.32C530.033 214.437 530.022 214.544 530.001 214.661C529.958 214.907 529.904 215.153 529.871 215.398C529.871 215.463 529.85 215.537 529.839 215.601C529.818 215.762 529.807 215.911 529.796 216.061C529.796 216.168 529.774 216.274 529.764 216.392C529.742 216.734 529.721 217.076 529.721 217.417L529.861 265.284C529.861 268.2 530.906 270.251 532.586 271.223L542.391 276.874C540.71 275.913 539.676 273.851 539.665 270.935L539.525 223.068C539.525 222.726 539.536 222.385 539.568 222.043C539.568 221.936 539.589 221.829 539.6 221.712C539.622 221.487 539.654 221.274 539.686 221.049C539.719 220.804 539.762 220.558 539.816 220.312C539.848 220.141 539.88 219.981 539.913 219.81C539.945 219.65 539.988 219.49 540.031 219.34C540.085 219.116 540.139 218.902 540.204 218.678C540.236 218.55 540.279 218.421 540.322 218.293C540.398 218.048 540.484 217.802 540.57 217.556C540.602 217.46 540.645 217.353 540.678 217.257C540.807 216.915 540.947 216.573 541.087 216.242C541.109 216.2 541.119 216.168 541.141 216.125C541.281 215.826 541.421 215.527 541.572 215.228C541.615 215.131 541.669 215.046 541.712 214.95C541.863 214.672 542.014 214.394 542.164 214.117C542.197 214.063 542.218 214.01 542.251 213.956C542.434 213.636 542.639 213.315 542.843 213.006C542.897 212.92 542.962 212.824 543.026 212.739C543.177 212.514 543.328 212.29 543.49 212.076C543.576 211.959 543.662 211.841 543.748 211.724C543.888 211.542 544.028 211.371 544.168 211.19C544.287 211.04 544.405 210.891 544.535 210.752C544.653 210.613 544.772 210.485 544.89 210.356C545.095 210.132 545.3 209.908 545.515 209.694C545.644 209.566 545.774 209.427 545.914 209.299C546.022 209.203 546.118 209.107 546.226 209.011C546.399 208.85 546.582 208.701 546.754 208.551C546.862 208.466 546.97 208.38 547.067 208.295C547.261 208.145 547.454 207.996 547.659 207.857C547.756 207.793 547.842 207.718 547.939 207.654C548.23 207.451 548.532 207.269 548.834 207.088L639.41 155.269C639.701 155.109 639.981 154.959 640.272 154.831C640.347 154.799 640.423 154.767 640.498 154.735L640.487 154.724Z" fill="url(#paint37_linear_1_603)" stroke="#010E3E" stroke-width="1.33" stroke-linecap="round" stroke-linejoin="round"/>
<path d="M639.412 155.269C644.572 152.31 648.763 154.682 648.785 160.557L648.925 208.423C648.946 214.298 644.777 221.445 639.616 224.404L631.072 229.296L615.235 255.948L615.181 238.397L549.04 276.255C543.89 279.203 539.688 276.842 539.677 270.967L539.537 223.101C539.516 217.225 543.685 210.079 548.846 207.12L639.412 155.269Z" fill="#DCE2EA" stroke="#010E3E" stroke-width="1.33" stroke-linecap="round" stroke-linejoin="round"/>
<path d="M599.672 214.447L599.672 214.448L556.641 239.081L556.638 239.082C556.049 239.416 555.479 240.02 555.055 240.751C554.632 241.481 554.39 242.274 554.39 242.946C554.39 242.947 554.39 242.947 554.39 242.947L554.411 249.416C554.411 249.417 554.411 249.417 554.411 249.417C554.416 250.091 554.651 250.391 554.844 250.5C555.04 250.611 555.427 250.66 556.022 250.318L556.023 250.318L599.053 225.685L599.672 214.447ZM599.672 214.447C600.268 214.105 600.655 214.154 600.851 214.265M599.672 214.447L600.851 214.265M600.851 214.265C601.044 214.374 601.279 214.675 601.284 215.348M600.851 214.265L601.284 215.348M601.284 215.348C601.284 215.348 601.284 215.349 601.284 215.349M601.284 215.348L601.284 215.349M601.284 215.349L601.305 221.818C601.305 221.818 601.305 221.819 601.305 221.819C601.305 222.491 601.064 223.281 600.64 224.01C600.216 224.739 599.646 225.345 599.054 225.685L601.284 215.349Z" fill="#5F38FB" stroke="#010E3E" stroke-width="1.33"/>
<path d="M632.019 175.48C633.883 174.411 635.402 175.277 635.413 177.392V182.081C635.434 184.207 633.926 186.803 632.062 187.871L557.076 230.792C555.212 231.86 553.693 230.995 553.682 228.869V224.179C553.66 222.054 555.169 219.458 557.033 218.4L632.019 175.48Z" fill="white" stroke="#010E3E" stroke-width="1.33" stroke-miterlimit="10"/>
</g>
<defs>
<linearGradient id="paint0_linear_1_603" x1="45.0936" y1="318.67" x2="473.155" y2="314.39" gradientUnits="userSpaceOnUse">
<stop stop-color="#FCFDFD"/>
<stop offset="0.16" stop-color="#EAEEF2"/>
<stop offset="0.33" stop-color="#DFE5EC"/>
<stop offset="0.51" stop-color="#DCE2EA"/>
<stop offset="0.67" stop-color="#DFE4EC"/>
<stop offset="0.82" stop-color="#EAEDF2"/>
<stop offset="0.95" stop-color="#FCFCFD"/>
<stop offset="0.97" stop-color="white"/>
</linearGradient>
<linearGradient id="paint1_linear_1_603" x1="90.5904" y1="292.001" x2="518.645" y2="287.722" gradientUnits="userSpaceOnUse">
<stop stop-color="#FCFDFD"/>
<stop offset="0.16" stop-color="#EAEEF2"/>
<stop offset="0.33" stop-color="#DFE5EC"/>
<stop offset="0.51" stop-color="#DCE2EA"/>
<stop offset="0.67" stop-color="#DFE4EC"/>
<stop offset="0.82" stop-color="#EAEDF2"/>
<stop offset="0.95" stop-color="#FCFCFD"/>
<stop offset="0.97" stop-color="white"/>
</linearGradient>
<linearGradient id="paint2_linear_1_603" x1="136.082" y1="265.326" x2="564.136" y2="261.046" gradientUnits="userSpaceOnUse">
<stop stop-color="#FCFDFD"/>
<stop offset="0.16" stop-color="#EAEEF2"/>
<stop offset="0.33" stop-color="#DFE5EC"/>
<stop offset="0.51" stop-color="#DCE2EA"/>
<stop offset="0.67" stop-color="#DFE4EC"/>
<stop offset="0.82" stop-color="#EAEDF2"/>
<stop offset="0.95" stop-color="#FCFCFD"/>
<stop offset="0.97" stop-color="white"/>
</linearGradient>
<linearGradient id="paint3_linear_1_603" x1="181.57" y1="238.65" x2="609.625" y2="234.37" gradientUnits="userSpaceOnUse">
<stop stop-color="#FCFDFD"/>
<stop offset="0.16" stop-color="#EAEEF2"/>
<stop offset="0.33" stop-color="#DFE5EC"/>
<stop offset="0.51" stop-color="#DCE2EA"/>
<stop offset="0.67" stop-color="#DFE4EC"/>
<stop offset="0.82" stop-color="#EAEDF2"/>
<stop offset="0.95" stop-color="#FCFCFD"/>
<stop offset="0.97" stop-color="white"/>
</linearGradient>
<linearGradient id="paint4_linear_1_603" x1="227.062" y1="211.981" x2="655.123" y2="207.701" gradientUnits="userSpaceOnUse">
<stop stop-color="#FCFDFD"/>
<stop offset="0.16" stop-color="#EAEEF2"/>
<stop offset="0.33" stop-color="#DFE5EC"/>
<stop offset="0.51" stop-color="#DCE2EA"/>
<stop offset="0.67" stop-color="#DFE4EC"/>
<stop offset="0.82" stop-color="#EAEDF2"/>
<stop offset="0.95" stop-color="#FCFCFD"/>
<stop offset="0.97" stop-color="white"/>
</linearGradient>
<linearGradient id="paint5_linear_1_603" x1="272.557" y1="185.305" x2="700.612" y2="181.025" gradientUnits="userSpaceOnUse">
<stop stop-color="#FCFDFD"/>
<stop offset="0.16" stop-color="#EAEEF2"/>
<stop offset="0.33" stop-color="#DFE5EC"/>
<stop offset="0.51" stop-color="#DCE2EA"/>
<stop offset="0.67" stop-color="#DFE4EC"/>
<stop offset="0.82" stop-color="#EAEDF2"/>
<stop offset="0.95" stop-color="#FCFCFD"/>
<stop offset="0.97" stop-color="white"/>
</linearGradient>
<linearGradient id="paint6_linear_1_603" x1="318.048" y1="158.629" x2="746.102" y2="154.349" gradientUnits="userSpaceOnUse">
<stop stop-color="#FCFDFD"/>
<stop offset="0.16" stop-color="#EAEEF2"/>
<stop offset="0.33" stop-color="#DFE5EC"/>
<stop offset="0.51" stop-color="#DCE2EA"/>
<stop offset="0.67" stop-color="#DFE4EC"/>
<stop offset="0.82" stop-color="#EAEDF2"/>
<stop offset="0.95" stop-color="#FCFCFD"/>
<stop offset="0.97" stop-color="white"/>
</linearGradient>
<linearGradient id="paint7_linear_1_603" x1="363.538" y1="131.96" x2="791.593" y2="127.68" gradientUnits="userSpaceOnUse">
<stop stop-color="#FCFDFD"/>
<stop offset="0.16" stop-color="#EAEEF2"/>
<stop offset="0.33" stop-color="#DFE5EC"/>
<stop offset="0.51" stop-color="#DCE2EA"/>
<stop offset="0.67" stop-color="#DFE4EC"/>
<stop offset="0.82" stop-color="#EAEDF2"/>
<stop offset="0.95" stop-color="#FCFCFD"/>
<stop offset="0.97" stop-color="white"/>
</linearGradient>
<linearGradient id="paint8_linear_1_603" x1="772.985" y1="311.606" x2="324.163" y2="316.093" gradientUnits="userSpaceOnUse">
<stop stop-color="#FCFDFD"/>
<stop offset="0.16" stop-color="#EAEEF2"/>
<stop offset="0.33" stop-color="#DFE5EC"/>
<stop offset="0.51" stop-color="#DCE2EA"/>
<stop offset="0.67" stop-color="#DFE4EC"/>
<stop offset="0.82" stop-color="#EAEDF2"/>
<stop offset="0.95" stop-color="#FCFCFD"/>
<stop offset="0.97" stop-color="white"/>
</linearGradient>
<linearGradient id="paint9_linear_1_603" x1="726.971" y1="285.844" x2="278.149" y2="290.332" gradientUnits="userSpaceOnUse">
<stop stop-color="#FCFDFD"/>
<stop offset="0.16" stop-color="#EAEEF2"/>
<stop offset="0.33" stop-color="#DFE5EC"/>
<stop offset="0.51" stop-color="#DCE2EA"/>
<stop offset="0.67" stop-color="#DFE4EC"/>
<stop offset="0.82" stop-color="#EAEDF2"/>
<stop offset="0.95" stop-color="#FCFCFD"/>
<stop offset="0.97" stop-color="white"/>
</linearGradient>
<linearGradient id="paint10_linear_1_603" x1="676.416" y1="260.092" x2="231.149" y2="264.544" gradientUnits="userSpaceOnUse">
<stop stop-color="#FCFDFD"/>
<stop offset="0.16" stop-color="#EAEEF2"/>
<stop offset="0.33" stop-color="#DFE5EC"/>
<stop offset="0.51" stop-color="#DCE2EA"/>
<stop offset="0.67" stop-color="#DFE4EC"/>
<stop offset="0.82" stop-color="#EAEDF2"/>
<stop offset="0.95" stop-color="#FCFCFD"/>
<stop offset="0.97" stop-color="white"/>
</linearGradient>
<linearGradient id="paint11_linear_1_603" x1="634.934" y1="234.33" x2="186.119" y2="238.817" gradientUnits="userSpaceOnUse">
<stop stop-color="#FCFDFD"/>
<stop offset="0.16" stop-color="#EAEEF2"/>
<stop offset="0.33" stop-color="#DFE5EC"/>
<stop offset="0.51" stop-color="#DCE2EA"/>
<stop offset="0.67" stop-color="#DFE4EC"/>
<stop offset="0.82" stop-color="#EAEDF2"/>
<stop offset="0.95" stop-color="#FCFCFD"/>
<stop offset="0.97" stop-color="white"/>
</linearGradient>
<linearGradient id="paint12_linear_1_603" x1="588.921" y1="208.569" x2="140.098" y2="213.056" gradientUnits="userSpaceOnUse">
<stop stop-color="#FCFDFD"/>
<stop offset="0.16" stop-color="#EAEEF2"/>
<stop offset="0.33" stop-color="#DFE5EC"/>
<stop offset="0.51" stop-color="#DCE2EA"/>
<stop offset="0.67" stop-color="#DFE4EC"/>
<stop offset="0.82" stop-color="#EAEDF2"/>
<stop offset="0.95" stop-color="#FCFCFD"/>
<stop offset="0.97" stop-color="white"/>
</linearGradient>
<linearGradient id="paint13_linear_1_603" x1="542.907" y1="182.808" x2="94.0853" y2="187.295" gradientUnits="userSpaceOnUse">
<stop stop-color="#FCFDFD"/>
<stop offset="0.16" stop-color="#EAEEF2"/>
<stop offset="0.33" stop-color="#DFE5EC"/>
<stop offset="0.51" stop-color="#DCE2EA"/>
<stop offset="0.67" stop-color="#DFE4EC"/>
<stop offset="0.82" stop-color="#EAEDF2"/>
<stop offset="0.95" stop-color="#FCFCFD"/>
<stop offset="0.97" stop-color="white"/>
</linearGradient>
<linearGradient id="paint14_linear_1_603" x1="496.892" y1="157.054" x2="48.0699" y2="161.541" gradientUnits="userSpaceOnUse">
<stop stop-color="#FCFDFD"/>
<stop offset="0.16" stop-color="#EAEEF2"/>
<stop offset="0.33" stop-color="#DFE5EC"/>
<stop offset="0.51" stop-color="#DCE2EA"/>
<stop offset="0.67" stop-color="#DFE4EC"/>
<stop offset="0.82" stop-color="#EAEDF2"/>
<stop offset="0.95" stop-color="#FCFCFD"/>
<stop offset="0.97" stop-color="white"/>
</linearGradient>
<linearGradient id="paint15_linear_1_603" x1="450.87" y1="131.293" x2="2.05528" y2="135.78" gradientUnits="userSpaceOnUse">
<stop stop-color="#FCFDFD"/>
<stop offset="0.16" stop-color="#EAEEF2"/>
<stop offset="0.33" stop-color="#DFE5EC"/>
<stop offset="0.51" stop-color="#DCE2EA"/>
<stop offset="0.67" stop-color="#DFE4EC"/>
<stop offset="0.82" stop-color="#EAEDF2"/>
<stop offset="0.95" stop-color="#FCFCFD"/>
<stop offset="0.97" stop-color="white"/>
</linearGradient>
<linearGradient id="paint16_linear_1_603" x1="544.622" y1="346.102" x2="569.677" y2="346.102" gradientUnits="userSpaceOnUse">
<stop stop-color="#DCE2EA"/>
<stop offset="0.8" stop-color="#F3F5F8"/>
</linearGradient>
<linearGradient id="paint17_linear_1_603" x1="523.074" y1="366.715" x2="569.871" y2="366.715" gradientUnits="userSpaceOnUse">
<stop stop-color="#DCE2EA"/>
<stop offset="0.8" stop-color="#F3F5F8"/>
</linearGradient>
<linearGradient id="paint18_linear_1_603" x1="706.985" y1="32.6375" x2="740.734" y2="32.6375" gradientUnits="userSpaceOnUse">
<stop stop-color="#DCE2EA"/>
<stop offset="0.8" stop-color="#F3F5F8"/>
</linearGradient>
<linearGradient id="paint19_linear_1_603" x1="1507.61" y1="318.67" x2="1935.67" y2="314.39" gradientUnits="userSpaceOnUse">
<stop stop-color="#FCFDFD"/>
<stop offset="0.16" stop-color="#EAEEF2"/>
<stop offset="0.33" stop-color="#DFE5EC"/>
<stop offset="0.51" stop-color="#DCE2EA"/>
<stop offset="0.67" stop-color="#DFE4EC"/>
<stop offset="0.82" stop-color="#EAEDF2"/>
<stop offset="0.95" stop-color="#FCFCFD"/>
<stop offset="0.97" stop-color="white"/>
</linearGradient>
<linearGradient id="paint20_linear_1_603" x1="1553.11" y1="292.001" x2="1981.16" y2="287.722" gradientUnits="userSpaceOnUse">
<stop stop-color="#FCFDFD"/>
<stop offset="0.16" stop-color="#EAEEF2"/>
<stop offset="0.33" stop-color="#DFE5EC"/>
<stop offset="0.51" stop-color="#DCE2EA"/>
<stop offset="0.67" stop-color="#DFE4EC"/>
<stop offset="0.82" stop-color="#EAEDF2"/>
<stop offset="0.95" stop-color="#FCFCFD"/>
<stop offset="0.97" stop-color="white"/>
</linearGradient>
<linearGradient id="paint21_linear_1_603" x1="1598.6" y1="265.326" x2="2026.65" y2="261.046" gradientUnits="userSpaceOnUse">
<stop stop-color="#FCFDFD"/>
<stop offset="0.16" stop-color="#EAEEF2"/>
<stop offset="0.33" stop-color="#DFE5EC"/>
<stop offset="0.51" stop-color="#DCE2EA"/>
<stop offset="0.67" stop-color="#DFE4EC"/>
<stop offset="0.82" stop-color="#EAEDF2"/>
<stop offset="0.95" stop-color="#FCFCFD"/>
<stop offset="0.97" stop-color="white"/>
</linearGradient>
<linearGradient id="paint22_linear_1_603" x1="1644.09" y1="238.65" x2="2072.14" y2="234.37" gradientUnits="userSpaceOnUse">
<stop stop-color="#FCFDFD"/>
<stop offset="0.16" stop-color="#EAEEF2"/>
<stop offset="0.33" stop-color="#DFE5EC"/>
<stop offset="0.51" stop-color="#DCE2EA"/>
<stop offset="0.67" stop-color="#DFE4EC"/>
<stop offset="0.82" stop-color="#EAEDF2"/>
<stop offset="0.95" stop-color="#FCFCFD"/>
<stop offset="0.97" stop-color="white"/>
</linearGradient>
<linearGradient id="paint23_linear_1_603" x1="1689.58" y1="211.981" x2="2117.64" y2="207.701" gradientUnits="userSpaceOnUse">
<stop stop-color="#FCFDFD"/>
<stop offset="0.16" stop-color="#EAEEF2"/>
<stop offset="0.33" stop-color="#DFE5EC"/>
<stop offset="0.51" stop-color="#DCE2EA"/>
<stop offset="0.67" stop-color="#DFE4EC"/>
<stop offset="0.82" stop-color="#EAEDF2"/>
<stop offset="0.95" stop-color="#FCFCFD"/>
<stop offset="0.97" stop-color="white"/>
</linearGradient>
<linearGradient id="paint24_linear_1_603" x1="1735.07" y1="185.305" x2="2163.13" y2="181.025" gradientUnits="userSpaceOnUse">
<stop stop-color="#FCFDFD"/>
<stop offset="0.16" stop-color="#EAEEF2"/>
<stop offset="0.33" stop-color="#DFE5EC"/>
<stop offset="0.51" stop-color="#DCE2EA"/>
<stop offset="0.67" stop-color="#DFE4EC"/>
<stop offset="0.82" stop-color="#EAEDF2"/>
<stop offset="0.95" stop-color="#FCFCFD"/>
<stop offset="0.97" stop-color="white"/>
</linearGradient>
<linearGradient id="paint25_linear_1_603" x1="1780.56" y1="158.629" x2="2208.62" y2="154.349" gradientUnits="userSpaceOnUse">
<stop stop-color="#FCFDFD"/>
<stop offset="0.16" stop-color="#EAEEF2"/>
<stop offset="0.33" stop-color="#DFE5EC"/>
<stop offset="0.51" stop-color="#DCE2EA"/>
<stop offset="0.67" stop-color="#DFE4EC"/>
<stop offset="0.82" stop-color="#EAEDF2"/>
<stop offset="0.95" stop-color="#FCFCFD"/>
<stop offset="0.97" stop-color="white"/>
</linearGradient>
<linearGradient id="paint26_linear_1_603" x1="1826.05" y1="131.96" x2="2254.11" y2="127.68" gradientUnits="userSpaceOnUse">
<stop stop-color="#FCFDFD"/>
<stop offset="0.16" stop-color="#EAEEF2"/>
<stop offset="0.33" stop-color="#DFE5EC"/>
<stop offset="0.51" stop-color="#DCE2EA"/>
<stop offset="0.67" stop-color="#DFE4EC"/>
<stop offset="0.82" stop-color="#EAEDF2"/>
<stop offset="0.95" stop-color="#FCFCFD"/>
<stop offset="0.97" stop-color="white"/>
</linearGradient>
<linearGradient id="paint27_linear_1_603" x1="2235.5" y1="311.606" x2="1786.68" y2="316.093" gradientUnits="userSpaceOnUse">
<stop stop-color="#FCFDFD"/>
<stop offset="0.16" stop-color="#EAEEF2"/>
<stop offset="0.33" stop-color="#DFE5EC"/>
<stop offset="0.51" stop-color="#DCE2EA"/>
<stop offset="0.67" stop-color="#DFE4EC"/>
<stop offset="0.82" stop-color="#EAEDF2"/>
<stop offset="0.95" stop-color="#FCFCFD"/>
<stop offset="0.97" stop-color="white"/>
</linearGradient>
<linearGradient id="paint28_linear_1_603" x1="2189.49" y1="285.844" x2="1740.67" y2="290.332" gradientUnits="userSpaceOnUse">
<stop stop-color="#FCFDFD"/>
<stop offset="0.16" stop-color="#EAEEF2"/>
<stop offset="0.33" stop-color="#DFE5EC"/>
<stop offset="0.51" stop-color="#DCE2EA"/>
<stop offset="0.67" stop-color="#DFE4EC"/>
<stop offset="0.82" stop-color="#EAEDF2"/>
<stop offset="0.95" stop-color="#FCFCFD"/>
<stop offset="0.97" stop-color="white"/>
</linearGradient>
<linearGradient id="paint29_linear_1_603" x1="2138.93" y1="260.092" x2="1693.67" y2="264.544" gradientUnits="userSpaceOnUse">
<stop stop-color="#FCFDFD"/>
<stop offset="0.16" stop-color="#EAEEF2"/>
<stop offset="0.33" stop-color="#DFE5EC"/>
<stop offset="0.51" stop-color="#DCE2EA"/>
<stop offset="0.67" stop-color="#DFE4EC"/>
<stop offset="0.82" stop-color="#EAEDF2"/>
<stop offset="0.95" stop-color="#FCFCFD"/>
<stop offset="0.97" stop-color="white"/>
</linearGradient>
<linearGradient id="paint30_linear_1_603" x1="2097.45" y1="234.33" x2="1648.64" y2="238.817" gradientUnits="userSpaceOnUse">
<stop stop-color="#FCFDFD"/>
<stop offset="0.16" stop-color="#EAEEF2"/>
<stop offset="0.33" stop-color="#DFE5EC"/>
<stop offset="0.51" stop-color="#DCE2EA"/>
<stop offset="0.67" stop-color="#DFE4EC"/>
<stop offset="0.82" stop-color="#EAEDF2"/>
<stop offset="0.95" stop-color="#FCFCFD"/>
<stop offset="0.97" stop-color="white"/>
</linearGradient>
<linearGradient id="paint31_linear_1_603" x1="2051.44" y1="208.569" x2="1602.62" y2="213.056" gradientUnits="userSpaceOnUse">
<stop stop-color="#FCFDFD"/>
<stop offset="0.16" stop-color="#EAEEF2"/>
<stop offset="0.33" stop-color="#DFE5EC"/>
<stop offset="0.51" stop-color="#DCE2EA"/>
<stop offset="0.67" stop-color="#DFE4EC"/>
<stop offset="0.82" stop-color="#EAEDF2"/>
<stop offset="0.95" stop-color="#FCFCFD"/>
<stop offset="0.97" stop-color="white"/>
</linearGradient>
<linearGradient id="paint32_linear_1_603" x1="2005.42" y1="182.808" x2="1556.6" y2="187.295" gradientUnits="userSpaceOnUse">
<stop stop-color="#FCFDFD"/>
<stop offset="0.16" stop-color="#EAEEF2"/>
<stop offset="0.33" stop-color="#DFE5EC"/>
<stop offset="0.51" stop-color="#DCE2EA"/>
<stop offset="0.67" stop-color="#DFE4EC"/>
<stop offset="0.82" stop-color="#EAEDF2"/>
<stop offset="0.95" stop-color="#FCFCFD"/>
<stop offset="0.97" stop-color="white"/>
</linearGradient>
<linearGradient id="paint33_linear_1_603" x1="1959.41" y1="157.054" x2="1510.59" y2="161.541" gradientUnits="userSpaceOnUse">
<stop stop-color="#FCFDFD"/>
<stop offset="0.16" stop-color="#EAEEF2"/>
<stop offset="0.33" stop-color="#DFE5EC"/>
<stop offset="0.51" stop-color="#DCE2EA"/>
<stop offset="0.67" stop-color="#DFE4EC"/>
<stop offset="0.82" stop-color="#EAEDF2"/>
<stop offset="0.95" stop-color="#FCFCFD"/>
<stop offset="0.97" stop-color="white"/>
</linearGradient>
<linearGradient id="paint34_linear_1_603" x1="1913.39" y1="131.293" x2="1464.57" y2="135.78" gradientUnits="userSpaceOnUse">
<stop stop-color="#FCFDFD"/>
<stop offset="0.16" stop-color="#EAEEF2"/>
<stop offset="0.33" stop-color="#DFE5EC"/>
<stop offset="0.51" stop-color="#DCE2EA"/>
<stop offset="0.67" stop-color="#DFE4EC"/>
<stop offset="0.82" stop-color="#EAEDF2"/>
<stop offset="0.95" stop-color="#FCFCFD"/>
<stop offset="0.97" stop-color="white"/>
</linearGradient>
<linearGradient id="paint35_linear_1_603" x1="1481.35" y1="303.527" x2="1535.03" y2="303.527" gradientUnits="userSpaceOnUse">
<stop stop-color="#DCE2EA"/>
<stop offset="0.8" stop-color="#F3F5F8"/>
</linearGradient>
<linearGradient id="paint36_linear_1_603" x1="605.385" y1="244.336" x2="615.233" y2="244.336" gradientUnits="userSpaceOnUse">
<stop stop-color="#DCE2EA"/>
<stop offset="0.8" stop-color="#F3F5F8"/>
</linearGradient>
<linearGradient id="paint37_linear_1_603" x1="529.753" y1="212.621" x2="646.057" y2="212.621" gradientUnits="userSpaceOnUse">
<stop stop-color="#DCE2EA"/>
<stop offset="0.8" stop-color="#F3F5F8"/>
</linearGradient>
<clipPath id="clip0_1_603">
<rect width="789.59" height="438.934" fill="white" transform="translate(0.772461 8.0817) rotate(-0.572843)"/>
</clipPath>
<clipPath id="clip1_1_603">
<rect width="46" height="52" fill="white" transform="translate(700.981 4.3107)"/>
</clipPath>
<clipPath id="clip2_1_603">
<rect width="789.59" height="438.934" fill="white" transform="translate(1463.29 8.0817) rotate(-0.572843)"/>
</clipPath>
<clipPath id="clip3_1_603">
<rect width="385" height="300" fill="white" transform="translate(1524.99 68.2829)"/>
</clipPath>
<clipPath id="clip4_1_603">
<rect width="62" height="74" fill="white" transform="translate(1473.32 267.428)"/>
</clipPath>
<clipPath id="clip5_1_603">
<rect width="228" height="285" fill="white" transform="translate(327.344 71.9469)"/>
</clipPath>
<clipPath id="clip6_1_603">
<rect width="120" height="130" fill="white" transform="translate(529.344 147.947)"/>
</clipPath>
</defs>
</svg>
