<svg width="795" height="447" viewBox="0 0 795 447" fill="none" xmlns="http://www.w3.org/2000/svg">
<g clip-path="url(#clip0_0_1)">
<path d="M44.2216 195.989L474.028 436.704" stroke="url(#paint0_linear_0_1)" stroke-width="1.40319" stroke-miterlimit="10"/>
<path d="M89.7109 169.32L519.517 410.028" stroke="url(#paint1_linear_0_1)" stroke-width="1.40319" stroke-miterlimit="10"/>
<path d="M135.202 142.644L565.015 383.352" stroke="url(#paint2_linear_0_1)" stroke-width="1.40319" stroke-miterlimit="10"/>
<path d="M180.698 115.968L610.504 356.676" stroke="url(#paint3_linear_0_1)" stroke-width="1.40319" stroke-miterlimit="10"/>
<path d="M226.189 89.2997L655.995 330.007" stroke="url(#paint4_linear_0_1)" stroke-width="1.40319" stroke-miterlimit="10"/>
<path d="M271.678 62.6237L701.484 303.331" stroke="url(#paint5_linear_0_1)" stroke-width="1.40319" stroke-miterlimit="10"/>
<path d="M317.168 35.9478L746.981 276.655" stroke="url(#paint6_linear_0_1)" stroke-width="1.40319" stroke-miterlimit="10"/>
<path d="M362.666 9.27896L792.472 249.986" stroke="url(#paint7_linear_0_1)" stroke-width="1.40319" stroke-miterlimit="10"/>
<path d="M771.369 184.333L325.786 442.991" stroke="url(#paint8_linear_0_1)" stroke-width="1.40319" stroke-miterlimit="10"/>
<path d="M725.355 158.571L279.765 417.23" stroke="url(#paint9_linear_0_1)" stroke-width="1.40319" stroke-miterlimit="10"/>
<path d="M674.768 130.314L232.805 393.939" stroke="url(#paint10_linear_0_1)" stroke-width="1.40319" stroke-miterlimit="10"/>
<path d="M633.318 107.057L187.735 365.715" stroke="url(#paint11_linear_0_1)" stroke-width="1.40319" stroke-miterlimit="10"/>
<path d="M587.305 81.2957L141.722 339.954" stroke="url(#paint12_linear_0_1)" stroke-width="1.40319" stroke-miterlimit="10"/>
<path d="M541.291 55.5346L95.7086 314.193" stroke="url(#paint13_linear_0_1)" stroke-width="1.40319" stroke-miterlimit="10"/>
<path d="M495.276 29.7809L49.6859 288.439" stroke="url(#paint14_linear_0_1)" stroke-width="1.40319" stroke-miterlimit="10"/>
<path d="M449.254 4.0199L3.67124 262.678" stroke="url(#paint15_linear_0_1)" stroke-width="1.40319" stroke-miterlimit="10"/>
<path d="M455.241 160.442C456.786 161.315 456.807 162.748 455.288 163.652L451.359 165.991C449.84 166.895 447.364 166.92 445.813 166.046L441.808 163.787C440.264 162.921 440.242 161.481 441.761 160.577L445.69 158.238C447.21 157.334 449.685 157.309 451.229 158.182L455.234 160.442L455.241 160.442Z" fill="#E8ECF1"/>
<path d="M317.733 82.9623C319.278 83.8358 319.299 85.2683 317.78 86.1724L313.851 88.5113C312.332 89.4155 309.856 89.4402 308.305 88.5668L304.3 86.3072C302.756 85.441 302.734 84.0013 304.253 83.0971L308.182 80.7582C309.701 79.8541 312.177 79.8293 313.721 80.7028L317.726 82.9624L317.733 82.9623Z" fill="#E8ECF1"/>
<path d="M226.53 136.015C228.074 136.889 228.096 138.321 226.577 139.225L222.648 141.564C221.129 142.468 218.653 142.493 217.101 141.62L213.097 139.36C211.553 138.494 211.531 137.054 213.05 136.15L216.979 133.811C218.498 132.907 220.974 132.882 222.518 133.756L226.523 136.015L226.53 136.015Z" fill="#E8ECF1"/>
<path d="M407.976 30.786C409.52 31.6595 409.541 33.092 408.022 33.9961L404.093 36.335C402.574 37.2392 400.098 37.2639 398.547 36.3904L394.542 34.1309C392.998 33.2647 392.976 31.8249 394.495 30.9208L398.425 28.5819C399.944 27.6777 402.419 27.653 403.964 28.5265L407.968 30.7861L407.976 30.786Z" fill="#E8ECF1"/>
<path d="M639.264 210.824C640.808 211.698 640.83 213.13 639.311 214.034L635.381 216.373C633.862 217.277 631.387 217.302 629.835 216.428L625.83 214.169C624.286 213.303 624.264 211.863 625.784 210.959L629.713 208.62C631.232 207.716 633.708 207.691 635.252 208.564L639.256 210.824L639.264 210.824Z" fill="#E8ECF1"/>
<path d="M593.533 289.93C595.077 290.803 595.099 292.236 593.58 293.14L589.651 295.479C588.132 296.383 585.656 296.408 584.104 295.534L580.1 293.275C578.556 292.409 578.534 290.969 580.053 290.065L583.982 287.726C585.501 286.822 587.977 286.797 589.521 287.67L593.526 289.93L593.533 289.93Z" fill="#E8ECF1"/>
<path d="M455.549 316.076C457.093 316.949 457.115 318.382 455.596 319.286L451.666 321.625C450.147 322.529 447.672 322.554 446.12 321.68L442.115 319.421C440.571 318.555 440.549 317.115 442.069 316.211L445.998 313.872C447.517 312.968 449.993 312.943 451.537 313.816L455.541 316.076L455.549 316.076Z" fill="#E8ECF1"/>
<path d="M456.303 369.4C457.847 370.273 457.869 371.706 456.35 372.61L452.42 374.949C450.901 375.853 448.425 375.878 446.874 375.004L442.869 372.745C441.325 371.878 441.303 370.439 442.823 369.534L446.752 367.196C448.271 366.291 450.747 366.267 452.291 367.14L456.295 369.4L456.303 369.4Z" fill="#E8ECF1"/>
<path d="M274.061 318.647C275.605 319.521 275.626 320.953 274.107 321.857L270.178 324.196C268.659 325.1 266.183 325.125 264.632 324.252L260.627 321.992C259.083 321.126 259.061 319.686 260.58 318.782L264.51 316.443C266.029 315.539 268.504 315.514 270.049 316.388L274.053 318.647L274.061 318.647Z" fill="#E8ECF1"/>
<path d="M89.5555 214.836C91.0997 215.71 91.1214 217.142 89.6023 218.046L85.673 220.385C84.1539 221.289 81.6783 221.314 80.1267 220.44L76.122 218.181C74.5779 217.315 74.5561 215.875 76.0753 214.971L80.0045 212.632C81.5236 211.728 83.9993 211.703 85.5435 212.577L89.5481 214.836L89.5555 214.836Z" fill="#E8ECF1"/>
<path d="M544.687 358.19C544.708 358.093 544.73 358.007 544.751 357.921C544.783 357.813 544.805 357.706 544.848 357.598C544.88 357.512 544.923 357.426 544.956 357.34C545.009 357.232 545.052 357.114 545.117 357.006C545.16 356.931 545.214 356.845 545.257 356.77C545.332 356.641 545.418 356.522 545.504 356.393C545.558 356.318 545.623 356.253 545.676 356.178C545.816 356.017 545.967 355.844 546.128 355.694C546.193 355.64 546.247 355.575 546.3 355.522C546.408 355.425 546.515 355.339 546.634 355.253C546.731 355.177 546.827 355.091 546.935 355.016C547.053 354.93 547.193 354.844 547.322 354.758C547.451 354.672 547.581 354.586 547.731 354.5L569.645 341.762L569.666 332.995L547.753 345.732C547.753 345.732 547.667 345.786 547.624 345.807C547.527 345.872 547.441 345.936 547.344 345.99C547.215 346.076 547.075 346.162 546.957 346.248C546.849 346.324 546.752 346.41 546.655 346.485C546.548 346.571 546.429 346.668 546.322 346.754C546.3 346.776 546.279 346.786 546.257 346.808C546.214 346.851 546.182 346.883 546.15 346.926C545.988 347.088 545.838 347.249 545.698 347.41C545.666 347.443 545.623 347.486 545.601 347.518C545.569 347.55 545.558 347.593 545.526 347.625C545.429 347.744 545.354 347.873 545.278 348.002C545.246 348.056 545.203 348.11 545.171 348.163C545.16 348.185 545.149 348.217 545.128 348.249C545.063 348.357 545.02 348.475 544.966 348.583C544.934 348.647 544.902 348.712 544.88 348.776C544.88 348.798 544.87 348.82 544.859 348.841C544.816 348.949 544.794 349.056 544.762 349.164C544.74 349.239 544.719 349.304 544.697 349.379C544.697 349.4 544.697 349.422 544.697 349.433C544.676 349.54 544.665 349.659 544.654 349.766C544.654 349.842 544.633 349.917 544.633 349.981C544.633 350.014 544.633 350.046 544.633 350.078L544.611 358.846C544.611 358.738 544.633 358.631 544.633 358.534C544.633 358.426 544.654 358.308 544.676 358.2L544.687 358.19Z" fill="url(#paint16_linear_0_1)" stroke="#010E3E" stroke-width="1.33325" stroke-linecap="round" stroke-linejoin="round"/>
<path d="M557.811 374.24L528.152 357.114C524.774 355.167 523.096 352.606 523.096 350.057L523.074 358.824C523.074 361.374 524.752 363.934 528.13 365.882L557.801 383.008L569.86 376.005L569.882 367.237L557.822 374.24L557.811 374.24Z" fill="url(#paint17_linear_0_1)" stroke="#010E3E" stroke-width="1.33325" stroke-linecap="round" stroke-linejoin="round"/>
<path d="M569.677 332.973L547.763 345.71C543.589 348.142 543.611 352.068 547.817 354.5L569.871 367.237L557.811 374.24L528.152 357.114C521.449 353.241 521.417 346.969 528.076 343.096L557.542 325.97L569.677 332.973Z" fill="white" stroke="#010E3E" stroke-width="1.33325" stroke-linecap="round" stroke-linejoin="round"/>
</g>
<g clip-path="url(#clip1_0_1)">
<path d="M710.38 16.7175C710.285 16.6745 710.191 16.6387 710.096 16.61C709.958 16.5598 709.826 16.5097 709.695 16.4738C709.608 16.4523 709.528 16.4237 709.44 16.4021C709.36 16.3806 709.287 16.3663 709.207 16.352C709.105 16.3305 709.003 16.3161 708.908 16.309C708.85 16.309 708.792 16.2946 708.741 16.2946C708.617 16.2875 708.493 16.2803 708.377 16.2946C708.347 16.2946 708.318 16.2946 708.296 16.2946C708.151 16.3018 708.012 16.3233 707.874 16.3448C707.837 16.3448 707.808 16.3591 707.772 16.3663C707.662 16.3878 707.56 16.4165 707.458 16.4523C707.429 16.4667 707.393 16.4738 707.364 16.4882C707.233 16.5383 707.109 16.5957 706.992 16.6602L718.125 10.2883C718.125 10.2883 718.147 10.274 718.154 10.274C718.249 10.2238 718.344 10.1736 718.438 10.1378C718.453 10.1306 718.475 10.1235 718.497 10.1163C718.526 10.102 718.562 10.0948 718.591 10.0805C718.642 10.0661 718.686 10.0446 718.737 10.0303C718.788 10.016 718.846 10.0088 718.905 9.99446C718.941 9.98729 718.97 9.98013 719.007 9.97296C719.029 9.97296 719.043 9.96579 719.058 9.95862C719.167 9.93712 719.284 9.92279 719.4 9.91562C719.407 9.91562 719.415 9.91562 719.422 9.91562C719.451 9.91562 719.48 9.91562 719.502 9.91562C719.59 9.91562 719.684 9.91562 719.772 9.91562C719.801 9.91562 719.837 9.92279 719.867 9.92279C719.925 9.92279 719.983 9.92995 720.034 9.93712C720.085 9.93712 720.136 9.94429 720.194 9.95146C720.238 9.95146 720.289 9.97296 720.34 9.98013C720.42 9.99446 720.493 10.0088 720.573 10.0303C720.617 10.0375 720.653 10.0446 720.697 10.059C720.741 10.0733 720.785 10.0876 720.828 10.102C720.959 10.1378 721.091 10.188 721.229 10.2382C721.28 10.2597 721.324 10.2668 721.367 10.2883C721.411 10.3098 721.462 10.3313 721.506 10.3528C721.55 10.3743 721.593 10.3958 721.637 10.4102C721.812 10.489 721.979 10.575 722.162 10.6754L735.043 17.9933C735.225 18.1008 735.407 18.2083 735.582 18.3302C735.641 18.3732 735.699 18.4162 735.757 18.452C735.874 18.538 735.998 18.6241 736.114 18.7172C736.18 18.7674 736.245 18.8247 736.311 18.8749C736.42 18.9609 736.53 19.0541 736.632 19.1544C736.697 19.2118 736.763 19.2691 736.821 19.3336C736.857 19.3695 736.901 19.4053 736.945 19.4411C736.989 19.4841 737.025 19.5272 737.069 19.5702C737.2 19.6992 737.324 19.8282 737.448 19.9644C737.484 20.0074 737.528 20.0504 737.571 20.0934C737.608 20.1292 737.637 20.1722 737.666 20.2081C737.739 20.2941 737.812 20.3801 737.885 20.4733C737.936 20.5306 737.979 20.5879 738.03 20.6453C738.067 20.6954 738.103 20.7456 738.14 20.7958C738.191 20.8675 738.249 20.932 738.3 21.0036C738.336 21.0538 738.373 21.0968 738.409 21.147C738.468 21.233 738.526 21.319 738.584 21.405C738.621 21.4552 738.657 21.5125 738.693 21.5627C738.708 21.5842 738.723 21.6057 738.737 21.6272C738.839 21.7849 738.934 21.9426 739.029 22.1003C739.029 22.1146 739.043 22.1218 739.05 22.1361C739.072 22.1719 739.087 22.2006 739.109 22.2364C739.174 22.3511 739.24 22.4586 739.298 22.5733C739.327 22.6307 739.356 22.6808 739.386 22.7382C739.415 22.7955 739.444 22.8528 739.473 22.903C739.495 22.9532 739.524 22.9962 739.546 23.0464C739.611 23.1825 739.677 23.3187 739.735 23.4549C739.743 23.4764 739.757 23.4979 739.764 23.5194C739.764 23.5194 739.764 23.5337 739.772 23.5409C739.845 23.7058 739.917 23.8778 739.983 24.0426C739.998 24.0713 740.005 24.1071 740.02 24.1358C740.041 24.2003 740.063 24.2577 740.085 24.3222C740.114 24.4082 740.151 24.487 740.173 24.573C740.194 24.6375 740.216 24.7092 740.231 24.7737C740.253 24.8526 740.282 24.9242 740.304 25.0031C740.318 25.0532 740.333 25.0963 740.347 25.1464C740.369 25.2324 740.391 25.3184 740.413 25.4045C740.435 25.4976 740.464 25.598 740.486 25.6911C740.493 25.727 740.5 25.7557 740.508 25.7915C740.522 25.8632 740.53 25.9277 740.544 25.9993C740.573 26.1499 740.602 26.3004 740.624 26.4509C740.624 26.4939 740.639 26.5369 740.646 26.5727C740.661 26.6659 740.668 26.7591 740.675 26.8523C740.675 26.9168 740.69 26.9813 740.697 27.053C740.712 27.2608 740.726 27.4687 740.719 27.6765L740.668 45.0289C740.668 46.7921 740.027 48.0392 739.007 48.6269L727.867 54.9916C728.887 54.4039 729.528 53.1639 729.528 51.3936L729.579 34.0412C729.579 33.8405 729.571 33.6327 729.557 33.4248C729.557 33.3603 729.542 33.2886 729.535 33.2241C729.52 33.0879 729.506 32.9589 729.484 32.8227C729.462 32.6722 729.433 32.5217 729.404 32.3712C729.382 32.2709 729.367 32.1705 729.346 32.0702C729.324 31.977 729.302 31.8766 729.273 31.7835C729.236 31.6473 729.207 31.5183 729.163 31.3821C729.142 31.3033 729.12 31.2244 729.091 31.1527C729.04 31.0022 728.989 30.8517 728.938 30.7084C728.916 30.6438 728.894 30.5865 728.872 30.522C728.792 30.3141 728.712 30.1135 728.617 29.9056C728.61 29.8841 728.595 29.8626 728.588 29.8411C728.508 29.6547 728.42 29.4756 728.326 29.2964C728.296 29.239 728.267 29.1817 728.238 29.1244C728.151 28.9523 728.056 28.7875 727.961 28.6226C727.939 28.5868 727.925 28.5581 727.903 28.5223C727.786 28.3288 727.67 28.1352 727.546 27.9489C727.509 27.8916 727.473 27.8414 727.437 27.7912C727.342 27.655 727.254 27.526 727.152 27.3898C727.101 27.3182 727.043 27.2465 726.992 27.1748C726.912 27.0673 726.825 26.9598 726.737 26.8523C726.664 26.7591 726.591 26.6731 726.519 26.5871C726.446 26.5082 726.373 26.4222 726.3 26.3434C726.176 26.2072 726.052 26.0782 725.921 25.9492C725.841 25.8703 725.761 25.7915 725.681 25.7127C725.615 25.6553 725.557 25.598 725.491 25.5335C725.382 25.4403 725.28 25.3471 725.171 25.2539C725.105 25.2038 725.04 25.1464 724.974 25.0963C724.857 25.0031 724.734 24.9171 724.617 24.8311C724.559 24.7881 724.5 24.745 724.442 24.7092C724.26 24.5874 724.085 24.4727 723.903 24.3723L711.036 17.0472C710.861 16.9469 710.686 16.8609 710.511 16.782C710.468 16.7605 710.424 16.739 710.373 16.7247L710.38 16.7175Z" fill="url(#paint18_linear_0_1)" stroke="#010E3E" stroke-width="1.33" stroke-linecap="round" stroke-linejoin="round"/>
<path d="M711.034 17.0471C707.893 15.2624 705.336 16.6959 705.322 20.2509L705.271 37.6033C705.263 41.1583 707.799 45.4875 710.946 47.2722L723.828 54.5901C726.968 56.3748 729.526 54.9342 729.54 51.3863L729.591 34.0339C729.598 30.4717 727.063 26.1497 723.915 24.365L711.034 17.0471Z" fill="white" stroke="#010E3E" stroke-width="1.33" stroke-miterlimit="10"/>
</g>
<g clip-path="url(#clip2_0_1)">
<path d="M540.853 73.4446C540.853 73.4446 540.783 73.4047 540.753 73.3848C540.713 73.3648 540.673 73.3449 540.633 73.3249C540.404 73.2053 540.165 73.0856 539.925 72.9759C539.886 72.956 539.836 72.9261 539.796 72.9161C539.756 72.8961 539.716 72.8862 539.686 72.8762C539.407 72.7665 539.118 72.6568 538.819 72.5671C538.809 72.5671 538.799 72.5671 538.789 72.5571C538.48 72.4673 538.161 72.3975 537.831 72.3377C537.792 72.3377 537.762 72.3178 537.722 72.3078C537.672 72.3078 537.622 72.3078 537.572 72.2879C537.293 72.248 537.004 72.2081 536.705 72.1881C536.655 72.1881 536.615 72.1782 536.565 72.1682C536.545 72.1682 536.535 72.1682 536.515 72.1682C536.156 72.1482 535.777 72.1482 535.408 72.1682C535.368 72.1682 535.339 72.1682 535.299 72.1682C535.249 72.1682 535.199 72.1782 535.149 72.1782C534.73 72.1981 534.302 72.238 533.863 72.3078C533.344 72.3876 532.816 72.5072 532.277 72.6468C532.247 72.6468 532.217 72.6568 532.188 72.6668C532.168 72.6668 532.148 72.6768 532.128 72.6867C531.789 72.7765 531.44 72.8862 531.091 73.0058C531.021 73.0258 530.951 73.0557 530.891 73.0856C530.612 73.1853 530.323 73.295 530.034 73.4147C529.994 73.4346 529.964 73.4446 529.924 73.4546C529.854 73.4845 529.784 73.5244 529.715 73.5543C529.415 73.6839 529.106 73.8235 528.797 73.9731C528.678 74.033 528.568 74.0828 528.448 74.1426C528.049 74.3421 527.641 74.5615 527.232 74.7908L346.817 178.938C346.199 179.297 345.591 179.686 344.992 180.095C344.793 180.225 344.603 180.374 344.414 180.514C344.005 180.803 343.606 181.102 343.207 181.422C342.988 181.601 342.769 181.78 342.549 181.96C342.18 182.269 341.821 182.578 341.462 182.907C341.243 183.107 341.034 183.306 340.814 183.516C340.685 183.645 340.545 183.765 340.405 183.895C340.266 184.034 340.136 184.194 339.997 184.333C339.568 184.772 339.139 185.231 338.72 185.69C338.591 185.839 338.441 185.969 338.311 186.128C338.202 186.258 338.102 186.388 337.992 186.517C337.743 186.816 337.494 187.116 337.244 187.425C337.085 187.624 336.915 187.814 336.756 188.023C336.626 188.192 336.507 188.362 336.377 188.532C336.197 188.771 336.018 189.01 335.848 189.25C335.729 189.419 335.599 189.579 335.48 189.748C335.28 190.037 335.091 190.327 334.901 190.616C334.782 190.795 334.652 190.985 334.532 191.164C334.482 191.244 334.423 191.314 334.373 191.394C334.034 191.922 333.705 192.47 333.385 193.009C333.366 193.049 333.346 193.079 333.326 193.119C333.266 193.228 333.206 193.338 333.136 193.448C332.917 193.837 332.697 194.226 332.488 194.614C332.388 194.794 332.299 194.983 332.209 195.173C332.109 195.362 332.009 195.552 331.92 195.741C331.84 195.911 331.75 196.07 331.67 196.24C331.451 196.689 331.252 197.147 331.052 197.596C331.012 197.676 330.982 197.756 330.942 197.835C330.942 197.855 330.923 197.875 330.913 197.895C330.663 198.464 330.434 199.042 330.215 199.61C330.175 199.72 330.145 199.82 330.105 199.93C330.025 200.139 329.955 200.348 329.876 200.568C329.776 200.857 329.666 201.136 329.566 201.425C329.487 201.655 329.427 201.874 329.357 202.103C329.277 202.363 329.197 202.632 329.118 202.891C329.068 203.051 329.018 203.21 328.968 203.38C328.888 203.669 328.829 203.968 328.749 204.257C328.669 204.586 328.579 204.916 328.509 205.235C328.48 205.344 328.45 205.464 328.43 205.574C328.32 206.112 328.22 206.651 328.131 207.189C328.111 207.299 328.101 207.409 328.081 207.518C328.041 207.758 328.001 207.997 327.971 208.226C327.931 208.545 327.911 208.864 327.881 209.184C327.861 209.413 327.831 209.632 327.811 209.862C327.762 210.57 327.722 211.278 327.722 211.976L328.051 338.022C328.071 344.055 330.195 348.303 333.635 350.307L341.831 355.074C338.391 353.08 336.267 348.832 336.247 342.789L335.918 216.742C335.918 216.044 335.948 215.336 335.998 214.628C336.018 214.399 336.038 214.18 336.068 213.95C336.118 213.402 336.187 212.843 336.267 212.285C336.287 212.175 336.297 212.065 336.317 211.956C336.427 211.308 336.556 210.659 336.696 210.001C336.766 209.672 336.856 209.353 336.935 209.024C337.055 208.565 337.165 208.107 337.304 207.658C337.384 207.399 337.464 207.129 337.544 206.87C337.703 206.361 337.873 205.843 338.052 205.334C338.132 205.125 338.202 204.916 338.282 204.706C338.551 203.998 338.82 203.3 339.129 202.602C339.169 202.522 339.199 202.442 339.239 202.363C339.518 201.734 339.807 201.116 340.116 200.508C340.216 200.318 340.306 200.129 340.405 199.93C340.705 199.351 341.014 198.773 341.333 198.204C341.393 198.095 341.452 197.975 341.522 197.865C341.911 197.197 342.31 196.549 342.729 195.911C342.848 195.721 342.978 195.542 343.098 195.352C343.407 194.894 343.726 194.435 344.045 193.986C344.225 193.747 344.394 193.508 344.574 193.268C344.853 192.889 345.142 192.53 345.441 192.161C345.69 191.852 345.93 191.553 346.189 191.254C346.428 190.975 346.678 190.705 346.917 190.426C347.336 189.958 347.754 189.509 348.193 189.07C348.462 188.791 348.732 188.522 349.011 188.252C349.22 188.043 349.44 187.843 349.659 187.654C350.018 187.325 350.377 187.016 350.736 186.707C350.955 186.527 351.175 186.338 351.394 186.168C351.793 185.849 352.192 185.56 352.601 185.261C352.79 185.121 352.989 184.972 353.179 184.842C353.777 184.433 354.386 184.034 355.004 183.685L535.428 79.5475C535.837 79.3081 536.246 79.0987 536.645 78.8893C536.764 78.8295 536.874 78.7796 536.984 78.7198C537.293 78.5702 537.602 78.4306 537.901 78.301C538.011 78.2511 538.111 78.2112 538.22 78.1614C538.51 78.0417 538.789 77.932 539.078 77.8323C539.148 77.8123 539.208 77.7824 539.277 77.7625C539.626 77.6428 539.965 77.5331 540.314 77.4434C540.364 77.4334 540.414 77.4234 540.464 77.4035C541.002 77.2639 541.531 77.1442 542.049 77.0644C542.488 76.9946 542.907 76.9548 543.326 76.9348C543.406 76.9348 543.495 76.9248 543.575 76.9248C543.954 76.9149 544.323 76.9149 544.682 76.9248C544.742 76.9248 544.812 76.9348 544.871 76.9448C545.161 76.9647 545.45 77.0046 545.739 77.0445C545.829 77.0545 545.918 77.0744 546.008 77.0844C546.337 77.1442 546.656 77.214 546.965 77.3038C546.985 77.3038 546.995 77.3137 547.005 77.3137C547.294 77.4035 547.584 77.5032 547.863 77.6129C547.943 77.6428 548.022 77.6827 548.112 77.7126C548.351 77.8223 548.591 77.932 548.82 78.0616C548.9 78.1015 548.98 78.1414 549.049 78.1813L540.853 73.4147V73.4446Z" fill="#DCE2EA" stroke="#010E3E" stroke-width="1.33" stroke-linecap="round" stroke-linejoin="round"/>
<path d="M535.429 79.5476C546.008 73.4447 554.604 78.331 554.644 90.4869L554.973 216.533C555.003 228.679 546.467 243.487 535.887 249.59L355.473 353.758C344.893 359.861 336.298 354.965 336.268 342.809L335.939 216.762C335.909 204.607 344.444 189.818 355.024 183.705L535.429 79.5476Z" fill="white" stroke="#010E3E" stroke-width="1.33325" stroke-linecap="round" stroke-linejoin="round"/>
<path d="M519.804 130.265C519.933 130.205 520.073 130.155 520.203 130.106C520.392 130.036 520.582 129.966 520.771 129.906C520.891 129.866 521.01 129.836 521.13 129.806C521.24 129.777 521.349 129.757 521.459 129.737C521.599 129.707 521.748 129.687 521.888 129.667C521.968 129.667 522.047 129.647 522.127 129.647C522.297 129.637 522.476 129.627 522.636 129.637C522.676 129.637 522.715 129.637 522.755 129.637C522.955 129.647 523.154 129.677 523.344 129.707C523.394 129.707 523.433 129.727 523.483 129.737C523.633 129.767 523.782 129.816 523.922 129.866C523.962 129.886 524.012 129.896 524.052 129.916C524.231 129.986 524.411 130.066 524.58 130.165L508.915 121.061C508.915 121.061 508.885 121.041 508.875 121.031C508.745 120.961 508.616 120.891 508.476 120.832C508.446 120.822 508.426 120.812 508.396 120.802C508.356 120.782 508.307 120.772 508.257 120.752C508.187 120.732 508.117 120.702 508.047 120.682C507.968 120.662 507.888 120.642 507.818 120.632C507.768 120.622 507.728 120.612 507.678 120.602C507.649 120.602 507.629 120.592 507.599 120.582C507.439 120.552 507.28 120.532 507.12 120.523C507.11 120.523 507.1 120.523 507.09 120.523C507.05 120.523 507.01 120.523 506.97 120.523C506.841 120.523 506.721 120.523 506.592 120.523C506.552 120.523 506.502 120.532 506.462 120.532C506.382 120.532 506.302 120.542 506.223 120.552C506.153 120.552 506.073 120.562 506.003 120.572C505.933 120.582 505.864 120.602 505.804 120.612C505.694 120.632 505.584 120.652 505.475 120.682C505.415 120.692 505.355 120.702 505.295 120.722C505.235 120.742 505.176 120.762 505.116 120.782C504.926 120.842 504.747 120.901 504.547 120.981C504.478 121.011 504.418 121.021 504.348 121.051C504.278 121.081 504.218 121.111 504.148 121.141C504.089 121.171 504.019 121.201 503.959 121.231C503.72 121.34 503.47 121.47 503.221 121.609L485.113 132.06C484.854 132.21 484.604 132.369 484.345 132.549C484.265 132.609 484.186 132.668 484.106 132.728C483.936 132.848 483.767 132.978 483.597 133.107C483.507 133.177 483.418 133.257 483.318 133.337C483.168 133.466 483.019 133.596 482.869 133.735C482.78 133.815 482.69 133.905 482.6 133.985C482.54 134.035 482.48 134.084 482.431 134.144C482.371 134.204 482.321 134.264 482.261 134.324C482.082 134.503 481.902 134.693 481.733 134.892C481.673 134.952 481.613 135.012 481.563 135.072C481.513 135.122 481.473 135.181 481.433 135.231C481.324 135.351 481.224 135.481 481.124 135.61C481.054 135.69 480.985 135.77 480.915 135.859C480.865 135.929 480.815 135.999 480.755 136.069C480.686 136.169 480.606 136.268 480.536 136.368C480.486 136.438 480.436 136.508 480.386 136.577C480.307 136.697 480.227 136.817 480.147 136.936C480.097 137.016 480.047 137.086 479.988 137.166C479.968 137.196 479.948 137.226 479.918 137.266C479.778 137.485 479.639 137.714 479.509 137.944C479.509 137.964 479.489 137.974 479.479 137.993C479.449 138.043 479.429 138.083 479.399 138.133C479.309 138.293 479.21 138.462 479.13 138.622C479.09 138.701 479.05 138.781 479.01 138.851C478.97 138.931 478.931 139.011 478.891 139.09C478.861 139.16 478.821 139.23 478.781 139.3C478.691 139.489 478.601 139.679 478.522 139.868C478.512 139.898 478.492 139.928 478.482 139.958C478.482 139.958 478.482 139.978 478.472 139.988C478.372 140.227 478.272 140.467 478.183 140.706C478.163 140.756 478.153 140.796 478.133 140.845C478.103 140.935 478.073 141.015 478.043 141.105C478.003 141.224 477.953 141.344 477.913 141.464C477.884 141.553 477.854 141.653 477.824 141.743C477.794 141.853 477.754 141.962 477.724 142.072C477.704 142.142 477.684 142.202 477.664 142.271C477.634 142.391 477.604 142.521 477.574 142.64C477.544 142.78 477.505 142.91 477.475 143.049C477.465 143.099 477.455 143.139 477.445 143.189C477.425 143.289 477.415 143.388 477.395 143.488C477.355 143.707 477.315 143.917 477.285 144.126C477.285 144.186 477.265 144.246 477.255 144.306C477.235 144.435 477.225 144.575 477.215 144.705C477.215 144.804 477.195 144.894 477.186 144.994C477.166 145.293 477.146 145.592 477.146 145.881L477.345 215.496C477.345 217.7 478.033 219.345 479.17 220.273C479.329 220.402 479.499 220.522 479.678 220.632L495.344 229.736C493.908 228.898 493.01 227.123 493.01 224.6L492.811 154.986C492.811 154.697 492.821 154.397 492.851 154.098C492.851 153.999 492.871 153.909 492.881 153.809C492.901 153.62 492.921 153.43 492.95 153.231C492.98 153.021 493.02 152.802 493.06 152.592C493.09 152.443 493.11 152.303 493.15 152.154C493.18 152.014 493.22 151.884 493.25 151.745C493.299 151.555 493.349 151.366 493.399 151.176C493.429 151.067 493.469 150.957 493.499 150.847C493.569 150.638 493.639 150.419 493.708 150.209C493.738 150.119 493.768 150.03 493.808 149.94C493.918 149.641 494.037 149.352 494.167 149.062C494.177 149.032 494.197 149.003 494.207 148.963C494.327 148.703 494.446 148.444 494.576 148.185C494.616 148.105 494.656 148.025 494.695 147.946C494.815 147.706 494.945 147.467 495.084 147.228C495.114 147.178 495.134 147.128 495.164 147.088C495.324 146.809 495.493 146.539 495.663 146.27C495.713 146.19 495.762 146.111 495.822 146.041C495.952 145.851 496.082 145.662 496.221 145.472C496.291 145.373 496.371 145.273 496.441 145.173C496.56 145.014 496.68 144.864 496.799 144.715C496.899 144.585 497.009 144.455 497.109 144.336C497.208 144.216 497.308 144.106 497.408 143.997C497.587 143.797 497.757 143.608 497.946 143.428C498.056 143.309 498.176 143.199 498.285 143.089C498.375 142.999 498.465 142.92 498.554 142.84C498.704 142.7 498.854 142.571 499.003 142.441C499.093 142.361 499.183 142.291 499.272 142.212C499.442 142.082 499.611 141.952 499.781 141.833C499.861 141.773 499.941 141.713 500.02 141.653C500.27 141.484 500.529 141.314 500.788 141.165L518.896 130.714C519.146 130.574 519.385 130.445 519.634 130.335C519.694 130.305 519.764 130.275 519.824 130.245L519.804 130.265Z" fill="#DCE2EA" stroke="#010E3E" stroke-width="1.33" stroke-linecap="round" stroke-linejoin="round"/>
<path d="M518.876 130.734C523.303 128.181 526.893 130.225 526.913 135.311L527.112 204.926C527.122 210.001 523.553 216.194 519.125 218.757L501.017 229.208C496.59 231.76 493 229.706 492.98 224.63L492.78 155.016C492.77 149.93 496.34 143.747 500.768 141.185L518.876 130.734Z" fill="white" stroke="#010E3E" stroke-width="1.33" stroke-miterlimit="10"/>
<path d="M471.523 183.855C471.712 183.785 471.901 183.715 472.091 183.655C472.211 183.615 472.33 183.586 472.45 183.556C472.56 183.526 472.669 183.506 472.779 183.486C472.919 183.456 473.068 183.436 473.208 183.416C473.288 183.416 473.367 183.396 473.447 183.396C473.627 183.386 473.796 183.376 473.966 183.386C474.005 183.386 474.045 183.386 474.085 183.386C474.285 183.396 474.484 183.426 474.674 183.466C474.723 183.466 474.773 183.486 474.813 183.496C474.963 183.526 475.112 183.576 475.252 183.625C475.302 183.645 475.342 183.655 475.391 183.675C475.571 183.745 475.75 183.825 475.92 183.925L460.255 174.82C460.255 174.82 460.225 174.8 460.215 174.79C460.085 174.72 459.946 174.651 459.816 174.591C459.786 174.581 459.766 174.571 459.736 174.561C459.696 174.541 459.646 174.531 459.597 174.511C459.527 174.491 459.457 174.461 459.387 174.441C459.317 174.421 459.238 174.401 459.158 174.391C459.108 174.381 459.068 174.371 459.018 174.361C458.988 174.361 458.968 174.351 458.939 174.341C458.779 174.312 458.619 174.292 458.45 174.282C458.45 174.282 458.43 174.282 458.42 174.282C458.38 174.282 458.34 174.282 458.3 174.282C458.171 174.282 458.051 174.282 457.911 174.282C457.872 174.282 457.822 174.292 457.782 174.292C457.702 174.292 457.622 174.302 457.542 174.312C457.463 174.312 457.393 174.322 457.313 174.332C457.243 174.332 457.184 174.361 457.114 174.371C457.004 174.391 456.894 174.411 456.785 174.441C456.725 174.451 456.665 174.461 456.605 174.481C456.545 174.501 456.486 174.521 456.426 174.541C456.236 174.601 456.057 174.661 455.857 174.73C455.788 174.76 455.728 174.77 455.658 174.8C455.618 174.82 455.578 174.84 455.548 174.86C455.219 175 454.88 175.159 454.541 175.359L436.433 185.809C436.174 185.959 435.924 186.118 435.665 186.298C435.585 186.358 435.505 186.418 435.426 186.467C435.256 186.587 435.087 186.717 434.917 186.846C434.827 186.916 434.738 186.996 434.648 187.076C434.498 187.205 434.339 187.335 434.189 187.475C434.099 187.554 434.01 187.644 433.92 187.724C433.86 187.774 433.81 187.824 433.75 187.883C433.691 187.943 433.641 188.003 433.581 188.063C433.401 188.242 433.222 188.432 433.052 188.631C432.993 188.691 432.933 188.751 432.883 188.811C432.833 188.861 432.793 188.921 432.743 188.98C432.634 189.1 432.534 189.23 432.434 189.359C432.364 189.439 432.295 189.519 432.235 189.609C432.185 189.678 432.125 189.748 432.075 189.828C431.995 189.928 431.926 190.027 431.856 190.127C431.806 190.197 431.756 190.267 431.706 190.337C431.627 190.456 431.547 190.586 431.457 190.706C431.407 190.785 431.357 190.855 431.307 190.935C431.287 190.965 431.268 190.995 431.248 191.035C431.108 191.254 430.968 191.483 430.829 191.713C430.829 191.733 430.809 191.743 430.799 191.763C430.769 191.812 430.749 191.852 430.719 191.902C430.629 192.062 430.54 192.221 430.45 192.391C430.41 192.471 430.37 192.55 430.33 192.62C430.29 192.7 430.25 192.78 430.211 192.86C430.181 192.929 430.141 192.999 430.111 193.069C430.021 193.258 429.931 193.448 429.852 193.637C429.842 193.667 429.822 193.697 429.812 193.737C429.812 193.737 429.812 193.757 429.802 193.767C429.702 194.006 429.602 194.246 429.513 194.485C429.493 194.525 429.483 194.575 429.463 194.615C429.433 194.704 429.403 194.794 429.363 194.884C429.323 195.003 429.273 195.123 429.233 195.243C429.203 195.333 429.174 195.432 429.144 195.522C429.114 195.632 429.074 195.741 429.044 195.851C429.024 195.921 429.004 195.991 428.984 196.051C428.954 196.17 428.924 196.29 428.894 196.42C428.864 196.559 428.825 196.699 428.795 196.828C428.785 196.878 428.775 196.918 428.765 196.968C428.745 197.068 428.735 197.167 428.715 197.257C428.675 197.467 428.635 197.686 428.605 197.895C428.605 197.955 428.585 198.015 428.575 198.075C428.575 198.135 428.575 198.185 428.565 198.234C428.505 198.713 428.476 199.182 428.476 199.64L428.605 243.657C428.605 246.18 429.503 247.955 430.938 248.792L446.604 257.897C445.168 257.059 444.27 255.284 444.27 252.761L444.141 208.745C444.141 208.286 444.181 207.818 444.231 207.339C444.24 207.229 444.25 207.109 444.27 207C444.3 206.79 444.34 206.571 444.38 206.362C444.41 206.212 444.43 206.072 444.47 205.923C444.5 205.783 444.54 205.654 444.57 205.514C444.619 205.325 444.669 205.135 444.719 204.946C444.749 204.836 444.789 204.726 444.819 204.616C444.889 204.407 444.958 204.188 445.038 203.978C445.068 203.889 445.098 203.799 445.138 203.709C445.248 203.41 445.367 203.121 445.497 202.832C445.507 202.802 445.527 202.772 445.537 202.732C445.656 202.473 445.776 202.213 445.906 201.954C445.946 201.874 445.986 201.794 446.025 201.715C446.155 201.475 446.285 201.236 446.414 200.997C446.444 200.947 446.464 200.907 446.494 200.857C446.654 200.578 446.823 200.309 447.003 200.039C447.052 199.96 447.102 199.89 447.152 199.81C447.282 199.621 447.411 199.421 447.551 199.242C447.621 199.142 447.701 199.042 447.77 198.942C447.89 198.783 448.01 198.633 448.129 198.484C448.229 198.354 448.339 198.224 448.438 198.105C448.538 197.985 448.638 197.875 448.748 197.756C448.917 197.566 449.097 197.377 449.276 197.187C449.386 197.078 449.505 196.958 449.615 196.848C449.705 196.759 449.795 196.679 449.884 196.599C450.034 196.459 450.184 196.33 450.343 196.2C450.433 196.12 450.523 196.051 450.612 195.971C450.782 195.841 450.951 195.711 451.121 195.592C451.201 195.532 451.28 195.472 451.36 195.412C451.609 195.243 451.869 195.073 452.128 194.924L470.236 184.473C470.575 184.274 470.914 184.114 471.243 183.974C471.353 183.925 471.453 183.885 471.552 183.845L471.523 183.855Z" fill="#5F38FB" stroke="#010E3E" stroke-width="1.33" stroke-miterlimit="10"/>
<path d="M470.206 184.483C474.623 181.93 478.223 183.984 478.243 189.06L478.372 233.067C478.382 238.142 474.812 244.345 470.385 246.898L452.277 257.348C447.85 259.901 444.26 257.847 444.24 252.771L444.11 208.765C444.1 203.689 447.67 197.496 452.097 194.934L470.206 184.483Z" fill="#8671FF" stroke="#010E3E" stroke-width="1.33" stroke-miterlimit="10"/>
<path d="M421.745 231.77C421.874 231.71 422.014 231.66 422.143 231.61C422.333 231.541 422.522 231.471 422.712 231.411C422.832 231.371 422.951 231.341 423.071 231.311C423.181 231.281 423.29 231.261 423.4 231.241C423.54 231.211 423.679 231.192 423.819 231.172C423.898 231.172 423.978 231.152 424.058 231.152C424.228 231.142 424.407 231.132 424.567 231.142C424.606 231.142 424.646 231.142 424.686 231.142C424.886 231.152 425.085 231.182 425.275 231.211C425.324 231.211 425.364 231.231 425.414 231.241C425.564 231.271 425.713 231.321 425.853 231.371C425.903 231.391 425.943 231.401 425.993 231.421C426.172 231.491 426.351 231.57 426.521 231.67L410.856 222.566C410.856 222.566 410.826 222.546 410.816 222.536C410.686 222.466 410.557 222.396 410.417 222.336C410.387 222.326 410.367 222.316 410.337 222.306C410.297 222.287 410.247 222.277 410.198 222.257C410.128 222.237 410.058 222.207 409.988 222.187C409.908 222.167 409.839 222.147 409.759 222.137C409.709 222.127 409.669 222.117 409.619 222.107C409.589 222.107 409.569 222.097 409.54 222.087C409.38 222.057 409.22 222.037 409.061 222.027C409.051 222.027 409.041 222.027 409.031 222.027C408.991 222.027 408.951 222.027 408.911 222.027C408.782 222.027 408.662 222.027 408.532 222.027C408.492 222.027 408.443 222.037 408.403 222.037C408.323 222.037 408.243 222.047 408.163 222.057C408.084 222.057 408.014 222.067 407.944 222.077C407.874 222.087 407.814 222.107 407.745 222.117C407.635 222.137 407.525 222.157 407.416 222.187C407.356 222.197 407.296 222.207 407.236 222.227C407.176 222.247 407.116 222.267 407.057 222.287C406.867 222.346 406.688 222.406 406.488 222.486C406.418 222.516 406.359 222.526 406.289 222.556C406.219 222.586 406.159 222.616 406.089 222.646C406.03 222.675 405.96 222.705 405.9 222.735C405.661 222.845 405.411 222.975 405.162 223.114L387.054 233.575C386.794 233.724 386.545 233.884 386.296 234.063C386.216 234.123 386.136 234.183 386.057 234.243C385.887 234.363 385.718 234.492 385.558 234.622C385.468 234.692 385.379 234.771 385.279 234.851C385.129 234.981 384.98 235.111 384.83 235.25C384.74 235.33 384.651 235.42 384.561 235.499C384.501 235.549 384.451 235.599 384.391 235.659C384.332 235.719 384.282 235.779 384.222 235.838C384.042 236.018 383.863 236.207 383.693 236.407C383.634 236.467 383.574 236.527 383.524 236.586C383.474 236.636 383.434 236.696 383.384 236.756C383.275 236.876 383.175 237.005 383.075 237.135C383.005 237.215 382.936 237.294 382.876 237.384C382.826 237.454 382.766 237.524 382.716 237.604C382.646 237.703 382.567 237.803 382.497 237.903C382.447 237.972 382.397 238.042 382.347 238.112C382.267 238.232 382.188 238.361 382.098 238.481C382.048 238.561 381.998 238.631 381.948 238.71C381.928 238.74 381.908 238.77 381.888 238.81C381.749 239.03 381.609 239.259 381.48 239.488C381.48 239.508 381.46 239.518 381.45 239.538C381.42 239.588 381.4 239.638 381.37 239.688C381.28 239.847 381.19 240.007 381.101 240.166C381.061 240.246 381.021 240.326 380.981 240.396C380.941 240.475 380.901 240.555 380.861 240.635C380.832 240.705 380.792 240.775 380.752 240.844C380.662 241.034 380.572 241.233 380.483 241.423C380.473 241.453 380.453 241.483 380.443 241.513C380.443 241.513 380.443 241.532 380.433 241.542C380.333 241.782 380.233 242.021 380.143 242.26C380.124 242.31 380.114 242.35 380.094 242.4C380.064 242.49 380.034 242.58 380.004 242.659C379.964 242.779 379.914 242.899 379.874 243.018C379.844 243.118 379.814 243.208 379.785 243.308C379.755 243.417 379.715 243.527 379.685 243.637C379.665 243.706 379.645 243.766 379.625 243.836C379.595 243.956 379.565 244.085 379.535 244.205C379.505 244.345 379.465 244.474 379.436 244.614C379.426 244.664 379.416 244.704 379.406 244.753C379.386 244.853 379.376 244.953 379.356 245.053C379.316 245.272 379.276 245.481 379.246 245.691C379.246 245.751 379.226 245.81 379.216 245.87C379.196 246 379.186 246.14 379.176 246.269C379.176 246.359 379.156 246.459 379.146 246.548C379.126 246.848 379.106 247.147 379.106 247.436L379.176 272.246C379.176 274.769 380.074 276.554 381.51 277.382L397.175 286.486C395.739 285.649 394.841 283.874 394.841 281.351L394.772 256.54C394.772 256.251 394.782 255.952 394.812 255.653C394.812 255.563 394.832 255.463 394.841 255.364C394.861 255.174 394.881 254.985 394.911 254.785C394.941 254.576 394.981 254.356 395.021 254.147C395.051 253.998 395.071 253.858 395.101 253.708C395.131 253.569 395.171 253.439 395.2 253.299C395.25 253.11 395.3 252.921 395.35 252.731C395.38 252.621 395.42 252.512 395.45 252.402C395.52 252.193 395.589 251.973 395.659 251.764C395.689 251.674 395.719 251.584 395.759 251.495C395.869 251.195 395.988 250.906 396.118 250.617C396.128 250.587 396.148 250.557 396.158 250.527C396.277 250.268 396.397 250.009 396.527 249.749C396.567 249.67 396.606 249.59 396.646 249.51C396.766 249.271 396.896 249.031 397.035 248.792C397.065 248.742 397.085 248.692 397.115 248.643C397.275 248.363 397.444 248.094 397.614 247.825C397.663 247.745 397.713 247.675 397.763 247.595C397.893 247.406 398.022 247.217 398.162 247.027C398.232 246.927 398.312 246.828 398.391 246.718C398.511 246.558 398.631 246.409 398.75 246.259C398.85 246.13 398.96 246 399.059 245.88C399.159 245.761 399.259 245.651 399.369 245.531C399.538 245.332 399.718 245.152 399.897 244.963C400.007 244.853 400.126 244.734 400.236 244.624C400.326 244.534 400.416 244.454 400.505 244.375C400.655 244.235 400.804 244.105 400.954 243.976C401.044 243.896 401.134 243.826 401.223 243.746C401.393 243.617 401.562 243.487 401.732 243.367C401.812 243.308 401.891 243.248 401.971 243.188C402.22 243.018 402.48 242.849 402.739 242.699L420.847 232.239C421.096 232.099 421.336 231.969 421.585 231.86C421.645 231.83 421.715 231.8 421.775 231.77H421.745Z" fill="#DCE2EA" stroke="#010E3E" stroke-width="1.33" stroke-linecap="round" stroke-linejoin="round"/>
<path d="M420.827 232.239C425.244 229.686 428.844 231.74 428.854 236.826L428.924 261.637C428.934 266.712 425.364 272.905 420.946 275.458L402.838 285.918C398.421 288.471 394.821 286.417 394.811 281.331L394.741 256.521C394.731 251.435 398.301 245.253 402.718 242.7L420.827 232.239Z" fill="white" stroke="#010E3E" stroke-width="1.33" stroke-miterlimit="10"/>
</g>
<g clip-path="url(#clip3_0_1)">
<path d="M605.385 232.548L605.439 250.11L615.233 255.75L615.19 238.199L605.385 232.548Z" fill="url(#paint19_linear_0_1)" stroke="#010E3E" stroke-width="1.33" stroke-linecap="round" stroke-linejoin="round"/>
<path d="M640.487 154.537C640.649 154.472 640.8 154.408 640.951 154.355C641.177 154.269 641.392 154.195 641.608 154.131C641.748 154.088 641.888 154.045 642.028 154.013C642.157 153.981 642.287 153.96 642.416 153.928C642.577 153.896 642.75 153.874 642.911 153.853C643.008 153.853 643.105 153.832 643.192 153.821C643.396 153.81 643.59 153.799 643.784 153.81C643.827 153.81 643.881 153.81 643.924 153.81C644.161 153.821 644.387 153.853 644.614 153.896C644.668 153.906 644.721 153.917 644.775 153.938C644.948 153.981 645.12 154.024 645.293 154.088C645.346 154.109 645.4 154.12 645.454 154.141C645.67 154.227 645.874 154.312 646.068 154.43L636.264 148.779C636.264 148.779 636.232 148.758 636.21 148.747C636.059 148.661 635.898 148.587 635.747 148.522C635.714 148.512 635.682 148.501 635.65 148.49C635.596 148.469 635.542 148.458 635.488 148.437C635.402 148.405 635.327 148.373 635.24 148.352C635.154 148.33 635.057 148.309 634.971 148.287C634.917 148.277 634.863 148.255 634.809 148.245C634.777 148.245 634.756 148.234 634.723 148.223C634.54 148.191 634.357 148.17 634.163 148.159C634.152 148.159 634.141 148.159 634.131 148.159C634.088 148.159 634.034 148.159 633.991 148.159C633.84 148.159 633.7 148.159 633.549 148.159C633.495 148.159 633.441 148.17 633.398 148.17C633.301 148.17 633.215 148.191 633.118 148.202C633.032 148.202 632.946 148.213 632.859 148.223C632.784 148.234 632.698 148.255 632.622 148.277C632.493 148.298 632.375 148.33 632.245 148.362C632.181 148.384 632.105 148.384 632.041 148.405C631.976 148.426 631.901 148.458 631.836 148.48C631.62 148.544 631.394 148.619 631.179 148.704C631.103 148.736 631.028 148.747 630.942 148.779C630.866 148.811 630.791 148.854 630.705 148.886C630.629 148.918 630.554 148.95 630.478 148.982C630.198 149.11 629.907 149.26 629.616 149.42L539.051 201.271C538.749 201.442 538.458 201.634 538.157 201.826C538.06 201.89 537.973 201.965 537.876 202.029C537.683 202.168 537.478 202.318 537.284 202.467C537.176 202.553 537.068 202.638 536.961 202.724C536.788 202.873 536.605 203.023 536.433 203.183C536.325 203.279 536.217 203.375 536.12 203.471C536.056 203.535 535.991 203.589 535.926 203.653C535.862 203.717 535.797 203.792 535.722 203.867C535.506 204.08 535.301 204.294 535.097 204.518C535.032 204.593 534.967 204.657 534.903 204.732C534.849 204.796 534.795 204.86 534.741 204.924C534.623 205.063 534.493 205.212 534.375 205.362C534.299 205.458 534.213 205.554 534.138 205.65C534.073 205.736 534.019 205.811 533.955 205.896C533.869 206.014 533.782 206.131 533.696 206.249C533.642 206.334 533.578 206.409 533.513 206.484C533.416 206.623 533.319 206.761 533.233 206.9C533.168 206.986 533.114 207.082 533.05 207.167C533.028 207.21 532.996 207.242 532.974 207.274C532.813 207.531 532.651 207.798 532.489 208.054C532.489 208.075 532.468 208.086 532.457 208.107C532.425 208.161 532.393 208.214 532.36 208.268C532.252 208.449 532.145 208.641 532.048 208.834C532.005 208.919 531.962 209.015 531.908 209.101C531.865 209.197 531.811 209.282 531.768 209.379C531.725 209.464 531.681 209.539 531.638 209.624C531.531 209.838 531.434 210.062 531.337 210.276C531.315 210.319 531.304 210.351 531.283 210.393C531.283 210.404 531.283 210.415 531.272 210.425C531.154 210.703 531.035 210.981 530.927 211.259C530.906 211.312 530.895 211.365 530.873 211.408C530.83 211.515 530.798 211.611 530.766 211.718C530.712 211.857 530.658 211.996 530.615 212.134C530.582 212.241 530.55 212.348 530.518 212.455C530.475 212.583 530.442 212.711 530.399 212.84C530.378 212.914 530.345 213 530.324 213.075C530.281 213.213 530.259 213.352 530.216 213.502C530.173 213.662 530.13 213.822 530.098 213.972C530.087 214.025 530.065 214.079 530.055 214.132C530.033 214.25 530.022 214.356 530.001 214.474C529.958 214.72 529.904 214.965 529.871 215.211C529.871 215.275 529.85 215.35 529.839 215.414C529.818 215.574 529.807 215.724 529.796 215.873C529.796 215.98 529.774 216.087 529.764 216.204C529.742 216.546 529.721 216.888 529.721 217.23L529.861 265.096C529.861 268.013 530.906 270.064 532.586 271.036L542.391 276.687C540.71 275.725 539.676 273.663 539.665 270.747L539.525 222.881C539.525 222.539 539.536 222.197 539.568 221.855C539.568 221.748 539.589 221.642 539.6 221.524C539.622 221.3 539.654 221.086 539.686 220.862C539.719 220.616 539.762 220.37 539.816 220.125C539.848 219.954 539.88 219.794 539.913 219.623C539.945 219.462 539.988 219.302 540.031 219.153C540.085 218.928 540.139 218.715 540.204 218.49C540.236 218.362 540.279 218.234 540.322 218.106C540.398 217.86 540.484 217.614 540.57 217.369C540.602 217.273 540.645 217.166 540.678 217.07C540.807 216.728 540.947 216.386 541.087 216.055C541.109 216.012 541.119 215.98 541.141 215.937C541.281 215.638 541.421 215.339 541.572 215.04C541.615 214.944 541.669 214.858 541.712 214.762C541.863 214.485 542.014 214.207 542.164 213.929C542.197 213.876 542.218 213.822 542.251 213.769C542.434 213.448 542.639 213.128 542.843 212.818C542.897 212.733 542.962 212.637 543.026 212.551C543.177 212.327 543.328 212.102 543.49 211.889C543.576 211.771 543.662 211.654 543.748 211.536C543.888 211.355 544.028 211.184 544.168 211.002C544.287 210.853 544.405 210.703 544.535 210.564C544.653 210.425 544.772 210.297 544.89 210.169C545.095 209.945 545.3 209.72 545.515 209.507C545.644 209.379 545.774 209.24 545.914 209.111C546.022 209.015 546.118 208.919 546.226 208.823C546.399 208.663 546.582 208.513 546.754 208.364C546.862 208.278 546.97 208.193 547.067 208.107C547.261 207.958 547.454 207.808 547.659 207.669C547.756 207.605 547.842 207.531 547.939 207.466C548.23 207.263 548.532 207.082 548.834 206.9L639.41 155.081C639.701 154.921 639.981 154.772 640.272 154.643C640.347 154.611 640.423 154.579 640.498 154.547L640.487 154.537Z" fill="url(#paint20_linear_0_1)" stroke="#010E3E" stroke-width="1.33" stroke-linecap="round" stroke-linejoin="round"/>
<path d="M639.412 155.082C644.572 152.123 648.763 154.494 648.785 160.369L648.925 208.236C648.946 214.111 644.777 221.257 639.616 224.216L631.072 229.109L615.235 255.761L615.181 238.21L549.04 276.067C543.89 279.015 539.688 276.655 539.677 270.78L539.537 222.913C539.516 217.038 543.685 209.892 548.846 206.933L639.412 155.082Z" fill="#DCE2EA" stroke="#010E3E" stroke-width="1.33" stroke-linecap="round" stroke-linejoin="round"/>
<path d="M599.672 214.26L599.672 214.26L556.641 238.893L556.638 238.895C556.049 239.228 555.479 239.833 555.055 240.563C554.632 241.293 554.39 242.086 554.39 242.759C554.39 242.759 554.39 242.759 554.39 242.76L554.411 249.229C554.411 249.229 554.411 249.229 554.411 249.23C554.416 249.903 554.651 250.203 554.844 250.313C555.04 250.424 555.427 250.472 556.022 250.13L556.023 250.13L599.053 225.498L599.672 214.26ZM599.672 214.26C600.268 213.918 600.655 213.967 600.851 214.077M599.672 214.26L600.851 214.077M600.851 214.077C601.044 214.187 601.279 214.487 601.284 215.16M600.851 214.077L601.284 215.16M601.284 215.16C601.284 215.161 601.284 215.161 601.284 215.162M601.284 215.16L601.284 215.162M601.284 215.162L601.305 221.63C601.305 221.631 601.305 221.631 601.305 221.632C601.305 222.303 601.064 223.094 600.64 223.823C600.216 224.551 599.646 225.157 599.054 225.497L601.284 215.162Z" fill="#5F38FB" stroke="#010E3E" stroke-width="1.33"/>
<path d="M632.019 175.292C633.883 174.224 635.402 175.089 635.413 177.204V181.894C635.434 184.019 633.926 186.615 632.062 187.683L557.076 230.604C555.212 231.672 553.693 230.807 553.682 228.681V223.992C553.66 221.866 555.169 219.27 557.033 218.213L632.019 175.292Z" fill="white" stroke="#010E3E" stroke-width="1.33" stroke-miterlimit="10"/>
</g>
<defs>
<linearGradient id="paint0_linear_0_1" x1="45.0936" y1="318.483" x2="473.155" y2="314.203" gradientUnits="userSpaceOnUse">
<stop stop-color="#FCFDFD"/>
<stop offset="0.16" stop-color="#EAEEF2"/>
<stop offset="0.33" stop-color="#DFE5EC"/>
<stop offset="0.51" stop-color="#DCE2EA"/>
<stop offset="0.67" stop-color="#DFE4EC"/>
<stop offset="0.82" stop-color="#EAEDF2"/>
<stop offset="0.95" stop-color="#FCFCFD"/>
<stop offset="0.97" stop-color="white"/>
</linearGradient>
<linearGradient id="paint1_linear_0_1" x1="90.5904" y1="291.814" x2="518.645" y2="287.534" gradientUnits="userSpaceOnUse">
<stop stop-color="#FCFDFD"/>
<stop offset="0.16" stop-color="#EAEEF2"/>
<stop offset="0.33" stop-color="#DFE5EC"/>
<stop offset="0.51" stop-color="#DCE2EA"/>
<stop offset="0.67" stop-color="#DFE4EC"/>
<stop offset="0.82" stop-color="#EAEDF2"/>
<stop offset="0.95" stop-color="#FCFCFD"/>
<stop offset="0.97" stop-color="white"/>
</linearGradient>
<linearGradient id="paint2_linear_0_1" x1="136.082" y1="265.138" x2="564.136" y2="260.858" gradientUnits="userSpaceOnUse">
<stop stop-color="#FCFDFD"/>
<stop offset="0.16" stop-color="#EAEEF2"/>
<stop offset="0.33" stop-color="#DFE5EC"/>
<stop offset="0.51" stop-color="#DCE2EA"/>
<stop offset="0.67" stop-color="#DFE4EC"/>
<stop offset="0.82" stop-color="#EAEDF2"/>
<stop offset="0.95" stop-color="#FCFCFD"/>
<stop offset="0.97" stop-color="white"/>
</linearGradient>
<linearGradient id="paint3_linear_0_1" x1="181.57" y1="238.462" x2="609.625" y2="234.182" gradientUnits="userSpaceOnUse">
<stop stop-color="#FCFDFD"/>
<stop offset="0.16" stop-color="#EAEEF2"/>
<stop offset="0.33" stop-color="#DFE5EC"/>
<stop offset="0.51" stop-color="#DCE2EA"/>
<stop offset="0.67" stop-color="#DFE4EC"/>
<stop offset="0.82" stop-color="#EAEDF2"/>
<stop offset="0.95" stop-color="#FCFCFD"/>
<stop offset="0.97" stop-color="white"/>
</linearGradient>
<linearGradient id="paint4_linear_0_1" x1="227.062" y1="211.793" x2="655.123" y2="207.514" gradientUnits="userSpaceOnUse">
<stop stop-color="#FCFDFD"/>
<stop offset="0.16" stop-color="#EAEEF2"/>
<stop offset="0.33" stop-color="#DFE5EC"/>
<stop offset="0.51" stop-color="#DCE2EA"/>
<stop offset="0.67" stop-color="#DFE4EC"/>
<stop offset="0.82" stop-color="#EAEDF2"/>
<stop offset="0.95" stop-color="#FCFCFD"/>
<stop offset="0.97" stop-color="white"/>
</linearGradient>
<linearGradient id="paint5_linear_0_1" x1="272.557" y1="185.117" x2="700.612" y2="180.838" gradientUnits="userSpaceOnUse">
<stop stop-color="#FCFDFD"/>
<stop offset="0.16" stop-color="#EAEEF2"/>
<stop offset="0.33" stop-color="#DFE5EC"/>
<stop offset="0.51" stop-color="#DCE2EA"/>
<stop offset="0.67" stop-color="#DFE4EC"/>
<stop offset="0.82" stop-color="#EAEDF2"/>
<stop offset="0.95" stop-color="#FCFCFD"/>
<stop offset="0.97" stop-color="white"/>
</linearGradient>
<linearGradient id="paint6_linear_0_1" x1="318.048" y1="158.441" x2="746.102" y2="154.162" gradientUnits="userSpaceOnUse">
<stop stop-color="#FCFDFD"/>
<stop offset="0.16" stop-color="#EAEEF2"/>
<stop offset="0.33" stop-color="#DFE5EC"/>
<stop offset="0.51" stop-color="#DCE2EA"/>
<stop offset="0.67" stop-color="#DFE4EC"/>
<stop offset="0.82" stop-color="#EAEDF2"/>
<stop offset="0.95" stop-color="#FCFCFD"/>
<stop offset="0.97" stop-color="white"/>
</linearGradient>
<linearGradient id="paint7_linear_0_1" x1="363.538" y1="131.773" x2="791.593" y2="127.493" gradientUnits="userSpaceOnUse">
<stop stop-color="#FCFDFD"/>
<stop offset="0.16" stop-color="#EAEEF2"/>
<stop offset="0.33" stop-color="#DFE5EC"/>
<stop offset="0.51" stop-color="#DCE2EA"/>
<stop offset="0.67" stop-color="#DFE4EC"/>
<stop offset="0.82" stop-color="#EAEDF2"/>
<stop offset="0.95" stop-color="#FCFCFD"/>
<stop offset="0.97" stop-color="white"/>
</linearGradient>
<linearGradient id="paint8_linear_0_1" x1="772.985" y1="311.418" x2="324.163" y2="315.905" gradientUnits="userSpaceOnUse">
<stop stop-color="#FCFDFD"/>
<stop offset="0.16" stop-color="#EAEEF2"/>
<stop offset="0.33" stop-color="#DFE5EC"/>
<stop offset="0.51" stop-color="#DCE2EA"/>
<stop offset="0.67" stop-color="#DFE4EC"/>
<stop offset="0.82" stop-color="#EAEDF2"/>
<stop offset="0.95" stop-color="#FCFCFD"/>
<stop offset="0.97" stop-color="white"/>
</linearGradient>
<linearGradient id="paint9_linear_0_1" x1="726.971" y1="285.657" x2="278.149" y2="290.144" gradientUnits="userSpaceOnUse">
<stop stop-color="#FCFDFD"/>
<stop offset="0.16" stop-color="#EAEEF2"/>
<stop offset="0.33" stop-color="#DFE5EC"/>
<stop offset="0.51" stop-color="#DCE2EA"/>
<stop offset="0.67" stop-color="#DFE4EC"/>
<stop offset="0.82" stop-color="#EAEDF2"/>
<stop offset="0.95" stop-color="#FCFCFD"/>
<stop offset="0.97" stop-color="white"/>
</linearGradient>
<linearGradient id="paint10_linear_0_1" x1="676.416" y1="259.905" x2="231.149" y2="264.356" gradientUnits="userSpaceOnUse">
<stop stop-color="#FCFDFD"/>
<stop offset="0.16" stop-color="#EAEEF2"/>
<stop offset="0.33" stop-color="#DFE5EC"/>
<stop offset="0.51" stop-color="#DCE2EA"/>
<stop offset="0.67" stop-color="#DFE4EC"/>
<stop offset="0.82" stop-color="#EAEDF2"/>
<stop offset="0.95" stop-color="#FCFCFD"/>
<stop offset="0.97" stop-color="white"/>
</linearGradient>
<linearGradient id="paint11_linear_0_1" x1="634.934" y1="234.142" x2="186.119" y2="238.63" gradientUnits="userSpaceOnUse">
<stop stop-color="#FCFDFD"/>
<stop offset="0.16" stop-color="#EAEEF2"/>
<stop offset="0.33" stop-color="#DFE5EC"/>
<stop offset="0.51" stop-color="#DCE2EA"/>
<stop offset="0.67" stop-color="#DFE4EC"/>
<stop offset="0.82" stop-color="#EAEDF2"/>
<stop offset="0.95" stop-color="#FCFCFD"/>
<stop offset="0.97" stop-color="white"/>
</linearGradient>
<linearGradient id="paint12_linear_0_1" x1="588.921" y1="208.381" x2="140.098" y2="212.869" gradientUnits="userSpaceOnUse">
<stop stop-color="#FCFDFD"/>
<stop offset="0.16" stop-color="#EAEEF2"/>
<stop offset="0.33" stop-color="#DFE5EC"/>
<stop offset="0.51" stop-color="#DCE2EA"/>
<stop offset="0.67" stop-color="#DFE4EC"/>
<stop offset="0.82" stop-color="#EAEDF2"/>
<stop offset="0.95" stop-color="#FCFCFD"/>
<stop offset="0.97" stop-color="white"/>
</linearGradient>
<linearGradient id="paint13_linear_0_1" x1="542.907" y1="182.62" x2="94.0853" y2="187.108" gradientUnits="userSpaceOnUse">
<stop stop-color="#FCFDFD"/>
<stop offset="0.16" stop-color="#EAEEF2"/>
<stop offset="0.33" stop-color="#DFE5EC"/>
<stop offset="0.51" stop-color="#DCE2EA"/>
<stop offset="0.67" stop-color="#DFE4EC"/>
<stop offset="0.82" stop-color="#EAEDF2"/>
<stop offset="0.95" stop-color="#FCFCFD"/>
<stop offset="0.97" stop-color="white"/>
</linearGradient>
<linearGradient id="paint14_linear_0_1" x1="496.892" y1="156.866" x2="48.0699" y2="161.354" gradientUnits="userSpaceOnUse">
<stop stop-color="#FCFDFD"/>
<stop offset="0.16" stop-color="#EAEEF2"/>
<stop offset="0.33" stop-color="#DFE5EC"/>
<stop offset="0.51" stop-color="#DCE2EA"/>
<stop offset="0.67" stop-color="#DFE4EC"/>
<stop offset="0.82" stop-color="#EAEDF2"/>
<stop offset="0.95" stop-color="#FCFCFD"/>
<stop offset="0.97" stop-color="white"/>
</linearGradient>
<linearGradient id="paint15_linear_0_1" x1="450.87" y1="131.105" x2="2.05528" y2="135.593" gradientUnits="userSpaceOnUse">
<stop stop-color="#FCFDFD"/>
<stop offset="0.16" stop-color="#EAEEF2"/>
<stop offset="0.33" stop-color="#DFE5EC"/>
<stop offset="0.51" stop-color="#DCE2EA"/>
<stop offset="0.67" stop-color="#DFE4EC"/>
<stop offset="0.82" stop-color="#EAEDF2"/>
<stop offset="0.95" stop-color="#FCFCFD"/>
<stop offset="0.97" stop-color="white"/>
</linearGradient>
<linearGradient id="paint16_linear_0_1" x1="544.622" y1="345.915" x2="569.677" y2="345.915" gradientUnits="userSpaceOnUse">
<stop stop-color="#DCE2EA"/>
<stop offset="0.8" stop-color="#F3F5F8"/>
</linearGradient>
<linearGradient id="paint17_linear_0_1" x1="523.074" y1="366.527" x2="569.871" y2="366.527" gradientUnits="userSpaceOnUse">
<stop stop-color="#DCE2EA"/>
<stop offset="0.8" stop-color="#F3F5F8"/>
</linearGradient>
<linearGradient id="paint18_linear_0_1" x1="706.985" y1="32.45" x2="740.734" y2="32.45" gradientUnits="userSpaceOnUse">
<stop stop-color="#DCE2EA"/>
<stop offset="0.8" stop-color="#F3F5F8"/>
</linearGradient>
<linearGradient id="paint19_linear_0_1" x1="605.385" y1="244.149" x2="615.233" y2="244.149" gradientUnits="userSpaceOnUse">
<stop stop-color="#DCE2EA"/>
<stop offset="0.8" stop-color="#F3F5F8"/>
</linearGradient>
<linearGradient id="paint20_linear_0_1" x1="529.753" y1="212.434" x2="646.057" y2="212.434" gradientUnits="userSpaceOnUse">
<stop stop-color="#DCE2EA"/>
<stop offset="0.8" stop-color="#F3F5F8"/>
</linearGradient>
<clipPath id="clip0_0_1">
<rect width="789.59" height="438.934" fill="white" transform="translate(0.772461 7.8942) rotate(-0.572843)"/>
</clipPath>
<clipPath id="clip1_0_1">
<rect width="46" height="52" fill="white" transform="translate(700.981 4.1232)"/>
</clipPath>
<clipPath id="clip2_0_1">
<rect width="228" height="285" fill="white" transform="translate(327.344 71.7594)"/>
</clipPath>
<clipPath id="clip3_0_1">
<rect width="120" height="130" fill="white" transform="translate(529.344 147.759)"/>
</clipPath>
</defs>
</svg>
