<svg width="795" height="447" viewBox="0 0 795 447" fill="none" xmlns="http://www.w3.org/2000/svg">
<g clip-path="url(#clip0_0_1)">
<path d="M43.7382 195.989L473.544 436.704" stroke="url(#paint0_linear_0_1)" stroke-width="1.40319" stroke-miterlimit="10"/>
<path d="M89.2275 169.32L519.034 410.028" stroke="url(#paint1_linear_0_1)" stroke-width="1.40319" stroke-miterlimit="10"/>
<path d="M134.719 142.644L564.532 383.352" stroke="url(#paint2_linear_0_1)" stroke-width="1.40319" stroke-miterlimit="10"/>
<path d="M180.215 115.968L610.021 356.676" stroke="url(#paint3_linear_0_1)" stroke-width="1.40319" stroke-miterlimit="10"/>
<path d="M225.706 89.2997L655.512 330.007" stroke="url(#paint4_linear_0_1)" stroke-width="1.40319" stroke-miterlimit="10"/>
<path d="M271.194 62.6237L701 303.331" stroke="url(#paint5_linear_0_1)" stroke-width="1.40319" stroke-miterlimit="10"/>
<path d="M316.685 35.9478L746.498 276.655" stroke="url(#paint6_linear_0_1)" stroke-width="1.40319" stroke-miterlimit="10"/>
<path d="M362.183 9.27896L791.989 249.986" stroke="url(#paint7_linear_0_1)" stroke-width="1.40319" stroke-miterlimit="10"/>
<path d="M770.886 184.333L325.303 442.991" stroke="url(#paint8_linear_0_1)" stroke-width="1.40319" stroke-miterlimit="10"/>
<path d="M724.872 158.571L279.282 417.23" stroke="url(#paint9_linear_0_1)" stroke-width="1.40319" stroke-miterlimit="10"/>
<path d="M674.284 130.314L232.322 393.939" stroke="url(#paint10_linear_0_1)" stroke-width="1.40319" stroke-miterlimit="10"/>
<path d="M632.834 107.057L187.251 365.715" stroke="url(#paint11_linear_0_1)" stroke-width="1.40319" stroke-miterlimit="10"/>
<path d="M586.821 81.2957L141.238 339.954" stroke="url(#paint12_linear_0_1)" stroke-width="1.40319" stroke-miterlimit="10"/>
<path d="M540.808 55.5346L95.2252 314.193" stroke="url(#paint13_linear_0_1)" stroke-width="1.40319" stroke-miterlimit="10"/>
<path d="M494.793 29.7809L49.2025 288.439" stroke="url(#paint14_linear_0_1)" stroke-width="1.40319" stroke-miterlimit="10"/>
<path d="M448.771 4.0199L3.18784 262.678" stroke="url(#paint15_linear_0_1)" stroke-width="1.40319" stroke-miterlimit="10"/>
<path d="M454.758 160.442C456.302 161.315 456.324 162.748 454.805 163.652L450.875 165.991C449.356 166.895 446.881 166.92 445.329 166.046L441.324 163.787C439.78 162.921 439.759 161.481 441.278 160.577L445.207 158.238C446.726 157.334 449.202 157.309 450.746 158.182L454.751 160.442L454.758 160.442Z" fill="#E8ECF1"/>
<path d="M317.25 82.9623C318.794 83.8358 318.816 85.2683 317.297 86.1724L313.367 88.5113C311.848 89.4155 309.373 89.4402 307.821 88.5668L303.817 86.3072C302.272 85.441 302.251 84.0013 303.77 83.0971L307.699 80.7582C309.218 79.8541 311.694 79.8293 313.238 80.7028L317.243 82.9624L317.25 82.9623Z" fill="#E8ECF1"/>
<path d="M226.047 136.015C227.591 136.889 227.613 138.321 226.094 139.225L222.164 141.564C220.645 142.468 218.17 142.493 216.618 141.62L212.613 139.36C211.069 138.494 211.047 137.054 212.567 136.15L216.496 133.811C218.015 132.907 220.491 132.882 222.035 133.756L226.039 136.015L226.047 136.015Z" fill="#E8ECF1"/>
<path d="M407.492 30.786C409.036 31.6595 409.058 33.092 407.539 33.9961L403.61 36.335C402.091 37.2392 399.615 37.2639 398.063 36.3904L394.059 34.1309C392.515 33.2647 392.493 31.8249 394.012 30.9208L397.941 28.5819C399.46 27.6777 401.936 27.653 403.48 28.5265L407.485 30.7861L407.492 30.786Z" fill="#E8ECF1"/>
<path d="M638.78 210.824C640.325 211.698 640.346 213.13 638.827 214.034L634.898 216.373C633.379 217.277 630.903 217.302 629.352 216.428L625.347 214.169C623.803 213.303 623.781 211.863 625.3 210.959L629.229 208.62C630.748 207.716 633.224 207.691 634.768 208.564L638.773 210.824L638.78 210.824Z" fill="#E8ECF1"/>
<path d="M593.05 289.93C594.594 290.803 594.616 292.236 593.097 293.14L589.167 295.479C587.648 296.383 585.173 296.408 583.621 295.534L579.616 293.275C578.072 292.409 578.05 290.969 579.57 290.065L583.499 287.726C585.018 286.822 587.494 286.797 589.038 287.67L593.042 289.93L593.05 289.93Z" fill="#E8ECF1"/>
<path d="M455.065 316.076C456.61 316.949 456.631 318.382 455.112 319.286L451.183 321.625C449.664 322.529 447.188 322.554 445.637 321.68L441.632 319.421C440.088 318.555 440.066 317.115 441.585 316.211L445.514 313.872C447.034 312.968 449.509 312.943 451.053 313.816L455.058 316.076L455.065 316.076Z" fill="#E8ECF1"/>
<path d="M455.819 369.4C457.364 370.273 457.385 371.706 455.866 372.61L451.937 374.949C450.418 375.853 447.942 375.878 446.391 375.004L442.386 372.745C440.842 371.878 440.82 370.439 442.339 369.534L446.268 367.196C447.787 366.291 450.263 366.267 451.807 367.14L455.812 369.4L455.819 369.4Z" fill="#E8ECF1"/>
<path d="M273.577 318.647C275.121 319.521 275.143 320.953 273.624 321.857L269.695 324.196C268.176 325.1 265.7 325.125 264.148 324.252L260.144 321.992C258.6 321.126 258.578 319.686 260.097 318.782L264.026 316.443C265.545 315.539 268.021 315.514 269.565 316.388L273.57 318.647L273.577 318.647Z" fill="#E8ECF1"/>
<path d="M89.0721 214.836C90.6164 215.71 90.638 217.142 89.1189 218.046L85.1897 220.385C83.6705 221.289 81.1949 221.314 79.6433 220.44L75.6387 218.181C74.0945 217.315 74.0728 215.875 75.5919 214.971L79.5211 212.632C81.0403 211.728 83.5159 211.703 85.0602 212.577L89.0648 214.836L89.0721 214.836Z" fill="#E8ECF1"/>
</g>
<g clip-path="url(#clip1_0_1)">
<path d="M138.528 315.211L320.225 207.022C339.47 195.563 339.826 167.822 320.883 155.872L196.607 77.4772C187.235 71.565 175.366 71.3008 165.74 76.7901L123.278 101.004" stroke="#E8ECF1" stroke-width="1.33" stroke-miterlimit="10"/>
<path d="M126.178 100.187C130.372 102.608 130.399 106.556 126.232 108.976C122.065 111.397 115.266 111.397 111.073 108.976C106.879 106.556 106.861 102.608 111.028 100.187C115.195 97.7663 121.985 97.7663 126.178 100.187ZM113.589 107.511C116.381 109.128 120.932 109.128 123.707 107.511C126.482 105.895 126.464 103.26 123.671 101.643C120.878 100.026 116.337 100.026 113.562 101.643C110.787 103.26 110.796 105.895 113.589 107.511Z" fill="#E8ECF1"/>
<path d="M446.323 214.587L446.14 152.139C446.19 170.439 434.12 188.771 409.964 202.737L410.147 265.185C434.303 251.219 446.373 232.886 446.323 214.587Z" fill="#DCE2EA"/>
<mask id="mask0_0_1" style="mask-type:luminance" maskUnits="userSpaceOnUse" x="409" y="152" width="38" height="114">
<path d="M446.323 214.587L446.14 152.139C446.19 170.439 434.12 188.771 409.964 202.737L410.147 265.185C434.303 251.219 446.373 232.886 446.323 214.587Z" fill="white"/>
</mask>
<g mask="url(#mask0_0_1)">
<path d="M409.979 202.754L410.163 265.201C434.319 251.235 446.389 232.903 446.339 214.603L446.155 152.156C446.205 170.455 434.136 188.788 409.979 202.754Z" fill="#DCE2EA" stroke="#556578" stroke-width="1.05329" stroke-linecap="round" stroke-linejoin="round"/>
</g>
<path d="M446.323 214.587L446.14 152.139C446.19 170.439 434.12 188.771 409.964 202.737L410.147 265.185C434.303 251.219 446.373 232.886 446.323 214.587Z" stroke="#556578" stroke-width="1.05329" stroke-linecap="round" stroke-linejoin="round"/>
<path d="M409.397 203.105L409.564 265.535L410.147 265.202L409.98 202.755L409.397 203.105Z" fill="#B5B5B5"/>
<path d="M236.706 102.626L236.873 165.073L409.561 265.536L409.395 203.105L236.706 102.626Z" fill="#DCE2EA" stroke="#556578" stroke-width="1.05329" stroke-linecap="round" stroke-linejoin="round"/>
<path d="M236.706 102.625L409.395 203.087L409.978 202.754C457.974 175.005 458.257 130.024 410.56 102.275C362.881 74.5259 285.285 74.5426 237.289 102.275L236.706 102.608V102.625Z" fill="#F3F5F7" stroke="#010E3E" stroke-width="1.33" stroke-linecap="round" stroke-linejoin="round"/>
<path d="M322.543 172.289L322.477 214.854L234.792 265.868L234.842 223.303L322.543 172.289Z" fill="white" stroke="#010E3E" stroke-width="1.33" stroke-linecap="round" stroke-linejoin="round"/>
<path d="M200.113 215.788L200.152 178.985C203.829 194.889 215.191 212.345 234.176 223.633L234.128 264.7C211.315 250.972 200.065 233.316 200.113 215.806V215.804V215.788V215.788Z" fill="white" stroke="#010E3E" stroke-width="1.33"/>
<mask id="mask1_0_1" style="mask-type:luminance" maskUnits="userSpaceOnUse" x="199" y="167" width="36" height="99">
<path d="M200.113 215.788L200.152 178.985C203.829 194.889 215.191 212.345 234.176 223.633L234.128 264.7C211.315 250.972 200.065 233.316 200.113 215.806V215.804V215.788V215.788Z" fill="white" stroke="white" stroke-width="1.33"/>
</mask>
<g mask="url(#mask1_0_1)">
<path d="M234.792 265.869C211.185 251.986 199.398 233.887 199.448 215.804L199.498 167.856C199.448 185.939 211.235 209.388 234.842 223.271" fill="white"/>
<path d="M234.792 265.869C211.185 251.986 199.398 233.887 199.448 215.804L199.498 167.856C199.448 185.939 211.235 209.388 234.842 223.271" stroke="#010E3E" stroke-width="1.33" stroke-miterlimit="10"/>
</g>
<path d="M199.448 215.788L199.498 167.84C199.448 185.922 211.235 209.371 234.842 223.254L234.792 265.869C211.185 251.986 199.398 233.887 199.448 215.804V215.788Z" stroke="#010E3E" stroke-width="1.33" stroke-miterlimit="10"/>
<path d="M322.543 172.389L234.858 223.403C187.711 195.671 187.695 151.09 235.041 123.558C235.541 123.258 236.074 122.991 236.59 122.708L322.56 172.406L322.543 172.389Z" fill="white" stroke="#010E3E" stroke-width="1.33" stroke-linecap="round" stroke-linejoin="round"/>
<path d="M409.43 245.586C408.947 245.886 408.481 246.186 407.981 246.469C406.167 247.536 404.285 248.535 402.371 249.519C401.822 249.802 401.272 250.069 400.706 250.352C399.224 251.085 397.709 251.802 396.194 252.485C395.678 252.719 395.162 252.952 394.646 253.185C392.648 254.052 390.634 254.885 388.57 255.669C388.203 255.802 387.837 255.935 387.471 256.069C385.723 256.718 383.975 257.335 382.177 257.918C381.444 258.168 380.712 258.402 379.963 258.635C378.981 258.952 377.998 259.252 376.999 259.535C376.167 259.785 375.318 260.018 374.469 260.268C373.47 260.552 372.455 260.818 371.439 261.085C370.59 261.302 369.741 261.518 368.875 261.735C367.843 261.985 366.811 262.218 365.762 262.452C364.896 262.652 364.047 262.835 363.182 263.018C362.116 263.235 361.051 263.452 359.985 263.652C359.169 263.802 358.354 263.968 357.538 264.118C355.257 264.518 352.96 264.901 350.646 265.218C350.329 265.268 349.996 265.301 349.664 265.335C347.649 265.601 345.618 265.851 343.587 266.068C342.805 266.151 342.039 266.218 341.256 266.301C339.958 266.418 338.643 266.535 337.344 266.635C336.528 266.701 335.696 266.751 334.88 266.801C333.515 266.885 332.15 266.951 330.785 267.001C330.019 267.035 329.237 267.068 328.471 267.101C327.289 267.135 326.09 267.151 324.908 267.168C324.076 267.168 323.26 267.201 322.428 267.201C321.146 267.201 319.88 267.185 318.598 267.168C317.849 267.168 317.1 267.168 316.351 267.135C315.186 267.101 314.02 267.051 312.855 267.001C312.039 266.968 311.24 266.951 310.424 266.901C309.159 266.835 307.894 266.735 306.645 266.651C305.946 266.601 305.23 266.568 304.514 266.501C302.983 266.368 301.451 266.218 299.936 266.051C299.503 266.001 299.07 265.968 298.654 265.918C296.706 265.701 294.759 265.451 292.828 265.185C292.528 265.151 292.245 265.085 291.945 265.051C290.264 264.801 288.599 264.551 286.934 264.252C286.252 264.135 285.586 264.002 284.903 263.868C283.638 263.635 282.373 263.402 281.124 263.152C280.475 263.018 279.825 262.868 279.176 262.718C277.794 262.418 276.429 262.118 275.064 261.785C274.315 261.602 273.566 261.402 272.817 261.218C271.568 260.902 270.336 260.585 269.104 260.235C268.405 260.035 267.722 259.835 267.023 259.635C265.075 259.068 263.161 258.468 261.263 257.835C260.93 257.718 260.58 257.618 260.248 257.502C258.067 256.768 255.919 255.969 253.805 255.152C253.355 254.985 252.922 254.802 252.473 254.619C249.726 253.519 247.012 252.352 244.399 251.102C244.132 250.969 243.883 250.835 243.616 250.719C240.869 249.385 238.189 247.986 235.609 246.502C235.359 246.352 235.126 246.202 234.893 246.069L234.843 265.651C235.076 265.785 235.309 265.951 235.559 266.085C238.139 267.585 240.819 268.968 243.566 270.301C243.833 270.435 244.082 270.568 244.349 270.685C246.979 271.935 249.676 273.101 252.423 274.201C252.673 274.301 252.889 274.418 253.139 274.518C253.339 274.601 253.555 274.668 253.771 274.751C255.886 275.584 258.033 276.368 260.214 277.101C260.547 277.218 260.897 277.318 261.23 277.434C263.128 278.068 265.059 278.668 266.99 279.234C267.306 279.334 267.623 279.434 267.939 279.534C268.305 279.634 268.688 279.734 269.054 279.834C270.286 280.168 271.502 280.501 272.75 280.817C273.499 281.017 274.265 281.201 275.014 281.384C276.363 281.701 277.728 282.017 279.093 282.301C279.609 282.417 280.125 282.551 280.641 282.651C280.774 282.684 280.924 282.701 281.057 282.734C282.289 282.984 283.555 283.217 284.803 283.451C285.502 283.584 286.185 283.717 286.884 283.834C288.549 284.117 290.214 284.384 291.879 284.617C292.162 284.651 292.445 284.717 292.728 284.751C292.728 284.751 292.761 284.751 292.778 284.751C294.709 285.017 296.657 285.267 298.604 285.484C299.037 285.534 299.47 285.567 299.886 285.617C301.418 285.784 302.933 285.934 304.464 286.067C304.498 286.067 304.548 286.067 304.581 286.067C305.247 286.117 305.913 286.151 306.595 286.201C307.861 286.301 309.126 286.384 310.391 286.451C311.19 286.501 312.006 286.517 312.822 286.551C313.987 286.601 315.152 286.651 316.318 286.684C316.418 286.684 316.518 286.684 316.601 286.684C317.25 286.684 317.916 286.684 318.565 286.701C319.83 286.717 321.096 286.751 322.361 286.734C323.193 286.734 324.026 286.717 324.858 286.701C326.04 286.684 327.222 286.667 328.404 286.634C328.621 286.634 328.837 286.634 329.07 286.634C329.619 286.617 330.169 286.567 330.735 286.551C332.1 286.501 333.465 286.434 334.83 286.351C335.663 286.301 336.478 286.234 337.294 286.184C338.609 286.084 339.908 285.984 341.206 285.851C341.673 285.801 342.122 285.784 342.588 285.734C342.904 285.701 343.221 285.651 343.537 285.617C345.568 285.401 347.599 285.167 349.614 284.884C349.947 284.834 350.263 284.801 350.596 284.767C352.91 284.451 355.207 284.067 357.488 283.667C357.704 283.634 357.921 283.601 358.137 283.567C358.753 283.451 359.353 283.317 359.952 283.201C361.017 283.001 362.083 282.801 363.132 282.567C363.997 282.384 364.846 282.201 365.712 282.001C366.761 281.767 367.793 281.534 368.825 281.284C369.691 281.067 370.54 280.851 371.389 280.634C372.405 280.367 373.42 280.101 374.419 279.834C375.268 279.601 376.117 279.351 376.949 279.101C377.948 278.801 378.931 278.501 379.913 278.201C380.346 278.068 380.779 277.951 381.211 277.801C381.528 277.701 381.811 277.584 382.127 277.484C383.908 276.901 385.673 276.268 387.421 275.634C387.787 275.501 388.154 275.368 388.52 275.234C390.584 274.451 392.599 273.618 394.596 272.751C395.112 272.518 395.628 272.285 396.145 272.051C397.676 271.368 399.174 270.651 400.656 269.918C401.206 269.635 401.772 269.368 402.321 269.085C404.219 268.101 406.1 267.101 407.931 266.035C408.114 265.935 408.281 265.835 408.447 265.735C408.747 265.551 409.063 265.368 409.363 265.168C409.363 265.168 409.363 265.168 409.38 265.168L409.43 245.586Z" fill="#5F38FB" stroke="#010E3E" stroke-width="1.33" stroke-linecap="round" stroke-linejoin="round"/>
<path d="M409.429 245.586C408.946 245.886 408.48 246.186 407.98 246.469C360.534 274.068 283.337 274.068 235.574 246.469C235.325 246.319 235.091 246.169 234.858 246.036L322.243 195.205L409.429 245.603V245.586Z" fill="#8671FF" stroke="#010E3E" stroke-width="1.33" stroke-linecap="round" stroke-linejoin="round"/>
<path d="M141.081 316.491C142.374 317.238 142.382 318.451 141.097 319.198L136.317 321.978C135.032 322.725 132.942 322.725 131.646 321.978L126.836 319.198C125.543 318.451 125.535 317.238 126.82 316.491L131.601 313.711C132.885 312.964 134.975 312.964 136.271 313.711L141.081 316.491Z" stroke="#E8ECF1" stroke-width="1.33" stroke-miterlimit="10"/>
<path d="M118.656 107.583C121.558 107.583 123.911 106.259 123.911 104.626C123.911 102.994 121.558 101.67 118.656 101.67C115.753 101.67 113.4 102.994 113.4 104.626C113.4 106.259 115.753 107.583 118.656 107.583Z" fill="#5F38FB"/>
<path d="M236.905 115.691L250.507 110.792" stroke="#010E3E" stroke-width="1.33" stroke-linecap="round" stroke-linejoin="round"/>
<path d="M238.007 123.424L259.216 116.191" stroke="#010E3E" stroke-width="1.33" stroke-linecap="round" stroke-linejoin="round"/>
<path d="M248.312 128.941L268.905 121.708" stroke="#010E3E" stroke-width="1.33" stroke-linecap="round" stroke-linejoin="round"/>
<path d="M258.233 134.707L278.943 127.357" stroke="#010E3E" stroke-width="1.33" stroke-linecap="round" stroke-linejoin="round"/>
<path d="M267.921 140.24L288.631 133.124" stroke="#010E3E" stroke-width="1.33" stroke-linecap="round" stroke-linejoin="round"/>
<path d="M277.847 146.123L297.824 138.64" stroke="#010E3E" stroke-width="1.33" stroke-linecap="round" stroke-linejoin="round"/>
<path d="M287.167 151.523L308.243 144.523" stroke="#010E3E" stroke-width="1.33" stroke-linecap="round" stroke-linejoin="round"/>
<path d="M296.972 157.289L318.165 150.29" stroke="#010E3E" stroke-width="1.33" stroke-linecap="round" stroke-linejoin="round"/>
<path d="M307.511 163.539L328.587 156.189" stroke="#010E3E" stroke-width="1.33" stroke-linecap="round" stroke-linejoin="round"/>
<path d="M317.683 169.555L338.875 162.189" stroke="#010E3E" stroke-width="1.33" stroke-linecap="round" stroke-linejoin="round"/>
<path d="M322.577 176.672L347.949 168.09" stroke="#010E3E" stroke-width="1.33" stroke-linecap="round" stroke-linejoin="round"/>
<path d="M322.827 185.255L357.638 173.855" stroke="#010E3E" stroke-width="1.33" stroke-linecap="round" stroke-linejoin="round"/>
<path d="M322.827 194.088L367.81 179.372" stroke="#010E3E" stroke-width="1.33" stroke-linecap="round" stroke-linejoin="round"/>
<path d="M331.401 199.738L376.883 184.772" stroke="#010E3E" stroke-width="1.33" stroke-linecap="round" stroke-linejoin="round"/>
<path d="M341.507 205.67L386.806 190.538" stroke="#010E3E" stroke-width="1.33" stroke-linecap="round" stroke-linejoin="round"/>
<path d="M351.011 211.521L397.259 196.271" stroke="#010E3E" stroke-width="1.33" stroke-linecap="round" stroke-linejoin="round"/>
<path d="M360.569 217.037L407.15 201.821" stroke="#010E3E" stroke-width="1.33" stroke-linecap="round" stroke-linejoin="round"/>
<path d="M370.374 222.687L409.23 210.171" stroke="#010E3E" stroke-width="1.33" stroke-linecap="round" stroke-linejoin="round"/>
<path d="M381.296 229.07L409.481 219.371" stroke="#010E3E" stroke-width="1.33" stroke-linecap="round" stroke-linejoin="round"/>
<path d="M391.468 234.703L409.364 228.453" stroke="#010E3E" stroke-width="1.33" stroke-linecap="round" stroke-linejoin="round"/>
<path d="M400.405 240.236L409.478 236.786" stroke="#010E3E" stroke-width="1.33" stroke-linecap="round" stroke-linejoin="round"/>
<path d="M409.546 245.57L322.245 195.205L322.544 172.389L236.558 122.691L236.707 102.626L409.396 203.105L409.563 265.536" stroke="#010E3E" stroke-width="1.33" stroke-linecap="round" stroke-linejoin="round"/>
</g>
<g clip-path="url(#clip2_0_1)">
<path d="M72.0025 315.936C72.0025 315.864 72.0024 315.784 71.9945 315.704C71.9945 315.545 71.9786 315.377 71.9707 315.218C71.9628 315.026 71.9548 314.835 71.9469 314.643C71.939 314.5 71.9231 314.348 71.9152 314.205C71.8993 314.029 71.8914 313.862 71.8755 313.686C71.8675 313.574 71.8596 313.463 71.8517 313.343C71.8279 313.096 71.7961 312.848 71.7723 312.609C71.7565 312.466 71.7406 312.33 71.7247 312.186C71.7247 312.138 71.7168 312.091 71.7088 312.043C71.6533 311.596 71.5898 311.149 71.5184 310.702C71.5184 310.694 71.5184 310.679 71.5184 310.671C71.5105 310.607 71.4946 310.551 71.4867 310.487C71.4232 310.112 71.3597 309.729 71.2883 309.354C71.2724 309.29 71.2645 309.219 71.2486 309.155C71.2169 308.979 71.1772 308.796 71.1375 308.62C71.0899 308.405 71.0502 308.19 71.0026 307.966C70.9788 307.846 70.9471 307.727 70.9153 307.607C70.8756 307.416 70.828 307.216 70.7804 307.025C70.7487 306.873 70.7169 306.722 70.6773 306.578C70.6296 306.403 70.582 306.219 70.5344 306.044C70.4868 305.852 70.4313 305.653 70.3836 305.461C70.3598 305.365 70.336 305.27 70.3043 305.174C70.2329 304.919 70.1535 304.663 70.0821 304.408C70.0345 304.241 69.9869 304.073 69.9393 303.906C69.9234 303.858 69.9155 303.81 69.8996 303.762C69.7568 303.299 69.6139 302.845 69.4631 302.39C69.4631 302.39 69.4631 302.382 69.4631 302.374C69.4473 302.334 69.4314 302.294 69.4235 302.246C69.2886 301.839 69.1457 301.433 69.0029 301.034C68.9791 300.97 68.9553 300.906 68.9315 300.842C68.8759 300.691 68.8204 300.531 68.7569 300.379C68.6775 300.164 68.5982 299.941 68.5109 299.725C68.4554 299.59 68.3998 299.446 68.3443 299.31C68.2808 299.143 68.2094 298.975 68.1379 298.8C68.0903 298.68 68.0427 298.553 67.9872 298.433C67.884 298.186 67.7809 297.946 67.6777 297.699C67.6221 297.563 67.5666 297.436 67.5111 297.3C67.4872 297.252 67.4714 297.204 67.4555 297.165C67.2651 296.734 67.0746 296.303 66.8762 295.88C66.8683 295.864 66.8604 295.84 66.8524 295.824C66.7969 295.705 66.7334 295.585 66.6778 295.465C66.5191 295.138 66.3684 294.803 66.2017 294.476C66.1779 294.428 66.1462 294.372 66.1224 294.325C65.9875 294.053 65.8526 293.79 65.7097 293.527C65.5986 293.311 65.4955 293.096 65.3765 292.881C65.3526 292.841 65.3368 292.801 65.313 292.769C64.9479 292.083 64.5591 291.397 64.1703 290.719C64.1385 290.663 64.1068 290.599 64.0751 290.543C63.9719 290.368 63.8687 290.2 63.7656 290.025C63.5989 289.753 63.4402 289.474 63.2657 289.203C63.1149 288.956 62.9562 288.716 62.8054 288.469C62.6308 288.198 62.4642 287.926 62.2817 287.663C62.2261 287.575 62.1706 287.488 62.1071 287.392C62.0515 287.304 61.9881 287.224 61.9325 287.145C61.4405 286.419 60.9485 285.693 60.4327 284.991C60.0677 284.488 59.6868 283.994 59.3059 283.507C59.2901 283.483 59.2742 283.459 59.2583 283.443C58.9806 283.092 58.7028 282.749 58.4172 282.398C58.3616 282.326 58.3061 282.254 58.2426 282.183C58.2426 282.183 58.2426 282.183 58.2346 282.175C57.9014 281.768 57.5602 281.369 57.211 280.97C57.1951 280.946 57.1792 280.93 57.1554 280.914C57.0523 280.795 56.9491 280.683 56.846 280.563C56.6238 280.316 56.4095 280.069 56.1794 279.821C56.1397 279.773 56.0921 279.734 56.0524 279.686C55.9017 279.526 55.7509 279.367 55.6001 279.207C55.4335 279.031 55.2668 278.848 55.1002 278.68C55.0367 278.617 54.9732 278.553 54.9098 278.489C54.7431 278.321 54.5765 278.162 54.4098 277.994C54.267 277.851 54.1241 277.707 53.9813 277.572C53.902 277.492 53.8147 277.42 53.7353 277.34C53.5528 277.173 53.3703 276.997 53.1957 276.83C53.0688 276.718 52.9497 276.59 52.8228 276.479C52.7275 276.391 52.6244 276.303 52.5212 276.215C52.3387 276.056 52.1562 275.896 51.9737 275.737C51.8626 275.641 51.7515 275.537 51.6404 275.45C51.5214 275.346 51.3944 275.25 51.2754 275.146C51.1008 274.995 50.9183 274.851 50.7358 274.708C50.6405 274.636 50.5533 274.556 50.458 274.476C50.3073 274.357 50.1486 274.245 49.9978 274.125C49.8311 273.998 49.6645 273.87 49.4979 273.742C49.4264 273.694 49.363 273.639 49.2915 273.583C49.0852 273.431 48.8789 273.288 48.6726 273.136C48.5297 273.04 48.3948 272.937 48.252 272.833C48.2123 272.809 48.1806 272.777 48.1409 272.753C47.768 272.498 47.395 272.251 47.0141 272.003C47.0141 272.003 47.0141 272.003 47.0062 272.003C46.9824 271.987 46.9506 271.971 46.9268 271.955C46.5856 271.74 46.2444 271.525 45.8952 271.317C45.8079 271.269 45.7206 271.213 45.6333 271.166C45.3477 270.998 45.0699 270.846 44.7922 270.695C44.689 270.639 44.5779 270.583 44.4748 270.527C44.332 270.448 44.1891 270.376 44.0463 270.304C43.9352 270.248 43.8241 270.184 43.713 270.129C43.5305 270.041 43.3559 269.961 43.1813 269.873C43.0544 269.809 42.9274 269.754 42.8004 269.69C42.7449 269.666 42.6973 269.642 42.6417 269.618C42.2846 269.458 41.9355 269.307 41.5863 269.163C41.2292 269.02 40.8722 268.884 40.5151 268.756C40.4674 268.74 40.4278 268.724 40.3802 268.709C40.2532 268.661 40.1262 268.629 39.9993 268.581C39.8168 268.525 39.6342 268.461 39.4597 268.405C39.3724 268.381 39.2851 268.357 39.1899 268.334C39.0312 268.286 38.8804 268.246 38.7217 268.206C38.6026 268.174 38.4836 268.134 38.3646 268.102C38.2376 268.07 38.1186 268.046 37.9916 268.022C37.8329 267.983 37.6821 267.951 37.5234 267.919C37.4441 267.903 37.3568 267.879 37.2774 267.863C37.1346 267.831 36.9918 267.815 36.841 267.791C36.6585 267.759 36.4839 267.727 36.3093 267.703C36.2459 267.695 36.1824 267.679 36.1189 267.671C35.9681 267.647 35.8253 267.64 35.6824 267.624C35.492 267.6 35.3015 267.584 35.1111 267.568C35.0556 267.568 35 267.552 34.9445 267.552C34.8175 267.544 34.6905 267.552 34.5636 267.536C34.3414 267.528 34.1112 267.512 33.8891 267.512C33.8256 267.512 33.7621 267.512 33.6986 267.512C33.6034 267.512 33.5082 267.52 33.4129 267.528C33.1352 267.528 32.8575 267.544 32.5797 267.568C32.5004 267.568 32.4131 267.568 32.3258 267.584C32.2623 267.584 32.2068 267.6 32.1433 267.608C31.7227 267.655 31.3101 267.711 30.8974 267.791C30.8657 267.791 30.826 267.799 30.7943 267.807C30.7863 267.807 30.7784 267.807 30.7625 267.807C30.6832 267.823 30.6038 267.847 30.5165 267.863C30.2626 267.919 30.0087 267.983 29.7627 268.046C29.6437 268.078 29.5246 268.118 29.4135 268.158C29.2548 268.206 29.0961 268.254 28.9374 268.31C28.8977 268.326 28.8581 268.342 28.8263 268.357C28.5883 268.445 28.3581 268.541 28.128 268.645C28.0169 268.693 27.8979 268.74 27.7868 268.788C27.4456 268.948 27.1202 269.115 26.7949 269.307L18.3438 274.245C18.6691 274.053 18.9944 273.886 19.3357 273.726C19.4468 273.671 19.5579 273.631 19.669 273.583C19.8991 273.479 20.1292 273.383 20.3673 273.296C20.5577 273.224 20.7561 273.16 20.9545 273.096C21.0735 273.056 21.1925 273.016 21.3116 272.984C21.5576 272.913 21.8115 272.857 22.0654 272.801C22.1448 272.785 22.2241 272.761 22.3114 272.745C22.3511 272.737 22.3987 272.729 22.4384 272.721C22.8431 272.641 23.2637 272.586 23.6842 272.538C23.8271 272.522 23.9699 272.514 24.1127 272.498C24.3905 272.474 24.6682 272.466 24.9459 272.458C25.1047 272.458 25.2634 272.45 25.4221 272.458C25.6443 272.458 25.8664 272.466 26.0966 272.482C26.2791 272.49 26.4616 272.498 26.6441 272.514C26.8346 272.53 27.025 272.554 27.2154 272.57C27.4218 272.594 27.636 272.618 27.8423 272.649C28.0169 272.673 28.1994 272.705 28.3819 272.737C28.6041 272.777 28.8343 272.817 29.0644 272.865C29.2152 272.897 29.3739 272.937 29.5326 272.969C29.7786 273.024 30.0166 273.088 30.2626 273.152C30.4213 273.192 30.5721 273.24 30.7308 273.28C31.0006 273.359 31.2704 273.439 31.5402 273.535C31.6672 273.575 31.7941 273.615 31.9211 273.663C32.7146 273.942 33.524 274.261 34.3414 274.636C34.4683 274.692 34.5953 274.756 34.7223 274.819C35.0079 274.955 35.3015 275.099 35.5872 275.242C35.7301 275.314 35.8729 275.394 36.0237 275.466C36.4046 275.673 36.7934 275.88 37.1822 276.104C37.6187 276.351 38.0472 276.622 38.4757 276.893C38.4995 276.909 38.5312 276.925 38.555 276.941C38.9756 277.205 39.3882 277.484 39.8009 277.771C39.9437 277.867 40.0786 277.97 40.2215 278.074C40.4992 278.274 40.7769 278.473 41.0467 278.672C41.2134 278.8 41.38 278.928 41.5467 279.055C41.7926 279.247 42.0386 279.438 42.2846 279.638C42.4672 279.781 42.6417 279.925 42.8163 280.077C43.0464 280.268 43.2845 280.467 43.5146 280.667C43.6971 280.826 43.8796 280.986 44.0622 281.146C44.2923 281.345 44.5145 281.552 44.7367 281.76C44.9192 281.927 45.1017 282.095 45.2763 282.262C45.5064 282.478 45.7286 282.701 45.9508 282.925C46.1174 283.092 46.284 283.252 46.4427 283.419C46.6729 283.658 46.903 283.898 47.1331 284.137C47.2839 284.297 47.4347 284.456 47.5854 284.616C47.8473 284.903 48.1171 285.19 48.371 285.485C48.4742 285.605 48.5853 285.717 48.6884 285.836C49.0535 286.251 49.4185 286.682 49.7756 287.113C49.8311 287.177 49.8867 287.248 49.9343 287.312C50.2358 287.679 50.5374 288.054 50.831 288.429C51.204 288.908 51.5769 289.402 51.9419 289.897C51.9419 289.897 51.9499 289.913 51.9578 289.921C52.4736 290.623 52.9735 291.341 53.4576 292.075C53.5766 292.25 53.6877 292.418 53.8067 292.593C53.9813 292.857 54.1559 293.128 54.3225 293.399C54.4812 293.646 54.632 293.886 54.7828 294.133C54.9494 294.404 55.1161 294.683 55.2827 294.955C55.4176 295.186 55.5604 295.409 55.6874 295.641C56.0842 296.319 56.4651 296.997 56.8301 297.691C56.965 297.946 57.092 298.194 57.2269 298.449C57.3618 298.712 57.5046 298.983 57.6395 299.247C57.8299 299.63 58.0125 300.013 58.195 300.395C58.2505 300.515 58.3061 300.627 58.3616 300.746C58.5917 301.241 58.8139 301.728 59.0282 302.23C59.0837 302.358 59.1393 302.494 59.1948 302.621C59.3535 302.988 59.5043 303.355 59.6551 303.73C59.7265 303.898 59.79 304.065 59.8535 304.233C59.9963 304.592 60.1312 304.951 60.2661 305.31C60.3216 305.461 60.3772 305.613 60.4327 305.764C60.6073 306.235 60.774 306.714 60.9327 307.184C60.9485 307.224 60.9565 307.256 60.9723 307.296C61.139 307.807 61.3056 308.317 61.4564 308.828C61.504 308.995 61.5516 309.163 61.5992 309.322C61.7024 309.673 61.8055 310.024 61.9008 310.375C61.9563 310.575 62.0039 310.766 62.0515 310.966C62.1388 311.293 62.2182 311.62 62.2975 311.955C62.3452 312.146 62.3928 312.346 62.4324 312.537C62.5118 312.872 62.5832 313.215 62.6467 313.55C62.6864 313.726 62.7181 313.909 62.7578 314.085C62.8451 314.524 62.9165 314.97 62.9879 315.409C62.9959 315.473 63.0117 315.537 63.0197 315.601C63.099 316.103 63.1704 316.606 63.226 317.108C63.2418 317.252 63.2577 317.388 63.2736 317.531C63.3133 317.89 63.3529 318.249 63.3847 318.608C63.4006 318.784 63.4164 318.951 63.4244 319.127C63.4482 319.462 63.472 319.805 63.4878 320.14C63.4878 320.299 63.5037 320.467 63.5116 320.627C63.5275 321.105 63.5434 321.584 63.5355 322.055C63.5355 322.549 63.5196 323.036 63.4958 323.514C63.4958 323.65 63.4799 323.786 63.472 323.921C63.4561 324.248 63.4323 324.575 63.4006 324.895C63.3847 325.078 63.3609 325.262 63.345 325.445C63.3133 325.716 63.2815 325.987 63.2498 326.251C63.226 326.442 63.1942 326.642 63.1625 326.833C63.1228 327.08 63.0831 327.32 63.0355 327.559C62.9958 327.774 62.9562 327.982 62.9086 328.197C62.861 328.413 62.8133 328.62 62.7657 328.835C62.7102 329.083 62.6467 329.322 62.5753 329.561C62.5197 329.753 62.4721 329.936 62.4166 330.12C62.3293 330.407 62.2341 330.686 62.1388 330.966C62.0833 331.117 62.0357 331.269 61.9801 331.412C61.8055 331.875 61.6151 332.33 61.4167 332.76C61.258 333.096 61.0993 333.423 60.9247 333.734C60.9247 333.734 60.9247 333.734 60.9247 333.742C60.7501 334.061 60.5676 334.364 60.3772 334.659C60.1074 335.082 59.8138 335.481 59.5202 335.864C59.4488 335.959 59.3694 336.047 59.298 336.135C59.0044 336.486 58.7028 336.829 58.3854 337.14C58.3616 337.164 58.3378 337.188 58.314 337.212C57.9728 337.547 57.6157 337.85 57.2507 338.137C57.1634 338.209 57.0682 338.273 56.9809 338.345C56.6079 338.624 56.2191 338.887 55.8144 339.127L64.2655 334.188C64.6702 333.957 65.0511 333.686 65.432 333.407C65.5193 333.343 65.6145 333.271 65.7018 333.199C66.0668 332.912 66.4239 332.609 66.7651 332.274C66.7889 332.25 66.8127 332.226 66.8366 332.202C67.154 331.883 67.4555 331.548 67.7491 331.189C67.8205 331.101 67.8999 331.005 67.9713 330.918C68.2728 330.535 68.5585 330.136 68.8283 329.713C68.8283 329.697 68.8442 329.689 68.8521 329.681C69.0346 329.394 69.2092 329.099 69.3759 328.796C69.3759 328.796 69.3759 328.788 69.3759 328.78C69.5425 328.484 69.6933 328.173 69.844 327.854C69.844 327.838 69.8599 327.822 69.8599 327.806C70.0662 327.376 70.2487 326.921 70.4233 326.458C70.4392 326.418 70.4551 326.378 70.4709 326.339C70.5106 326.235 70.5424 326.115 70.582 326.003C70.6772 325.724 70.7725 325.445 70.8598 325.158C70.8836 325.078 70.9074 325.014 70.9312 324.934C70.9629 324.831 70.9867 324.711 71.0185 324.599C71.082 324.36 71.1454 324.113 71.2089 323.865C71.2327 323.762 71.2645 323.666 71.2883 323.57C71.3121 323.459 71.3359 323.347 71.3597 323.235C71.4073 323.028 71.447 322.812 71.4867 322.597C71.5105 322.485 71.5343 322.382 71.5501 322.27C71.5739 322.142 71.5898 322.007 71.6057 321.871C71.6374 321.68 71.6692 321.488 71.693 321.289C71.7088 321.193 71.7247 321.097 71.7406 320.994C71.7644 320.826 71.7723 320.651 71.7961 320.483C71.812 320.299 71.8358 320.116 71.8517 319.933C71.8517 319.861 71.8675 319.789 71.8755 319.709C71.8993 319.462 71.9072 319.207 71.9231 318.959C71.9231 318.824 71.939 318.688 71.9469 318.552C71.9469 318.52 71.9469 318.489 71.9469 318.457C71.9628 318.034 71.9786 317.603 71.9786 317.172C71.9786 317.148 71.9786 317.124 71.9786 317.093C71.9786 316.694 71.9786 316.295 71.9628 315.888L72.0025 315.936Z" fill="url(#paint16_linear_0_1)" stroke="#010E3E" stroke-width="1.233" stroke-linecap="round" stroke-linejoin="round"/>
<path d="M37.1886 276.128C51.8134 284.616 63.6212 305.182 63.5736 322.071C63.526 338.959 51.6388 345.78 37.014 337.292C22.3971 328.804 10.5814 308.23 10.629 291.341C10.6767 274.445 22.5638 267.64 37.1886 276.128Z" fill="white" stroke="#010E3E" stroke-width="1.233" stroke-miterlimit="10"/>
<path d="M46.3536 314.763C46.7663 315.983 46.9726 317.204 46.9726 318.408C46.9726 320.491 46.5361 322.03 45.6871 323.035C44.83 324.033 43.6318 324.487 42.0923 324.392C41.0131 324.328 39.8149 323.985 38.4818 323.386V326.649L35.26 324.782V321.567C34.2126 320.85 33.2206 320.076 32.2922 319.206C30.967 317.97 29.7608 316.566 28.6975 315.01C27.6262 313.446 26.6819 311.771 25.8487 309.952L29.1895 307.543C30.4592 310.335 31.7129 312.481 32.935 313.981C33.665 314.866 34.4427 315.648 35.2838 316.326L35.3076 307.734C34.1015 306.721 33.0223 305.708 32.1018 304.679C31.0305 303.498 30.1338 302.286 29.4038 301.033C28.6737 299.773 28.142 298.528 27.8008 297.292C27.4675 296.055 27.3009 294.771 27.3009 293.447C27.3009 292.122 27.5628 291.045 28.0706 290.224C28.5864 289.41 29.2847 288.843 30.1735 288.548C31.0622 288.253 32.0938 288.213 33.2683 288.445C33.9348 288.572 34.6252 288.804 35.3473 289.115V285.78L38.5691 287.647V290.926C39.5134 291.572 40.3942 292.266 41.2036 293.016C42.4177 294.141 43.489 295.393 44.4095 296.757C45.33 298.121 46.0997 299.573 46.6948 301.097L43.3144 302.988C42.7907 301.751 42.2114 300.634 41.5607 299.637C40.91 298.64 40.2037 297.762 39.4499 297.005C39.1563 296.709 38.8547 296.446 38.5532 296.191L38.5294 304.495C39.6403 305.445 40.6561 306.402 41.5845 307.391C42.7272 308.62 43.7032 309.848 44.5126 311.085C45.322 312.329 45.933 313.558 46.3536 314.779V314.763ZM41.2353 318.185C41.6559 317.866 41.8622 317.347 41.8702 316.629C41.8702 316.119 41.7908 315.584 41.6242 315.058C41.4575 314.523 41.2036 313.981 40.8624 313.438C40.5211 312.896 40.1085 312.329 39.6086 311.739C39.2753 311.34 38.9023 310.941 38.5135 310.558L38.4897 318.241C38.8389 318.368 39.1801 318.456 39.5054 318.512C40.2355 318.616 40.8068 318.512 41.2353 318.201M35.3235 301.64L35.3473 294.332C35.0934 294.252 34.8474 294.188 34.6173 294.149C33.9269 294.053 33.3873 294.165 32.9905 294.5C32.5938 294.835 32.4033 295.385 32.4033 296.175C32.4033 296.773 32.5144 297.379 32.7525 297.986C32.9826 298.584 33.3159 299.198 33.7444 299.805C34.157 300.395 34.6887 301.009 35.3314 301.64" fill="#5F38FB"/>
</g>
<defs>
<linearGradient id="paint0_linear_0_1" x1="44.6103" y1="318.483" x2="472.672" y2="314.203" gradientUnits="userSpaceOnUse">
<stop stop-color="#FCFDFD"/>
<stop offset="0.16" stop-color="#EAEEF2"/>
<stop offset="0.33" stop-color="#DFE5EC"/>
<stop offset="0.51" stop-color="#DCE2EA"/>
<stop offset="0.67" stop-color="#DFE4EC"/>
<stop offset="0.82" stop-color="#EAEDF2"/>
<stop offset="0.95" stop-color="#FCFCFD"/>
<stop offset="0.97" stop-color="white"/>
</linearGradient>
<linearGradient id="paint1_linear_0_1" x1="90.107" y1="291.814" x2="518.162" y2="287.534" gradientUnits="userSpaceOnUse">
<stop stop-color="#FCFDFD"/>
<stop offset="0.16" stop-color="#EAEEF2"/>
<stop offset="0.33" stop-color="#DFE5EC"/>
<stop offset="0.51" stop-color="#DCE2EA"/>
<stop offset="0.67" stop-color="#DFE4EC"/>
<stop offset="0.82" stop-color="#EAEDF2"/>
<stop offset="0.95" stop-color="#FCFCFD"/>
<stop offset="0.97" stop-color="white"/>
</linearGradient>
<linearGradient id="paint2_linear_0_1" x1="135.598" y1="265.138" x2="563.653" y2="260.858" gradientUnits="userSpaceOnUse">
<stop stop-color="#FCFDFD"/>
<stop offset="0.16" stop-color="#EAEEF2"/>
<stop offset="0.33" stop-color="#DFE5EC"/>
<stop offset="0.51" stop-color="#DCE2EA"/>
<stop offset="0.67" stop-color="#DFE4EC"/>
<stop offset="0.82" stop-color="#EAEDF2"/>
<stop offset="0.95" stop-color="#FCFCFD"/>
<stop offset="0.97" stop-color="white"/>
</linearGradient>
<linearGradient id="paint3_linear_0_1" x1="181.087" y1="238.462" x2="609.141" y2="234.182" gradientUnits="userSpaceOnUse">
<stop stop-color="#FCFDFD"/>
<stop offset="0.16" stop-color="#EAEEF2"/>
<stop offset="0.33" stop-color="#DFE5EC"/>
<stop offset="0.51" stop-color="#DCE2EA"/>
<stop offset="0.67" stop-color="#DFE4EC"/>
<stop offset="0.82" stop-color="#EAEDF2"/>
<stop offset="0.95" stop-color="#FCFCFD"/>
<stop offset="0.97" stop-color="white"/>
</linearGradient>
<linearGradient id="paint4_linear_0_1" x1="226.578" y1="211.793" x2="654.64" y2="207.514" gradientUnits="userSpaceOnUse">
<stop stop-color="#FCFDFD"/>
<stop offset="0.16" stop-color="#EAEEF2"/>
<stop offset="0.33" stop-color="#DFE5EC"/>
<stop offset="0.51" stop-color="#DCE2EA"/>
<stop offset="0.67" stop-color="#DFE4EC"/>
<stop offset="0.82" stop-color="#EAEDF2"/>
<stop offset="0.95" stop-color="#FCFCFD"/>
<stop offset="0.97" stop-color="white"/>
</linearGradient>
<linearGradient id="paint5_linear_0_1" x1="272.074" y1="185.117" x2="700.128" y2="180.838" gradientUnits="userSpaceOnUse">
<stop stop-color="#FCFDFD"/>
<stop offset="0.16" stop-color="#EAEEF2"/>
<stop offset="0.33" stop-color="#DFE5EC"/>
<stop offset="0.51" stop-color="#DCE2EA"/>
<stop offset="0.67" stop-color="#DFE4EC"/>
<stop offset="0.82" stop-color="#EAEDF2"/>
<stop offset="0.95" stop-color="#FCFCFD"/>
<stop offset="0.97" stop-color="white"/>
</linearGradient>
<linearGradient id="paint6_linear_0_1" x1="317.564" y1="158.441" x2="745.619" y2="154.162" gradientUnits="userSpaceOnUse">
<stop stop-color="#FCFDFD"/>
<stop offset="0.16" stop-color="#EAEEF2"/>
<stop offset="0.33" stop-color="#DFE5EC"/>
<stop offset="0.51" stop-color="#DCE2EA"/>
<stop offset="0.67" stop-color="#DFE4EC"/>
<stop offset="0.82" stop-color="#EAEDF2"/>
<stop offset="0.95" stop-color="#FCFCFD"/>
<stop offset="0.97" stop-color="white"/>
</linearGradient>
<linearGradient id="paint7_linear_0_1" x1="363.055" y1="131.773" x2="791.109" y2="127.493" gradientUnits="userSpaceOnUse">
<stop stop-color="#FCFDFD"/>
<stop offset="0.16" stop-color="#EAEEF2"/>
<stop offset="0.33" stop-color="#DFE5EC"/>
<stop offset="0.51" stop-color="#DCE2EA"/>
<stop offset="0.67" stop-color="#DFE4EC"/>
<stop offset="0.82" stop-color="#EAEDF2"/>
<stop offset="0.95" stop-color="#FCFCFD"/>
<stop offset="0.97" stop-color="white"/>
</linearGradient>
<linearGradient id="paint8_linear_0_1" x1="772.502" y1="311.418" x2="323.68" y2="315.905" gradientUnits="userSpaceOnUse">
<stop stop-color="#FCFDFD"/>
<stop offset="0.16" stop-color="#EAEEF2"/>
<stop offset="0.33" stop-color="#DFE5EC"/>
<stop offset="0.51" stop-color="#DCE2EA"/>
<stop offset="0.67" stop-color="#DFE4EC"/>
<stop offset="0.82" stop-color="#EAEDF2"/>
<stop offset="0.95" stop-color="#FCFCFD"/>
<stop offset="0.97" stop-color="white"/>
</linearGradient>
<linearGradient id="paint9_linear_0_1" x1="726.488" y1="285.657" x2="277.666" y2="290.144" gradientUnits="userSpaceOnUse">
<stop stop-color="#FCFDFD"/>
<stop offset="0.16" stop-color="#EAEEF2"/>
<stop offset="0.33" stop-color="#DFE5EC"/>
<stop offset="0.51" stop-color="#DCE2EA"/>
<stop offset="0.67" stop-color="#DFE4EC"/>
<stop offset="0.82" stop-color="#EAEDF2"/>
<stop offset="0.95" stop-color="#FCFCFD"/>
<stop offset="0.97" stop-color="white"/>
</linearGradient>
<linearGradient id="paint10_linear_0_1" x1="675.933" y1="259.905" x2="230.666" y2="264.356" gradientUnits="userSpaceOnUse">
<stop stop-color="#FCFDFD"/>
<stop offset="0.16" stop-color="#EAEEF2"/>
<stop offset="0.33" stop-color="#DFE5EC"/>
<stop offset="0.51" stop-color="#DCE2EA"/>
<stop offset="0.67" stop-color="#DFE4EC"/>
<stop offset="0.82" stop-color="#EAEDF2"/>
<stop offset="0.95" stop-color="#FCFCFD"/>
<stop offset="0.97" stop-color="white"/>
</linearGradient>
<linearGradient id="paint11_linear_0_1" x1="634.45" y1="234.142" x2="185.635" y2="238.63" gradientUnits="userSpaceOnUse">
<stop stop-color="#FCFDFD"/>
<stop offset="0.16" stop-color="#EAEEF2"/>
<stop offset="0.33" stop-color="#DFE5EC"/>
<stop offset="0.51" stop-color="#DCE2EA"/>
<stop offset="0.67" stop-color="#DFE4EC"/>
<stop offset="0.82" stop-color="#EAEDF2"/>
<stop offset="0.95" stop-color="#FCFCFD"/>
<stop offset="0.97" stop-color="white"/>
</linearGradient>
<linearGradient id="paint12_linear_0_1" x1="588.437" y1="208.381" x2="139.615" y2="212.869" gradientUnits="userSpaceOnUse">
<stop stop-color="#FCFDFD"/>
<stop offset="0.16" stop-color="#EAEEF2"/>
<stop offset="0.33" stop-color="#DFE5EC"/>
<stop offset="0.51" stop-color="#DCE2EA"/>
<stop offset="0.67" stop-color="#DFE4EC"/>
<stop offset="0.82" stop-color="#EAEDF2"/>
<stop offset="0.95" stop-color="#FCFCFD"/>
<stop offset="0.97" stop-color="white"/>
</linearGradient>
<linearGradient id="paint13_linear_0_1" x1="542.424" y1="182.62" x2="93.6019" y2="187.108" gradientUnits="userSpaceOnUse">
<stop stop-color="#FCFDFD"/>
<stop offset="0.16" stop-color="#EAEEF2"/>
<stop offset="0.33" stop-color="#DFE5EC"/>
<stop offset="0.51" stop-color="#DCE2EA"/>
<stop offset="0.67" stop-color="#DFE4EC"/>
<stop offset="0.82" stop-color="#EAEDF2"/>
<stop offset="0.95" stop-color="#FCFCFD"/>
<stop offset="0.97" stop-color="white"/>
</linearGradient>
<linearGradient id="paint14_linear_0_1" x1="496.409" y1="156.866" x2="47.5866" y2="161.354" gradientUnits="userSpaceOnUse">
<stop stop-color="#FCFDFD"/>
<stop offset="0.16" stop-color="#EAEEF2"/>
<stop offset="0.33" stop-color="#DFE5EC"/>
<stop offset="0.51" stop-color="#DCE2EA"/>
<stop offset="0.67" stop-color="#DFE4EC"/>
<stop offset="0.82" stop-color="#EAEDF2"/>
<stop offset="0.95" stop-color="#FCFCFD"/>
<stop offset="0.97" stop-color="white"/>
</linearGradient>
<linearGradient id="paint15_linear_0_1" x1="450.387" y1="131.105" x2="1.57188" y2="135.593" gradientUnits="userSpaceOnUse">
<stop stop-color="#FCFDFD"/>
<stop offset="0.16" stop-color="#EAEEF2"/>
<stop offset="0.33" stop-color="#DFE5EC"/>
<stop offset="0.51" stop-color="#DCE2EA"/>
<stop offset="0.67" stop-color="#DFE4EC"/>
<stop offset="0.82" stop-color="#EAEDF2"/>
<stop offset="0.95" stop-color="#FCFCFD"/>
<stop offset="0.97" stop-color="white"/>
</linearGradient>
<linearGradient id="paint16_linear_0_1" x1="18.3517" y1="303.339" x2="72.0263" y2="303.339" gradientUnits="userSpaceOnUse">
<stop stop-color="#DCE2EA"/>
<stop offset="0.8" stop-color="#F3F5F8"/>
</linearGradient>
<clipPath id="clip0_0_1">
<rect width="789.59" height="438.934" fill="white" transform="translate(0.289062 7.8942) rotate(-0.572843)"/>
</clipPath>
<clipPath id="clip1_0_1">
<rect width="385" height="300" fill="white" transform="translate(61.9873 68.0954)"/>
</clipPath>
<clipPath id="clip2_0_1">
<rect width="62" height="74" fill="white" transform="translate(10.3232 267.24)"/>
</clipPath>
</defs>
</svg>
